<svg width="24" height="24" viewBox="0 0 24 24" fill="none" xmlns="http://www.w3.org/2000/svg">
<g clip-path="url(#clip0_445_86162)">
<path d="M3.75 12C3.75 6.36675 7.96059 1.71694 13.4062 1.02609C12.9458 0.967641 12.4764 0.9375 12 0.9375C5.89036 0.9375 0.9375 5.89036 0.9375 12C0.9375 18.1096 5.89036 23.0625 12 23.0625C12.4764 23.0625 12.9458 23.0324 13.4062 22.9739C7.96059 22.2831 3.75 17.6332 3.75 12Z" fill="#CEE1F2"/>
<path d="M12 24C8.79469 24 5.78123 22.7518 3.51469 20.4853C1.24823 18.2188 0 15.2053 0 12C0 8.79469 1.24823 5.78123 3.51469 3.51469C5.78123 1.24823 8.79469 0 12 0C15.2053 0 18.2188 1.24823 20.4853 3.51469C22.7518 5.78123 24 8.79469 24 12C24 12.5178 23.5803 12.9375 23.0625 12.9375C22.5447 12.9375 22.125 12.5178 22.125 12C22.125 6.41705 17.583 1.875 12 1.875C6.41705 1.875 1.875 6.41705 1.875 12C1.875 17.583 6.41705 22.125 12 22.125C13.6334 22.125 15.1921 21.7484 16.6329 21.0055C17.0932 20.7682 17.6585 20.9489 17.8958 21.4091C18.133 21.8693 17.9523 22.4347 17.4921 22.672C15.8071 23.5408 13.908 24 12 24Z" fill="#0063CB"/>
<path d="M22.8685 15.4117C22.4953 15.0528 21.9017 15.0645 21.543 15.4377C21.1458 15.8506 20.6118 16.0781 20.0391 16.0781C18.8889 16.0781 17.9531 15.1424 17.9531 13.9922V12C17.9531 8.71744 15.2826 6.04688 12 6.04688C8.71744 6.04688 6.04688 8.71744 6.04688 12C6.04688 15.2826 8.71744 17.9531 12 17.9531C13.8176 17.9531 15.4473 17.134 16.5401 15.846C17.2063 17.0982 18.5244 17.9531 20.0391 17.9531C21.1265 17.9531 22.1407 17.5213 22.8945 16.7373C23.2534 16.364 23.2418 15.7705 22.8685 15.4117ZM12 16.0781C9.75131 16.0781 7.92188 14.2487 7.92188 12C7.92188 9.75131 9.75131 7.92188 12 7.92188C14.2487 7.92188 16.0781 9.75131 16.0781 12C16.0781 14.2487 14.2487 16.0781 12 16.0781Z" fill="#B34000"/>
</g>
<defs>
<clipPath id="clip0_445_86162">
<rect width="24" height="24" fill="white"/>
</clipPath>
</defs>
</svg>
