<svg width="401" height="401" viewBox="0 0 401 401" fill="none" xmlns="http://www.w3.org/2000/svg">
<path d="M346.737 234.184C345.67 220.839 330.921 202.104 315.932 196.955C296.788 190.347 284.654 200.821 267.13 198.904C219.748 193.715 207.116 160.015 188.334 129.475C146.694 61.7861 31.5025 90.7624 45.0884 179.119C53.2608 232.251 109.168 312.78 192.753 259.96C228.843 237.119 217.887 223.87 256.207 244.377C271.333 252.462 351.581 294.623 346.737 234.184Z" fill="#0063CB"/>
<path opacity="0.9" d="M346.737 234.184C345.67 220.839 330.921 202.104 315.932 196.955C296.788 190.347 284.654 200.821 267.13 198.904C219.748 193.715 207.116 160.015 188.334 129.475C146.694 61.7861 31.5025 90.7624 45.0884 179.119C53.2608 232.251 109.168 312.78 192.753 259.96C228.843 237.119 217.887 223.87 256.207 244.377C271.333 252.462 351.581 294.623 346.737 234.184Z" fill="white"/>
<path d="M200.5 342.903C286.38 342.903 356 338.838 356 333.824C356 328.81 286.38 324.746 200.5 324.746C114.62 324.746 45.0002 328.81 45.0002 333.824C45.0002 338.838 114.62 342.903 200.5 342.903Z" fill="#F5F5F5"/>
<path d="M110.532 116.996C104.068 123.5 115.055 133.597 107.797 138.233C113.724 141.208 134.495 144.985 139.877 133.284C135.955 130.237 138.682 122.746 135.065 115.552C129.651 104.885 104.068 109.609 110.532 116.996Z" fill="#263238"/>
<path d="M111.117 116.827C109.104 116.49 102.295 119.875 107.364 128.961C111.446 136.308 108.045 136.829 108.045 136.829C108.045 136.829 112.055 136.941 109.649 131.48C107.099 125.649 105.904 119.602 111.117 116.827Z" fill="#263238"/>
<path d="M158.796 174.523C158.548 174.069 158.132 173.731 157.637 173.581C157.142 173.431 156.608 173.481 156.149 173.721L155.676 173.97C155.524 174.05 155.235 174.242 155.002 174.379C154.77 174.515 154.497 174.667 154.241 174.796C153.735 175.05 153.212 175.27 152.677 175.453C151.685 175.813 150.643 176.01 149.589 176.039C148.621 176.05 147.658 175.896 146.742 175.582C146.16 175.366 145.599 175.097 145.066 174.78C144.376 173.256 143.718 171.716 143.157 170.128C142.475 168.275 141.874 166.383 141.344 164.466C140.815 162.549 140.35 160.608 139.965 158.659C139.764 157.689 139.588 156.711 139.428 155.74L139.211 154.289C139.139 153.823 139.075 153.294 139.035 152.925V152.765C138.928 151.701 138.404 150.724 137.577 150.047C136.749 149.37 135.687 149.049 134.624 149.156C133.56 149.262 132.582 149.787 131.906 150.614C131.229 151.441 130.908 152.503 131.015 153.567C131.071 154.248 131.119 154.77 131.191 155.339C131.263 155.909 131.343 156.454 131.424 157.007C131.6 158.114 131.801 159.205 132.025 160.296C132.471 162.463 133.033 164.605 133.709 166.712C134.022 167.77 134.407 168.813 134.768 169.863C135.129 170.914 135.57 171.941 136.027 172.959C136.902 175.017 137.896 177.023 139.003 178.966L139.099 179.143C139.387 179.665 139.818 180.093 140.342 180.378C141.858 181.204 143.496 181.783 145.194 182.094C146.938 182.402 148.726 182.364 150.455 181.982C152.896 181.415 155.138 180.199 156.943 178.461C157.24 178.188 157.521 177.907 157.745 177.611C157.97 177.314 158.243 177.033 158.547 176.616C158.782 176.327 158.931 175.976 158.975 175.606C159.019 175.235 158.957 174.86 158.796 174.523Z" fill="#FF8B7B"/>
<path d="M164.129 167.016H163.897C163.129 167 162.368 167.161 161.672 167.486C160.977 167.812 160.366 168.293 159.887 168.893L156.013 173.753V177.073C159.125 178.308 163.071 174.98 163.071 174.98L165.068 174.475C165.74 174.307 166.326 173.896 166.712 173.321C167.099 172.747 167.259 172.049 167.161 171.363L166.872 169.414C166.778 168.752 166.449 168.146 165.946 167.706C165.442 167.266 164.798 167.021 164.129 167.016Z" fill="#FF8B7B"/>
<path d="M138.93 148.274C141.521 150.936 141.681 158.884 141.681 158.884L131.319 167.225C131.319 167.225 127.061 155.435 129.419 151.273C131.416 147.744 135.626 144.881 138.93 148.274Z" fill="#0063CB"/>
<g opacity="0.2">
<path d="M138.93 148.274C141.521 150.936 141.681 158.884 141.681 158.884L131.319 167.225C131.319 167.225 127.061 155.435 129.419 151.273C131.416 147.744 135.626 144.881 138.93 148.274Z" fill="white"/>
</g>
<path d="M121.784 326.951L127.51 327.577L128.296 312.018L122.57 311.385L121.784 326.951Z" fill="#FF8B7B"/>
<path d="M128.448 323.839H121.719C121.584 323.835 121.452 323.884 121.351 323.975C121.251 324.066 121.19 324.193 121.182 324.329L120.733 330.688C120.733 331.021 120.863 331.341 121.095 331.579C121.327 331.817 121.643 331.955 121.976 331.964C124.815 331.964 124.847 331.964 128.392 331.964H137.944C140.879 331.964 140.887 328.988 139.62 328.716C133.918 327.513 131.696 325.844 129.683 324.256C129.329 323.984 128.895 323.837 128.448 323.839Z" fill="#263238"/>
<path opacity="0.2" d="M128.296 312.026L127.887 320.046H122.128L122.57 311.392L128.296 312.026Z" fill="black"/>
<path d="M131.383 187.885C131.383 187.885 136.34 229.372 136.34 247.818C132.434 273.482 129.122 318.522 129.122 318.522L121.198 318.314C121.198 318.314 117.597 269.263 120.933 248.083C116.659 229.107 111.382 185.318 111.382 185.318L131.383 187.885Z" fill="#263238"/>
<path opacity="0.2" d="M116.105 199.433C115.161 199.849 114.245 200.326 113.363 200.861C114.453 209.049 115.889 219.355 117.413 228.867C120.011 221.039 118.608 203.828 116.105 199.433Z" fill="black"/>
<path d="M59.7729 312.507L64.4967 315.803L72.6451 302.522L67.9213 299.226L59.7729 312.507Z" fill="#FF8B7B"/>
<path d="M65.6918 314.063L61.6818 308.665C61.6054 308.555 61.4887 308.479 61.3567 308.453C61.2248 308.428 61.0881 308.455 60.976 308.529L55.6026 311.978C55.3345 312.175 55.1548 312.47 55.1023 312.798C55.0498 313.127 55.1287 313.463 55.3219 313.734C56.9981 316.02 57.0302 316.036 59.1394 318.875C60.4467 320.615 63.0532 324.12 64.8497 326.534C66.6461 328.948 68.996 327.12 68.4506 325.933C66.0446 320.647 66.0446 317.913 66.0928 315.314C66.1009 314.864 65.9599 314.424 65.6918 314.063Z" fill="#263238"/>
<path opacity="0.2" d="M72.6372 302.522L68.4427 309.371L63.3821 306.612L67.9214 299.226L72.6372 302.522Z" fill="black"/>
<path d="M88.7494 318.073C84.6512 318.073 76.1179 318.073 75.9735 312.042C75.8612 307.31 81.7158 305.345 86.7684 305.105C87.3282 305.078 87.8879 305.161 88.4154 305.351C88.9429 305.54 89.4279 305.832 89.8427 306.208C90.2576 306.585 90.5941 307.04 90.8331 307.547C91.0721 308.054 91.2088 308.603 91.2356 309.163V309.484C96.9619 309.211 100.667 307.96 102.022 305.827C105.078 301.015 99.2235 288.592 93.5694 276.586C86.9128 262.462 79.374 246.463 79.2296 231.136C79.2243 230.576 79.3295 230.02 79.539 229.5C79.7486 228.981 80.0584 228.508 80.4509 228.108C80.8434 227.708 81.3108 227.389 81.8264 227.17C82.3421 226.95 82.8959 226.835 83.4562 226.83C84.5802 226.832 85.6582 227.276 86.4568 228.067C87.2553 228.858 87.7102 229.932 87.7228 231.056C87.8511 244.514 94.9408 259.615 101.245 272.945C108.463 288.327 114.758 301.616 109.184 310.398C105.952 315.563 99.2556 318.073 88.7494 318.073Z" fill="#0063CB"/>
<path d="M125.04 187.066C125.04 187.066 111.358 234.481 104.677 251.676C91.7326 274.18 70.255 308.618 70.255 308.618L63.3979 304.608C63.3979 304.608 79.4379 264.828 90.2248 246.302C93.1201 227.054 104.067 184.34 104.067 184.34L125.04 187.066Z" fill="#263238"/>
<path d="M66.9268 317.937C67.1989 318.387 67.6182 318.73 68.1138 318.907C68.2588 318.942 68.4108 318.936 68.5524 318.889C68.6941 318.842 68.8199 318.757 68.9158 318.643C68.9825 318.581 69.0333 318.505 69.0641 318.42C69.0948 318.334 69.1044 318.243 69.0922 318.153C68.996 317.191 66.5098 315.94 66.0125 315.699C65.9835 315.687 65.9512 315.687 65.9217 315.697C65.8922 315.707 65.8674 315.728 65.8521 315.755C65.8328 315.785 65.8225 315.82 65.8225 315.856C65.8225 315.891 65.8328 315.926 65.8521 315.956C66.1466 316.649 66.5065 317.312 66.9268 317.937ZM68.6351 317.937C68.7057 318.025 68.7526 318.13 68.7714 318.242C68.7753 318.273 68.7714 318.304 68.7603 318.334C68.7491 318.363 68.7309 318.389 68.7072 318.41C68.6426 318.484 68.5595 318.539 68.4665 318.57C68.3735 318.601 68.2739 318.606 68.1779 318.586C67.6486 318.482 66.9509 317.624 66.2772 316.269C67.1507 316.676 67.9481 317.229 68.6351 317.905V317.937Z" fill="#0063CB"/>
<path d="M65.8122 315.988L65.8603 316.028C66.6623 316.469 68.7475 316.83 69.2046 316.164C69.2814 316.043 69.3187 315.901 69.3115 315.757C69.3043 315.614 69.253 315.476 69.1645 315.362C68.3625 313.943 65.9565 315.611 65.8523 315.683C65.8284 315.702 65.8093 315.727 65.7968 315.755C65.7842 315.783 65.7785 315.813 65.7801 315.844C65.7769 315.894 65.788 315.944 65.8122 315.988ZM68.8598 315.523C68.8831 315.551 68.9046 315.58 68.9239 315.611C69.0122 315.763 69.0282 315.876 68.9801 315.94C68.7154 316.325 67.1756 316.188 66.2773 315.836C66.8788 315.475 68.2823 314.745 68.8598 315.523Z" fill="#0063CB"/>
<path d="M132.33 325.163C132.856 325.211 133.382 325.078 133.822 324.786C133.933 324.688 134.015 324.561 134.059 324.42C134.103 324.278 134.107 324.127 134.07 323.984C134.059 323.893 134.027 323.806 133.977 323.73C133.927 323.653 133.86 323.589 133.782 323.543C132.98 323.053 130.469 324.296 129.98 324.553C129.953 324.568 129.931 324.593 129.919 324.622C129.908 324.651 129.907 324.684 129.916 324.714C129.928 324.747 129.948 324.777 129.975 324.801C130.002 324.825 130.034 324.841 130.068 324.85C130.81 325.031 131.567 325.136 132.33 325.163ZM133.324 323.775C133.439 323.768 133.553 323.793 133.653 323.847C133.693 323.847 133.734 323.904 133.75 324C133.771 324.096 133.765 324.196 133.734 324.289C133.703 324.382 133.647 324.465 133.573 324.529C133.18 324.89 132.073 324.938 130.582 324.673C131.425 324.222 132.339 323.918 133.284 323.775H133.324Z" fill="#0063CB"/>
<path d="M130.068 324.89H130.124C130.926 324.521 132.49 323.054 132.234 322.292C132.18 322.166 132.091 322.058 131.977 321.983C131.863 321.907 131.729 321.867 131.592 321.867C129.988 321.682 129.876 324.585 129.868 324.706C129.868 324.738 129.876 324.769 129.892 324.797C129.907 324.825 129.929 324.849 129.956 324.866C129.99 324.885 130.029 324.894 130.068 324.89ZM131.512 322.163H131.624C131.792 322.163 131.897 322.236 131.921 322.316C132.073 322.757 131.047 323.92 130.221 324.425C130.293 323.727 130.549 322.163 131.528 322.163H131.512Z" fill="#0063CB"/>
<path d="M104.067 184.38L131.384 187.876C137.543 167.137 139.572 157.12 140.117 152.3C140.262 151.088 139.978 149.864 139.317 148.839C138.655 147.814 137.656 147.053 136.492 146.686C134.888 146.172 132.819 145.563 130.766 145.082C130.068 144.897 129.354 144.729 128.657 144.568C124.567 143.739 120.424 143.203 116.258 142.964C115.64 142.908 115.031 142.876 114.413 142.844C113.202 142.78 112.007 142.764 110.916 142.764C110.098 142.763 109.288 142.932 108.538 143.262C107.789 143.591 107.116 144.073 106.563 144.676C106.01 145.28 105.589 145.992 105.326 146.768C105.064 147.543 104.965 148.364 105.038 149.18C105.254 151.586 105.423 153.824 105.551 155.877C105.856 160.689 105.952 164.538 105.88 167.907C105.716 173.437 105.11 178.946 104.067 184.38Z" fill="#0063CB"/>
<g opacity="0.3">
<path d="M104.067 184.38L131.384 187.876C137.543 167.137 139.572 157.12 140.117 152.3C140.262 151.088 139.978 149.864 139.317 148.839C138.655 147.814 137.656 147.053 136.492 146.686C134.888 146.172 132.819 145.563 130.766 145.082C130.068 144.897 129.354 144.729 128.657 144.568C124.567 143.739 120.424 143.203 116.258 142.964C115.64 142.908 115.031 142.876 114.413 142.844C113.202 142.78 112.007 142.764 110.916 142.764C110.098 142.763 109.288 142.932 108.538 143.262C107.789 143.591 107.116 144.073 106.563 144.676C106.01 145.28 105.589 145.992 105.326 146.768C105.064 147.543 104.965 148.364 105.038 149.18C105.254 151.586 105.423 153.824 105.551 155.877C105.856 160.689 105.952 164.538 105.88 167.907C105.716 173.437 105.11 178.946 104.067 184.38Z" fill="white"/>
</g>
<path opacity="0.3" d="M105.864 167.874C109.473 163.207 110.78 157.865 109.609 154.922L105.535 155.836C105.864 160.632 105.952 164.498 105.864 167.874Z" fill="#0063CB"/>
<path d="M130.766 145.034C130.06 144.849 129.355 144.681 128.657 144.52C124.564 143.694 120.418 143.158 116.25 142.916C115.632 142.868 115.023 142.836 114.413 142.804L113.347 142.756L114.149 144.159C114.261 144.352 116.988 148.811 123.773 153.607L125.224 154.617L126.62 153.551C127.964 152.587 129.062 151.32 129.825 149.853C130.589 148.386 130.996 146.759 131.015 145.106L130.766 145.034Z" fill="white"/>
<path d="M119.265 134.672C119.009 138.048 118.215 141.489 116.25 142.932C116.25 142.932 118.752 147.095 125.232 151.642C129.29 148.538 128.657 144.52 128.657 144.52C124.342 142.916 124.647 139.925 126.467 135.153L123.099 133.34C122.808 133.02 122.43 132.792 122.011 132.685C121.592 132.578 121.151 132.597 120.742 132.739C120.334 132.881 119.976 133.14 119.713 133.483C119.451 133.827 119.295 134.24 119.265 134.672Z" fill="#FF8B7B"/>
<path opacity="0.2" d="M123.099 133.34C122.826 133.039 122.475 132.819 122.085 132.704C121.695 132.59 121.28 132.585 120.888 132.692C120.495 132.798 120.14 133.01 119.86 133.306C119.581 133.602 119.389 133.969 119.305 134.367C120.585 136.947 122.648 139.055 125.2 140.39C125.292 138.581 125.718 136.805 126.459 135.153L123.099 133.34Z" fill="black"/>
<path d="M114.02 124.085C115.696 130.606 116.266 133.397 120.252 136.115C126.243 140.238 133.886 136.757 134.182 129.876C134.463 123.676 131.68 114.052 124.719 112.673C123.182 112.359 121.591 112.443 120.096 112.919C118.601 113.394 117.253 114.245 116.18 115.389C115.107 116.534 114.346 117.934 113.968 119.456C113.589 120.978 113.608 122.572 114.02 124.085Z" fill="#FF8B7B"/>
<path d="M130.614 114.02C126.687 117.511 122.028 120.079 116.98 121.535C116.98 121.535 121.96 132.129 112.641 129.459C109.938 120.436 112.641 115.753 115.047 113.547C122.457 111.141 127.67 110.339 130.614 114.02Z" fill="#263238"/>
<path d="M113.708 130.509C114.254 131.691 115.246 132.608 116.466 133.06C118.07 133.637 119.025 132.258 118.68 130.654C118.367 129.218 117.148 127.181 115.472 127.285C115.109 127.316 114.76 127.436 114.455 127.635C114.151 127.834 113.9 128.105 113.725 128.424C113.55 128.743 113.457 129.101 113.454 129.465C113.451 129.828 113.538 130.187 113.708 130.509Z" fill="#FF8B7B"/>
<path d="M103.867 182.728L102.319 185.013C102.199 185.19 102.399 185.414 102.712 185.454L131.359 189.128C131.608 189.128 131.825 189.063 131.865 188.911L132.426 186.505C132.426 186.337 132.266 186.168 132.001 186.128L104.332 182.583C104.249 182.564 104.162 182.567 104.08 182.592C103.998 182.618 103.925 182.664 103.867 182.728Z" fill="#0063CB"/>
<path d="M107.179 186.296L106.441 186.2C106.297 186.2 106.193 186.088 106.217 186L106.971 182.864C106.999 182.811 107.045 182.77 107.101 182.746C107.156 182.723 107.218 182.719 107.275 182.736L108.021 182.832C108.166 182.832 108.27 182.936 108.246 183.032L107.492 186.16C107.468 186.256 107.332 186.313 107.179 186.296Z" fill="#263238"/>
<path d="M129.242 189.119L128.504 189.031C128.36 189.031 128.256 188.919 128.28 188.823L129.034 185.695C129.034 185.607 129.194 185.543 129.338 185.559L130.084 185.655C130.229 185.655 130.333 185.767 130.309 185.855L129.555 188.991C129.531 189.079 129.395 189.144 129.242 189.119Z" fill="#263238"/>
<path d="M118.215 187.708L117.477 187.612C117.325 187.612 117.22 187.507 117.244 187.411L117.998 184.283C117.998 184.187 118.159 184.131 118.311 184.147L119.049 184.243C119.193 184.243 119.298 184.356 119.281 184.444L118.52 187.58C118.504 187.668 118.359 187.724 118.215 187.708Z" fill="#263238"/>
<path d="M125.192 123.805C125.288 124.342 125.657 124.727 125.994 124.655C126.331 124.582 126.548 124.101 126.443 123.564C126.339 123.027 125.97 122.642 125.641 122.714C125.313 122.786 125.112 123.267 125.192 123.805Z" fill="#263238"/>
<path d="M131.255 122.642C131.359 123.179 131.728 123.556 132.057 123.492C132.386 123.428 132.611 122.93 132.506 122.393C132.402 121.856 132.033 121.479 131.704 121.543C131.375 121.607 131.159 122.104 131.255 122.642Z" fill="#263238"/>
<path d="M131.528 121.607L132.747 120.982C132.747 120.982 132.33 122.121 131.528 121.607Z" fill="#263238"/>
<path d="M129.651 123.845C130.368 124.975 131.234 126.002 132.226 126.9C131.991 127.15 131.704 127.345 131.385 127.471C131.066 127.597 130.723 127.651 130.381 127.63L129.651 123.845Z" fill="#FF5652"/>
<path d="M125.866 129.795C125.842 129.823 125.828 129.859 125.827 129.896C125.826 129.933 125.838 129.969 125.86 129.998C125.883 130.028 125.915 130.048 125.951 130.057C125.987 130.065 126.025 130.06 126.058 130.044C126.664 129.735 127.335 129.574 128.015 129.574C128.696 129.574 129.366 129.735 129.972 130.044C130.008 130.065 130.051 130.07 130.092 130.06C130.132 130.05 130.167 130.024 130.189 129.988C130.211 129.951 130.218 129.908 130.209 129.866C130.2 129.825 130.176 129.788 130.141 129.763C129.487 129.428 128.762 129.254 128.027 129.254C127.292 129.254 126.568 129.428 125.914 129.763C125.914 129.763 125.914 129.779 125.866 129.795Z" fill="#263238"/>
<path d="M123.099 122.153C123.148 122.122 123.188 122.077 123.211 122.024C123.378 121.659 123.63 121.338 123.945 121.089C124.26 120.839 124.63 120.668 125.024 120.589C125.066 120.584 125.107 120.57 125.144 120.55C125.181 120.529 125.214 120.501 125.24 120.467C125.266 120.433 125.285 120.395 125.296 120.354C125.307 120.313 125.31 120.27 125.304 120.228C125.301 120.186 125.288 120.145 125.268 120.108C125.248 120.071 125.221 120.039 125.188 120.012C125.155 119.986 125.117 119.967 125.076 119.956C125.036 119.944 124.993 119.942 124.952 119.947C124.45 120.041 123.979 120.253 123.575 120.565C123.172 120.877 122.85 121.281 122.634 121.744C122.603 121.807 122.593 121.879 122.607 121.948C122.621 122.017 122.657 122.08 122.71 122.126C122.763 122.173 122.83 122.201 122.9 122.205C122.97 122.21 123.04 122.192 123.099 122.153Z" fill="#263238"/>
<path d="M133.06 118.086L133.1 118.046C133.124 118.012 133.142 117.972 133.151 117.931C133.16 117.89 133.161 117.847 133.153 117.805C133.146 117.763 133.13 117.723 133.107 117.688C133.084 117.652 133.055 117.621 133.02 117.597C132.605 117.299 132.125 117.104 131.62 117.029C131.115 116.954 130.6 117 130.116 117.164C130.039 117.198 129.978 117.26 129.945 117.337C129.912 117.415 129.91 117.502 129.94 117.581C129.972 117.66 130.034 117.722 130.112 117.755C130.19 117.788 130.278 117.789 130.357 117.757C130.741 117.632 131.15 117.599 131.549 117.664C131.948 117.728 132.325 117.886 132.651 118.126C132.712 118.17 132.788 118.19 132.863 118.183C132.938 118.176 133.008 118.141 133.06 118.086Z" fill="#263238"/>
<path d="M125.489 122.77L126.708 122.153C126.708 122.153 126.235 123.283 125.489 122.77Z" fill="#263238"/>
<path d="M83.4961 235.363C82.3714 235.363 81.2922 234.919 80.4932 234.127C79.6942 233.336 79.24 232.261 79.2295 231.136C79.1172 219.748 82.9107 210.132 90.2008 203.331C99.1752 194.958 113.17 191.068 129.627 192.368C141.168 193.282 148.57 190.475 157.136 187.211C158.547 186.681 159.967 186.136 161.426 185.607C162.49 185.22 163.664 185.271 164.689 185.749C165.715 186.227 166.509 187.094 166.896 188.157C167.283 189.221 167.232 190.394 166.754 191.42C166.275 192.446 165.409 193.24 164.346 193.627C162.926 194.14 161.547 194.669 160.175 195.191C151.442 198.511 142.419 201.935 128.953 200.877C114.918 199.762 103.225 202.85 96.0234 209.571C90.4094 214.767 87.6745 221.994 87.7628 231.056C87.768 231.616 87.6629 232.172 87.4534 232.692C87.2438 233.212 86.934 233.685 86.5415 234.085C86.149 234.485 85.6816 234.803 85.166 235.023C84.6503 235.242 84.0965 235.358 83.5362 235.363H83.4961Z" fill="#0063CB"/>
<path d="M182.17 199.651L165.008 205.938C163.576 206.463 161.994 206.397 160.611 205.755C159.227 205.114 158.155 203.949 157.631 202.517L150.543 183.171C150.019 181.739 150.085 180.157 150.726 178.773C151.368 177.39 152.533 176.318 153.965 175.793L171.127 169.506L182.162 199.628L182.17 199.651Z" fill="#0063CB"/>
<path opacity="0.7" d="M182.17 199.651L165.008 205.938C163.576 206.463 161.994 206.397 160.611 205.755C159.227 205.114 158.155 203.949 157.631 202.517L150.543 183.171C150.019 181.739 150.085 180.157 150.726 178.773C151.368 177.39 152.533 176.318 153.965 175.793L171.127 169.506L182.162 199.628L182.17 199.651Z" fill="white"/>
<path opacity="0.2" d="M163.48 172.302L171.139 169.503L182.174 199.642L174.515 202.449C174.005 201.956 173.616 201.352 173.376 200.684L163.752 174.387C163.501 173.722 163.407 173.008 163.48 172.302Z" fill="#0063CB"/>
<path d="M188.339 177.01L187.585 177.286L189.423 182.301L190.176 182.025L188.339 177.01Z" fill="#0063CB"/>
<path d="M186.425 174.162L183.722 166.768C183.259 165.514 182.422 164.432 181.325 163.668C180.228 162.904 178.924 162.494 177.587 162.493C176.826 162.491 176.071 162.624 175.357 162.886L170.481 164.675L170.2 163.921L175.085 162.132C175.886 161.838 176.733 161.689 177.587 161.691C179.089 161.695 180.554 162.158 181.785 163.018C183.017 163.878 183.956 165.094 184.476 166.503L187.179 173.898L186.425 174.162Z" fill="#0063CB"/>
<path d="M182.303 201.811L189.465 199.22C191.805 198.374 193.016 195.791 192.17 193.451L182.449 166.575C181.602 164.235 179.019 163.025 176.679 163.871L169.518 166.461C167.178 167.308 165.967 169.891 166.813 172.231L176.534 199.107C177.381 201.446 179.964 202.657 182.303 201.811Z" fill="#0063CB"/>
<path d="M178.204 174.732C178.368 175.179 178.395 175.665 178.283 176.127C178.17 176.59 177.923 177.009 177.572 177.331C177.221 177.653 176.783 177.863 176.312 177.936C175.841 178.009 175.36 177.94 174.928 177.739C174.497 177.538 174.135 177.213 173.888 176.806C173.641 176.399 173.52 175.927 173.541 175.452C173.562 174.976 173.724 174.517 174.006 174.134C174.288 173.75 174.677 173.458 175.125 173.296C175.724 173.079 176.384 173.108 176.961 173.377C177.539 173.646 177.986 174.134 178.204 174.732Z" fill="#263238"/>
<path d="M184.195 191.084C184.358 191.531 184.385 192.017 184.272 192.479C184.159 192.941 183.912 193.359 183.562 193.681C183.211 194.003 182.773 194.213 182.303 194.286C181.833 194.359 181.352 194.29 180.92 194.09C180.489 193.889 180.127 193.565 179.88 193.159C179.632 192.753 179.511 192.282 179.531 191.807C179.551 191.332 179.711 190.873 179.992 190.489C180.273 190.105 180.661 189.812 181.108 189.649C181.405 189.54 181.72 189.491 182.036 189.504C182.352 189.518 182.662 189.593 182.949 189.726C183.236 189.86 183.494 190.048 183.707 190.281C183.921 190.514 184.087 190.787 184.195 191.084Z" fill="#263238"/>
<path d="M113.884 189.152L113.82 189.079C112.569 187.828 111.245 186.465 110.05 185.069C108.855 183.674 107.685 182.279 106.618 180.835C105.572 179.427 104.621 177.95 103.771 176.416C103.162 175.318 102.645 174.173 102.223 172.991C102.704 171.387 103.217 169.783 103.827 168.244C104.525 166.391 105.311 164.57 106.169 162.774C107.027 160.977 107.941 159.213 108.928 157.489C109.409 156.623 109.914 155.764 110.435 154.922L111.237 153.687C111.486 153.286 111.783 152.885 111.991 152.54L112.079 152.412C112.65 151.543 112.86 150.487 112.666 149.466C112.473 148.444 111.89 147.538 111.042 146.938C110.193 146.338 109.145 146.091 108.118 146.249C107.09 146.407 106.164 146.957 105.535 147.785C105.134 148.33 104.829 148.763 104.509 149.236C104.188 149.709 103.899 150.182 103.594 150.656C103.009 151.602 102.439 152.556 101.894 153.527C100.809 155.463 99.8267 157.455 98.9508 159.494C98.5016 160.504 98.1488 161.539 97.6916 162.573C97.2345 163.608 96.9297 164.659 96.6089 165.733C95.9282 167.863 95.3685 170.029 94.9327 172.221V172.406C94.8083 172.991 94.8499 173.6 95.053 174.162C95.8301 176.219 96.8621 178.169 98.1247 179.969C99.3137 181.677 100.639 183.286 102.087 184.781C103.497 186.221 104.994 187.573 106.57 188.831C108.145 190.086 109.797 191.241 111.518 192.287C111.936 192.532 112.429 192.615 112.904 192.523C113.379 192.43 113.804 192.167 114.099 191.783C114.394 191.4 114.539 190.921 114.507 190.439C114.475 189.956 114.267 189.501 113.924 189.16L113.884 189.152Z" fill="#FF8B7B"/>
<path d="M123.203 193.137L123.099 192.929C122.766 192.234 122.276 191.626 121.668 191.153C121.06 190.679 120.35 190.354 119.594 190.202L113.507 188.967L110.531 190.451C110.852 193.787 115.616 195.784 115.616 195.784L116.972 197.332C117.429 197.851 118.061 198.183 118.748 198.264C119.435 198.346 120.127 198.171 120.693 197.773L122.297 196.626C122.836 196.246 123.223 195.686 123.389 195.048C123.555 194.409 123.489 193.732 123.203 193.137Z" fill="#FF8B7B"/>
<path d="M108.422 143.277C105.046 144.825 101.453 150.182 101.453 150.182L108.671 163.696C108.671 163.696 116.875 154.241 116.186 149.509C115.624 145.491 112.721 141.304 108.422 143.277Z" fill="#0063CB"/>
<g opacity="0.3">
<path d="M108.422 143.277C105.046 144.825 101.453 150.182 101.453 150.182L108.671 163.696C108.671 163.696 116.875 154.241 116.186 149.509C115.624 145.491 112.721 141.304 108.422 143.277Z" fill="white"/>
</g>
<path d="M339.479 320.343C332.413 320.343 325.468 318.891 322.099 314.496C306.156 293.644 306.3 251.7 306.436 211.11C306.516 189.256 308.241 168.604 305.811 152.564C304.383 143.109 299.395 136.621 294.358 133.268C286.883 128.328 276.618 130.983 272.231 132.113C271.684 132.266 271.113 132.308 270.55 132.237C269.987 132.167 269.444 131.984 268.952 131.701C268.461 131.418 268.031 131.039 267.687 130.587C267.344 130.136 267.094 129.62 266.952 129.071C266.81 128.522 266.779 127.949 266.861 127.388C266.943 126.827 267.136 126.287 267.429 125.801C267.722 125.315 268.109 124.893 268.567 124.558C269.025 124.224 269.546 123.984 270.098 123.853C275.575 122.433 288.423 119.121 299.058 126.146C306.236 130.886 312.443 139.347 314.248 151.289C316.774 167.971 315.05 188.927 314.969 211.11C314.833 250.272 314.697 290.765 328.876 309.283C330.023 310.775 334.49 312.114 341.909 311.729C342.566 311.729 343.208 311.657 343.841 311.601C343.554 311.02 343.406 310.38 343.408 309.732C343.408 308.601 343.858 307.516 344.658 306.715C345.458 305.915 346.543 305.466 347.675 305.466C357.002 305.466 361.911 306.268 362.857 310.534C363.13 311.761 363.274 314.841 358.767 316.95C355.398 318.53 347.362 320.343 339.479 320.343Z" fill="#0063CB"/>
<path d="M246.11 324.024L237.408 320.6L241.995 305.514L250.705 308.93L246.11 324.024Z" fill="#FFC3BD"/>
<path d="M237.199 319.677L247.016 323.527C247.14 323.577 247.244 323.668 247.311 323.784C247.378 323.9 247.404 324.036 247.385 324.168L246.422 330.28C246.397 330.427 246.34 330.568 246.253 330.69C246.167 330.812 246.054 330.914 245.923 330.987C245.792 331.06 245.647 331.103 245.497 331.112C245.348 331.122 245.198 331.098 245.059 331.042C242.597 330.023 238.739 328.339 235.62 327.112C233.703 326.358 230.054 325.155 227.399 324.112C224.744 323.07 225.434 320.311 226.597 320.503C231.882 321.353 233.903 320.447 236.013 319.661C236.396 319.514 236.82 319.52 237.199 319.677Z" fill="#263238"/>
<path opacity="0.2" d="M250.705 308.938L241.996 305.514L239.63 313.293L248.339 316.718L250.705 308.938Z" fill="black"/>
<path d="M261.588 192.167C261.588 192.167 253.713 231.096 250.705 250.296C247.321 271.814 238.378 311.12 238.378 311.12L249.951 315.667C249.951 315.667 266.481 275.423 268.782 255.934C275.72 240.095 289.514 193.483 289.514 193.483L261.588 192.167Z" fill="#0063CB"/>
<path d="M237.817 311.184L250.521 316.18L252.694 312.331L238.491 306.444L237.817 311.184Z" fill="#263238"/>
<path d="M234.705 319.846C234.262 319.707 233.878 319.425 233.614 319.044C233.541 318.902 233.503 318.745 233.503 318.586C233.503 318.427 233.541 318.271 233.614 318.129C233.647 318.042 233.703 317.966 233.777 317.909C233.851 317.852 233.939 317.818 234.032 317.808C234.874 317.72 236.438 319.773 236.59 320.014C236.607 320.04 236.616 320.071 236.616 320.102C236.616 320.134 236.607 320.164 236.59 320.19C236.573 320.217 236.549 320.238 236.52 320.25C236.492 320.263 236.46 320.267 236.429 320.263C235.841 320.187 235.263 320.047 234.705 319.846ZM234.28 318.169C234.215 318.137 234.143 318.124 234.072 318.129C234.023 318.129 233.967 318.129 233.911 318.266C233.858 318.361 233.83 318.469 233.83 318.578C233.83 318.688 233.858 318.796 233.911 318.891C234.144 319.316 234.946 319.693 236.109 319.886C235.62 319.197 234.998 318.613 234.28 318.169Z" fill="#0063CB"/>
<path d="M236.413 320.255C236.387 320.246 236.365 320.229 236.349 320.207C235.836 319.597 235.114 317.712 235.547 317.063C235.614 316.962 235.713 316.887 235.829 316.851C235.944 316.814 236.068 316.818 236.181 316.862C236.3 316.893 236.411 316.947 236.508 317.023C236.605 317.099 236.685 317.195 236.742 317.303C237.239 318.194 236.678 320.07 236.654 320.15C236.645 320.179 236.628 320.204 236.605 320.224C236.583 320.244 236.555 320.257 236.526 320.263C236.508 320.271 236.488 320.275 236.469 320.274C236.449 320.272 236.43 320.266 236.413 320.255ZM236.141 317.191H236.077C235.868 317.143 235.82 317.191 235.796 317.263C235.555 317.648 235.948 319.012 236.405 319.757C236.634 319.015 236.634 318.222 236.405 317.48C236.355 317.355 236.261 317.252 236.141 317.191Z" fill="#0063CB"/>
<path opacity="0.2" d="M278.567 215.738C274.204 221.144 272.479 234.922 272.495 246.407C275.439 238.298 278.815 228.001 281.783 218.649L278.567 215.738Z" fill="black"/>
<path d="M298.48 325.476H289.129L287.886 309.756H297.237L298.48 325.476Z" fill="#FFC3BD"/>
<path d="M288.6 324.69H299.146C299.281 324.689 299.413 324.734 299.518 324.819C299.623 324.904 299.696 325.023 299.723 325.155L301.063 331.186C301.094 331.333 301.092 331.486 301.056 331.632C301.021 331.778 300.953 331.914 300.857 332.031C300.761 332.147 300.641 332.24 300.504 332.304C300.368 332.367 300.219 332.399 300.068 332.397C297.406 332.349 293.211 332.188 289.859 332.188C287.79 332.188 283.956 332.405 281.109 332.405C278.262 332.405 277.901 329.59 279.048 329.333C284.285 328.186 285.841 326.615 287.509 325.107C287.81 324.84 288.198 324.691 288.6 324.69Z" fill="#263238"/>
<path opacity="0.2" d="M297.237 309.756H287.878L288.528 317.865H297.887L297.237 309.756Z" fill="black"/>
<path d="M272.913 192.656C272.913 192.656 278.093 236.037 279.184 251.652C280.7 273.386 286.563 316.293 286.563 316.293H298.994C298.994 316.293 300.325 272.472 298.079 252.975C301.175 235.964 300.197 193.964 300.197 193.964L272.913 192.656Z" fill="#0063CB"/>
<path d="M286.065 316.557H299.715L300.333 312.186L284.958 311.898L286.065 316.557Z" fill="#263238"/>
<path d="M286.314 325.756C285.852 325.791 285.392 325.67 285.007 325.412C284.887 325.307 284.794 325.175 284.736 325.027C284.677 324.879 284.655 324.72 284.67 324.561C284.67 324.467 284.696 324.374 284.746 324.293C284.795 324.213 284.866 324.147 284.951 324.104C285.704 323.719 287.894 325.067 288.159 325.219C288.186 325.235 288.209 325.258 288.223 325.287C288.238 325.316 288.243 325.348 288.239 325.379C288.232 325.412 288.216 325.441 288.193 325.465C288.171 325.489 288.142 325.507 288.11 325.516C287.523 325.664 286.92 325.744 286.314 325.756ZM285.303 324.353C285.232 324.348 285.16 324.362 285.095 324.393C285.055 324.393 285.007 324.457 284.999 324.577C284.982 324.685 284.993 324.796 285.031 324.898C285.069 325.001 285.132 325.092 285.215 325.163C285.584 325.476 286.474 325.516 287.621 325.283C286.924 324.829 286.145 324.513 285.328 324.353H285.303Z" fill="#0063CB"/>
<path d="M288.078 325.516H287.998C287.3 325.131 285.937 323.647 286.081 322.885C286.106 322.767 286.17 322.661 286.263 322.585C286.357 322.509 286.474 322.467 286.595 322.468C286.716 322.451 286.84 322.46 286.957 322.494C287.075 322.529 287.184 322.588 287.276 322.668C288.078 323.318 288.231 325.275 288.239 325.355C288.24 325.385 288.235 325.414 288.222 325.441C288.209 325.467 288.19 325.49 288.167 325.508C288.138 325.517 288.108 325.52 288.078 325.516ZM286.707 322.765H286.635C286.426 322.765 286.41 322.893 286.402 322.933C286.314 323.374 287.204 324.537 287.878 325.034C287.829 324.259 287.55 323.516 287.076 322.901C286.972 322.816 286.842 322.768 286.707 322.765Z" fill="#0063CB"/>
<path d="M277.203 132.835L269.713 132.739C267.194 132.739 264.692 132.659 262.214 132.619C261.46 132.619 260.722 132.571 259.976 132.538C260.024 132.538 260.056 132.45 260.097 132.41C260.626 131.849 261.155 131.271 261.701 130.718C261.973 130.429 262.241 130.149 262.503 129.876C262.751 129.603 263.072 129.298 263.24 129.074L263.922 128.208C264.459 127.522 264.767 126.685 264.802 125.815C264.837 124.944 264.596 124.085 264.115 123.359C263.634 122.633 262.937 122.077 262.122 121.77C261.307 121.463 260.416 121.42 259.575 121.647L258.092 122.048C257.634 122.185 257.177 122.337 256.72 122.489C255.822 122.802 254.94 123.147 254.066 123.524C252.304 124.302 250.602 125.208 248.973 126.235C247.285 127.313 245.689 128.528 244.201 129.868C242.625 131.3 241.199 132.888 239.942 134.608C239.625 135.037 239.356 135.499 239.14 135.987C238.395 137.694 238.359 139.627 239.039 141.361C239.718 143.095 241.059 144.488 242.765 145.234L243.495 145.555C245.143 146.264 246.85 146.828 248.596 147.239C250.12 147.632 251.563 147.889 252.983 148.129C254.402 148.37 255.79 148.562 257.169 148.731C258.549 148.899 259.912 149.028 261.276 149.14C263.994 149.38 266.689 149.501 269.376 149.581C272.062 149.661 274.693 149.661 277.484 149.533C279.66 149.44 281.714 148.501 283.208 146.916C284.703 145.331 285.519 143.225 285.483 141.047C285.448 138.869 284.563 136.791 283.018 135.256C281.473 133.72 279.389 132.849 277.211 132.827L277.203 132.835Z" fill="#FFC3BD"/>
<path d="M281.566 147.472C275.094 154.85 259.519 152.091 259.519 152.091L260.377 133.709C265.716 132.535 271.16 131.903 276.626 131.825C285.769 131.809 286.747 141.553 281.566 147.472Z" fill="#263238"/>
<path d="M264.291 141.818C263.906 144.785 263.489 148.779 263.24 154.152C259.864 171.235 258.605 183.337 261.588 192.167C263.946 195.079 294.671 194.517 300.197 193.956C303.405 186.016 303.741 163.223 304.118 144.063C304.166 141.423 303.265 138.853 301.581 136.82C299.896 134.787 297.538 133.424 294.935 132.98C288.021 131.754 280.968 131.516 273.987 132.274C271.537 132.553 269.251 133.644 267.493 135.374C265.736 137.104 264.609 139.372 264.291 141.818Z" fill="#263238"/>
<path opacity="0.2" d="M294.101 153.479C294.206 159.317 298.44 168.645 303.204 173.376C303.493 168.444 303.677 163.095 303.822 157.697L294.101 153.479Z" fill="black"/>
<path d="M320.872 164.827L320.599 164.185C319.478 161.51 318.168 158.919 316.678 156.43C315.25 154.024 313.71 151.754 312.114 149.565C310.518 147.376 308.826 145.282 307.094 143.245C306.212 142.235 305.337 141.224 304.415 140.246L303.028 138.786L301.552 137.294C300.006 135.768 297.927 134.904 295.755 134.884C293.582 134.865 291.488 135.692 289.915 137.191C288.343 138.69 287.415 140.742 287.33 142.912C287.245 145.083 288.008 147.202 289.458 148.819L289.698 149.084L294.406 154.321C296.01 156.101 297.542 157.914 299.066 159.718C299.804 160.625 300.565 161.531 301.255 162.453C301.945 163.375 302.675 164.266 303.364 165.18C304.359 166.567 305.321 167.947 306.179 169.302C306.048 169.987 305.882 170.664 305.682 171.331C305.106 173.274 304.429 175.185 303.653 177.058C302.851 179.038 302.001 181.068 301.119 183.065C300.237 185.061 299.29 187.147 298.448 189.152L298.368 189.328C297.999 190.214 297.942 191.2 298.209 192.123C298.476 193.045 299.049 193.849 299.834 194.402C300.62 194.954 301.57 195.222 302.528 195.162C303.487 195.101 304.395 194.715 305.105 194.068C306.874 192.428 308.553 190.693 310.133 188.871C311.737 187.069 313.242 185.171 314.649 183.177C315.362 182.174 316.044 181.132 316.718 180.049C317.418 178.948 318.057 177.81 318.635 176.64C319.284 175.365 319.847 174.046 320.319 172.695C320.934 170.964 321.28 169.149 321.345 167.313C321.366 166.46 321.205 165.613 320.872 164.827Z" fill="#FFC3BD"/>
<path d="M295.481 133.084C306.3 134.936 313.349 149.581 313.349 149.581L300.309 163.608C300.309 163.608 292.794 155.957 288.279 148.867C283.411 141.152 287.733 131.769 295.481 133.084Z" fill="#263238"/>
<path d="M275.72 109.994C273.907 106.955 273.314 102.776 276.634 98.5176C275.987 98.5987 275.33 98.4903 274.744 98.2056C274.157 97.9209 273.666 97.4721 273.33 96.9136C276.965 93.9391 281.537 92.348 286.234 92.4224C295.938 92.4224 296.66 96.1678 296.331 98.7261C302.972 99.1512 307.816 116.418 290.982 119.474C281.35 109.329 275.72 109.994 275.72 109.994Z" fill="#263238"/>
<path d="M295.721 99.0388C295.721 99.0388 298.424 96.2799 295.064 92.9436C295.817 93.1502 296.504 93.5483 297.058 94.0993C297.612 94.6502 298.013 95.3352 298.224 96.0874C298.697 98.0283 297.39 99.5842 295.721 99.0388Z" fill="#263238"/>
<path d="M292 117.365C291.744 122.682 291.262 128.729 292.153 132.971C290.773 135.145 287.244 137.647 280.925 138.208C278.679 136.933 275.712 133.814 276.746 132.21C279.433 130.485 280.572 125.264 279.802 121.358L292 117.365Z" fill="#FFC3BD"/>
<path opacity="0.2" d="M288.92 118.367L279.786 121.359C280.096 123.022 280.11 124.727 279.826 126.395C282.553 126.307 286.33 124.254 287.75 122.329C288.212 121.788 288.555 121.155 288.757 120.473C288.959 119.79 289.014 119.073 288.92 118.367Z" fill="black"/>
<path d="M294.663 108.944C292.971 115.464 292.313 119.37 288.319 122.104C282.312 126.219 274.757 121.607 274.46 114.718C274.204 108.511 277.011 98.8865 283.988 97.5151C285.525 97.207 287.114 97.2968 288.606 97.776C290.098 98.2552 291.442 99.1078 292.512 100.253C293.582 101.398 294.341 102.798 294.717 104.319C295.094 105.84 295.075 107.432 294.663 108.944Z" fill="#FFC3BD"/>
<path d="M293.315 99.6084C290.452 101.645 286.899 110.275 294.117 113.74C300.598 108.045 298.921 99.6084 293.315 99.6084Z" fill="#263238"/>
<path d="M294.968 100.643C296.195 94.9648 281.863 92.0294 277.324 98.662C275.784 102.656 294.101 106.185 294.968 100.643Z" fill="#263238"/>
<path d="M284.277 115.865C282.788 115.192 281.191 114.787 279.561 114.67C279.538 114.67 279.516 114.675 279.495 114.683C279.474 114.692 279.455 114.706 279.439 114.722C279.423 114.739 279.411 114.758 279.403 114.779C279.395 114.801 279.392 114.824 279.393 114.846C279.402 114.898 279.428 114.945 279.467 114.98C279.507 115.015 279.557 115.036 279.609 115.039C281.172 115.152 282.703 115.537 284.133 116.178C284.177 116.197 284.228 116.199 284.274 116.183C284.321 116.166 284.359 116.133 284.381 116.089C284.39 116.068 284.394 116.045 284.394 116.022C284.393 115.998 284.388 115.975 284.378 115.954C284.368 115.933 284.354 115.914 284.337 115.899C284.32 115.884 284.299 115.872 284.277 115.865Z" fill="#263238"/>
<path d="M296.227 116.073C295.064 117.307 293.461 118.031 291.768 118.086C289.522 118.134 288.953 115.993 290.035 114.165C291.014 112.561 293.355 110.507 295.393 111.325C297.43 112.144 297.638 114.541 296.227 116.073Z" fill="#FFC3BD"/>
<path d="M284.293 108.831C284.189 109.369 283.82 109.754 283.491 109.682C283.162 109.609 282.946 109.12 283.05 108.583C283.154 108.046 283.523 107.669 283.852 107.781C284.181 107.893 284.397 108.27 284.293 108.831Z" fill="#263238"/>
<path d="M278.222 107.652C278.117 108.19 277.749 108.567 277.42 108.502C277.091 108.438 276.866 107.941 276.971 107.404C277.075 106.866 277.444 106.481 277.773 106.554C278.101 106.626 278.294 107.115 278.222 107.652Z" fill="#263238"/>
<path d="M280.098 108.27C279.136 109.788 277.97 111.167 276.634 112.368C277.436 113.435 279.208 113.226 279.208 113.226L280.098 108.27Z" fill="#ED847E"/>
<path d="M283.419 105.712C283.476 105.699 283.536 105.701 283.592 105.718C283.648 105.735 283.699 105.766 283.74 105.808C283.997 106.119 284.325 106.365 284.695 106.525C285.066 106.686 285.47 106.756 285.873 106.73C285.958 106.719 286.044 106.741 286.113 106.792C286.182 106.842 286.228 106.918 286.242 107.003C286.249 107.045 286.247 107.087 286.237 107.128C286.227 107.169 286.208 107.208 286.183 107.242C286.157 107.275 286.125 107.304 286.088 107.325C286.052 107.346 286.011 107.359 285.969 107.364C285.46 107.405 284.948 107.323 284.477 107.127C284.005 106.93 283.588 106.624 283.258 106.233C283.228 106.204 283.204 106.169 283.188 106.13C283.172 106.092 283.163 106.05 283.163 106.008C283.163 105.966 283.172 105.925 283.188 105.886C283.204 105.848 283.228 105.813 283.258 105.784C283.306 105.748 283.361 105.724 283.419 105.712Z" fill="#263238"/>
<path d="M276.345 103.931C276.279 103.917 276.219 103.88 276.177 103.827C276.15 103.793 276.13 103.755 276.118 103.714C276.106 103.672 276.103 103.629 276.108 103.586C276.113 103.544 276.127 103.503 276.149 103.465C276.17 103.428 276.199 103.396 276.233 103.37C276.627 103.047 277.092 102.823 277.59 102.715C278.088 102.608 278.604 102.62 279.096 102.752C279.177 102.78 279.245 102.838 279.284 102.914C279.322 102.991 279.33 103.079 279.305 103.161C279.272 103.239 279.213 103.302 279.138 103.339C279.063 103.376 278.976 103.384 278.896 103.362C278.504 103.262 278.094 103.256 277.699 103.345C277.304 103.435 276.937 103.616 276.626 103.875C276.588 103.909 276.543 103.932 276.493 103.942C276.444 103.951 276.393 103.948 276.345 103.931Z" fill="#263238"/>
<path d="M302.234 188.919L295.344 188.871L298.905 196.779C298.905 196.779 304.784 195.519 304.463 192.327L302.234 188.919Z" fill="#FFC3BD"/>
<path d="M291.84 194.3L292.971 196.53C293.275 197.124 293.789 197.582 294.414 197.817C295.038 198.051 295.727 198.044 296.347 197.797L298.905 196.779L295.344 188.871L292.61 190.956C292.109 191.334 291.757 191.877 291.616 192.488C291.476 193.1 291.555 193.741 291.84 194.3Z" fill="#FFC3BD"/>
<path d="M249.791 183.097C248.959 183.088 248.147 182.837 247.456 182.373C246.764 181.91 246.223 181.255 245.898 180.489C245.574 179.722 245.48 178.878 245.629 178.059C245.778 177.24 246.162 176.482 246.735 175.879C249.799 172.719 252.566 170.265 255.004 168.123C260.891 162.934 262.92 160.905 262.727 157.016C262.439 154.616 261.929 152.248 261.203 149.942C259.447 143.486 257.458 136.18 260.866 130.317C262.695 127.165 265.799 125.008 270.098 123.901C271.184 123.643 272.329 123.822 273.286 124.398C274.242 124.975 274.935 125.904 275.214 126.985C275.493 128.067 275.337 129.215 274.779 130.183C274.222 131.15 273.307 131.861 272.231 132.162C269.207 132.964 268.477 134.191 268.221 134.608C266.617 137.375 268.165 143.101 269.416 147.696C270.322 150.594 270.929 153.577 271.228 156.598C271.629 164.819 266.777 169.102 260.626 174.523C258.308 176.576 255.67 178.902 252.83 181.821C252.435 182.226 251.962 182.547 251.44 182.766C250.918 182.985 250.357 183.098 249.791 183.097Z" fill="#0063CB"/>
<path d="M259.15 121.824L265.823 120.115L264.267 128.649C264.267 128.649 258.26 128.833 257.811 125.665L259.15 121.824Z" fill="#FFC3BD"/>
<path d="M270.507 124.639L269.993 126.868C269.836 127.549 269.429 128.147 268.853 128.543C268.277 128.939 267.574 129.106 266.882 129.01L264.267 128.649L265.823 120.115L268.887 121.439C269.489 121.698 269.98 122.16 270.277 122.745C270.573 123.33 270.654 124 270.507 124.639Z" fill="#FFC3BD"/>
<path d="M247.405 169.064L247.224 168.882C246.413 168.071 245.097 168.071 244.286 168.883L220.637 192.54C219.826 193.352 219.826 194.667 220.637 195.478L220.819 195.659C221.63 196.471 222.945 196.47 223.756 195.659L247.406 172.001C248.217 171.19 248.217 169.875 247.405 169.064Z" fill="#263238"/>
<path d="M259.731 181.374L259.55 181.192C258.739 180.381 257.423 180.381 256.612 181.192L232.959 204.846C232.147 205.657 232.147 206.972 232.959 207.783L233.14 207.965C233.951 208.776 235.266 208.776 236.078 207.965L259.731 184.311C260.542 183.5 260.543 182.185 259.731 181.374Z" fill="#263238"/>
<path d="M228.099 177.87L244.766 161.203C245.3 160.669 245.934 160.246 246.631 159.957C247.329 159.668 248.077 159.519 248.832 159.519C249.587 159.519 250.335 159.668 251.032 159.957C251.73 160.246 252.364 160.669 252.898 161.203L267.467 175.772C268.001 176.306 268.424 176.94 268.713 177.637C269.002 178.335 269.151 179.083 269.151 179.838C269.151 180.593 269.002 181.341 268.713 182.039C268.424 182.736 268.001 183.37 267.467 183.904L250.8 200.571L228.099 177.87Z" fill="#0063CB"/>
<path opacity="0.7" d="M228.099 177.87L244.766 161.203C245.3 160.669 245.934 160.246 246.631 159.957C247.329 159.668 248.077 159.519 248.832 159.519C249.587 159.519 250.335 159.668 251.032 159.957C251.73 160.246 252.364 160.669 252.898 161.203L267.467 175.772C268.001 176.306 268.424 176.94 268.713 177.637C269.002 178.335 269.151 179.083 269.151 179.838C269.151 180.593 269.002 181.341 268.713 182.039C268.424 182.736 268.001 183.37 267.467 183.904L250.8 200.571L228.099 177.87Z" fill="white"/>
<path opacity="0.2" d="M233.847 172.077L228.073 177.844L250.777 200.548L256.544 194.774C256.314 194.102 255.933 193.493 255.429 192.993L235.628 173.232C235.132 172.714 234.522 172.318 233.847 172.077Z" fill="#0063CB"/>
<path d="M227.099 174.936L226.685 175.35C224.925 177.11 224.925 179.964 226.685 181.724L246.902 201.941C248.662 203.701 251.516 203.701 253.276 201.941L253.69 201.527C255.451 199.767 255.451 196.913 253.69 195.153L233.473 174.936C231.713 173.175 228.859 173.175 227.099 174.936Z" fill="#0063CB"/>
</svg>
