<svg width="539" height="539" viewBox="0 0 539 539" fill="none" xmlns="http://www.w3.org/2000/svg">
<path d="M539 412.228H0V412.497H539V412.228Z" fill="#EBEBEB"/>
<path d="M455.52 419.568H427.524V419.838H455.52V419.568Z" fill="#EBEBEB"/>
<path d="M340.281 421.509H330.914V421.778H340.281V421.509Z" fill="#EBEBEB"/>
<path d="M484.992 429.572H464.305V429.842H484.992V429.572Z" fill="#EBEBEB"/>
<path d="M74.0693 421.379H56.5518V421.649H74.0693V421.379Z" fill="#EBEBEB"/>
<path d="M119.539 421.379H79.8367V421.649H119.539V421.379Z" fill="#EBEBEB"/>
<path d="M318.376 425.929H217.389V426.198H318.376V425.929Z" fill="#EBEBEB"/>
<path d="M255.486 364.148H47.335C45.7044 364.146 44.1415 363.496 42.9895 362.342C41.8375 361.188 41.1904 359.624 41.1904 357.993V65.3915C41.2046 63.7702 41.8579 62.22 43.0084 61.0776C44.1589 59.9352 45.7137 59.2928 47.335 59.29H255.486C257.119 59.29 258.684 59.9386 259.839 61.0929C260.993 62.2473 261.641 63.8129 261.641 65.4454V357.993C261.641 359.626 260.993 361.191 259.839 362.346C258.684 363.5 257.119 364.148 255.486 364.148ZM47.335 59.5056C45.7759 59.5085 44.2815 60.1299 43.1801 61.2334C42.0786 62.3369 41.4599 63.8324 41.4599 65.3915V357.993C41.4599 359.552 42.0786 361.048 43.1801 362.151C44.2815 363.255 45.7759 363.876 47.335 363.879H255.486C257.046 363.876 258.542 363.255 259.645 362.152C260.748 361.049 261.369 359.553 261.372 357.993V65.3915C261.369 63.8314 260.748 62.3359 259.645 61.2327C258.542 60.1295 257.046 59.5085 255.486 59.5056H47.335Z" fill="#EBEBEB"/>
<path d="M488.668 364.148H280.506C278.875 364.146 277.311 363.496 276.157 362.342C275.003 361.189 274.354 359.625 274.351 357.993V65.3915C274.368 63.7693 275.024 62.219 276.176 61.0769C277.328 59.9348 278.884 59.2928 280.506 59.29H488.668C490.288 59.2956 491.84 59.9393 492.988 61.0814C494.136 62.2235 494.788 63.7721 494.802 65.3915V357.993C494.802 359.622 494.157 361.184 493.007 362.338C491.857 363.492 490.297 364.143 488.668 364.148ZM280.506 59.5056C278.946 59.5085 277.451 60.1295 276.348 61.2327C275.244 62.3359 274.623 63.8314 274.621 65.3915V357.993C274.623 359.553 275.244 361.049 276.348 362.152C277.451 363.255 278.946 363.876 280.506 363.879H488.668C490.228 363.876 491.724 363.255 492.827 362.152C493.93 361.049 494.551 359.553 494.554 357.993V65.3915C494.551 63.8314 493.93 62.3359 492.827 61.2327C491.724 60.1295 490.228 59.5085 488.668 59.5056H280.506Z" fill="#EBEBEB"/>
<path d="M229.474 332.164H179.045V412.227H229.474V332.164Z" fill="#F0F0F0"/>
<path d="M70.1777 412.228H179.045V332.164H70.1777L70.1777 412.228Z" fill="#F5F5F5"/>
<path d="M69.6495 397.211H123.215V367.092H69.6495V397.211Z" fill="#FAFAFA"/>
<g style="mix-blend-mode:multiply" opacity="0.7">
<path d="M229.474 339.387H69.6497V343.257H229.474V339.387Z" fill="#E6E6E6"/>
</g>
<path d="M232.255 329.825H179.045V341.015H232.255V329.825Z" fill="#F0F0F0"/>
<path d="M67.3965 341.015H179.045V329.825H67.3965V341.015Z" fill="#F5F5F5"/>
<path d="M79.373 329.62H114.807V273.359H79.373V329.62Z" fill="#F5F5F5"/>
<path d="M191.313 273.359H114.807V329.62H191.313V273.359Z" fill="#F0F0F0"/>
<path d="M191.679 297.905H154.035V319.066H191.679V297.905Z" fill="#F5F5F5"/>
<g style="mix-blend-mode:multiply" opacity="0.7">
<path d="M79.3624 281.153H191.679V278.437H79.3624V281.153Z" fill="#E6E6E6"/>
</g>
<path d="M77.4111 279.579H114.807V271.72H77.4111V279.579Z" fill="#F5F5F5"/>
<path d="M193.264 271.721H114.807V279.579H193.264V271.721Z" fill="#F0F0F0"/>
<path d="M50.9786 241.666L237.828 241.666L237.828 96.8475L50.9786 96.8475L50.9786 241.666Z" fill="#E6E6E6"/>
<path d="M47.087 241.666L233.937 241.666L233.937 96.8475L47.087 96.8475L47.087 241.666Z" fill="#F5F5F5"/>
<path d="M38.075 250.053L237.828 250.053V241.666L38.075 241.666V250.053Z" fill="#E6E6E6"/>
<path d="M33.6982 250.053L224.838 250.053V241.666L33.6982 241.666V250.053Z" fill="#F5F5F5"/>
<path d="M226.962 234.142V104.394L54.0833 104.394V234.142H226.962Z" fill="#FAFAFA"/>
<path d="M118.31 234.142L166.723 104.394H117.351L68.938 234.142H118.31Z" fill="white"/>
<path d="M153.992 234.142L202.405 104.394H175.207L126.805 234.142H153.992Z" fill="white"/>
<path d="M144.409 234.142V104.394H136.626V234.142H144.409Z" fill="#F5F5F5"/>
<path d="M57.0261 234.142L57.0261 104.394H54.0832L54.0832 234.142H57.0261Z" fill="#E6E6E6"/>
<path d="M147.352 234.131V104.383H144.409V234.131H147.352Z" fill="#E6E6E6"/>
<path d="M308.383 412.228H446.723L446.723 73.1857H308.383V412.228Z" fill="#F0F0F0"/>
<path d="M308.383 412.228H440.169L440.169 73.1857H308.383V412.228Z" fill="#F5F5F5"/>
<path d="M433.227 404.53V80.8716L315.326 80.8716V404.53H433.227Z" fill="#F0F0F0"/>
<path d="M340.734 226.682H331.463C328.612 226.682 326.3 228.993 326.3 231.845V232.384C326.3 235.236 328.612 237.548 331.463 237.548H340.734C343.586 237.548 345.898 235.236 345.898 232.384V231.845C345.898 228.993 343.586 226.682 340.734 226.682Z" fill="white"/>
<path d="M317.137 404.53V80.8716H315.336V404.53H317.137Z" fill="#F0F0F0"/>
<path d="M269.5 460.91C384.935 460.91 478.513 455.446 478.513 448.707C478.513 441.967 384.935 436.504 269.5 436.504C154.065 436.504 60.4866 441.967 60.4866 448.707C60.4866 455.446 154.065 460.91 269.5 460.91Z" fill="#F5F5F5"/>
<path d="M181.427 165.549C181.74 166.778 181.427 167.802 180.824 167.845C180.22 167.888 179.379 166.939 179.067 165.689C178.754 164.438 179.013 163.447 179.67 163.393C180.328 163.339 181.104 164.331 181.427 165.549Z" fill="white"/>
<path d="M182.332 174.594C182.952 174.448 183.22 173.329 182.929 172.095C182.639 170.86 181.901 169.978 181.281 170.124C180.661 170.27 180.393 171.388 180.684 172.623C180.974 173.857 181.712 174.74 182.332 174.594Z" fill="white"/>
<path d="M202.362 383.046H96.1685V445.602H202.362V383.046Z" fill="#407BFF"/>
<path opacity="0.7" d="M202.362 383.046H96.1685V445.602H202.362V383.046Z" fill="white"/>
<path opacity="0.3" d="M123.474 383.046H96.1685V445.602H123.474V383.046Z" fill="#407BFF"/>
<path opacity="0.7" d="M174.216 383.046H151.632V394.505H174.216V383.046Z" fill="white"/>
<path opacity="0.7" d="M114.203 383.046H105.439V394.505H114.203V383.046Z" fill="white"/>
<path opacity="0.3" d="M196.412 427.179H183.928V439.662H196.412V427.179Z" fill="#407BFF"/>
<path opacity="0.3" d="M180.253 427.179H167.769V439.662H180.253V427.179Z" fill="#407BFF"/>
<path d="M104.221 383.046H176.361V340.54H104.221V383.046Z" fill="#407BFF"/>
<path opacity="0.7" d="M104.221 383.046H176.361V340.54H104.221V383.046Z" fill="white"/>
<path opacity="0.3" d="M157.809 340.551H104.221V383.057H157.809V340.551Z" fill="#407BFF"/>
<path opacity="0.7" d="M123.345 348.334H138.685V340.551H123.345V348.334Z" fill="white"/>
<path opacity="0.7" d="M164.115 348.334H170.065V340.551H164.115V348.334Z" fill="white"/>
<path opacity="0.3" d="M108.253 379.014H116.737V370.53H108.253V379.014Z" fill="#407BFF"/>
<path opacity="0.3" d="M119.238 379.014H127.721V370.53H119.238V379.014Z" fill="#407BFF"/>
<path d="M229.355 440.913H301.657V398.321H229.355V440.913Z" fill="#407BFF"/>
<path opacity="0.7" d="M229.355 440.913H301.657V398.321H229.355V440.913Z" fill="white"/>
<path opacity="0.3" d="M283.072 398.321H229.366V440.913H283.072V398.321Z" fill="#407BFF"/>
<path opacity="0.7" d="M229.366 425.713H233.409V413.586H229.366V425.713Z" fill="white"/>
<path opacity="0.7" d="M277.952 425.724H288.182V413.597H277.952V425.724Z" fill="white"/>
<path opacity="0.3" d="M291.718 436.482H295.124V427.977H291.718V436.482Z" fill="#407BFF"/>
<path opacity="0.3" d="M296.127 436.482H299.533V427.977H296.127V436.482Z" fill="#407BFF"/>
<path d="M259.528 419.654L242.162 423.514L248.802 442.271L263.312 439.069L259.528 419.654Z" fill="#FFB573"/>
<path opacity="0.2" d="M259.528 419.665L242.151 423.524L245.87 434.024L261.652 430.531L259.528 419.665Z" fill="black"/>
<path d="M218.532 346.943C211.234 321.88 193.037 295.727 203.074 271.86L253.255 271.72C253.255 271.72 257.297 326.245 258.548 349.422C259.852 373.527 262.482 426.844 262.482 426.844L242.679 431.156C242.679 431.156 223.502 391.314 218.532 346.943Z" fill="#263238"/>
<path opacity="0.2" d="M201.069 296.762C203.516 310.086 210.21 323.712 215.244 337.198C221.303 311.736 220.559 281.8 201.069 296.762Z" fill="black"/>
<path d="M275.353 437.387C275.353 437.387 270.729 439.468 265.069 436.18C264.728 436.03 264.357 435.958 263.984 435.969C263.611 435.98 263.245 436.074 262.913 436.244C260.003 437.452 252.23 440.406 247.207 439.78C247.097 439.763 246.984 439.773 246.878 439.81C246.773 439.847 246.678 439.909 246.602 439.991C246.527 440.073 246.473 440.172 246.444 440.28C246.416 440.389 246.415 440.502 246.442 440.61C247.157 443.262 247.644 445.971 247.897 448.706L252.5 447.725L253.093 446.097L255.518 447.1C263.123 445.931 270.586 443.98 277.79 441.279C278.458 438.336 275.353 437.387 275.353 437.387Z" fill="#407BFF"/>
<path d="M185.987 422.964L169.429 423.126L168.707 442.648L182.538 442.54L185.987 422.964Z" fill="#FFB573"/>
<path opacity="0.2" d="M185.987 422.975L169.418 423.126L169.02 434.067L184.058 433.938L185.987 422.975Z" fill="black"/>
<path d="M167.985 346.943C166.648 321.88 164.826 284.419 173.224 272.874L224.785 271.72C224.785 271.72 210.447 326.634 205.1 349.703C199.538 373.742 185.901 430.553 185.901 430.553H168.006C168.006 430.553 161.247 375.542 167.985 346.943Z" fill="#263238"/>
<path d="M245.978 189.792L246.765 191.668L247.692 193.824C248.339 195.236 248.986 196.67 249.686 198.05C251.039 200.778 252.54 203.43 254.181 205.994C254.979 207.223 255.809 208.42 256.672 209.509C257.479 210.588 258.346 211.621 259.27 212.603C260.852 214.289 262.667 215.741 264.66 216.915L260.897 216.085C262.76 216.372 264.64 216.523 266.525 216.537C268.574 216.566 270.623 216.458 272.658 216.214C274.814 215.988 276.97 215.621 279.126 215.136C280.204 214.91 281.282 214.672 282.425 214.392L284.074 213.993L284.883 213.788C285.107 213.716 285.338 213.669 285.573 213.648L289.486 214.349C290.465 214.516 291.379 214.95 292.127 215.604C292.875 216.257 293.428 217.105 293.725 218.053C294.021 219.001 294.05 220.012 293.808 220.976C293.566 221.939 293.063 222.817 292.354 223.512L291.459 224.396L290.661 225.161C290.122 225.657 289.583 226.142 289.022 226.606C287.944 227.522 286.769 228.406 285.573 229.225C283.165 230.874 280.623 232.316 277.973 233.537C275.22 234.789 272.358 235.789 269.424 236.523C266.347 237.292 263.195 237.726 260.024 237.817C259.099 237.848 258.176 237.698 257.308 237.375L256.23 236.987C253.859 236.09 251.575 234.979 249.406 233.667C247.372 232.407 245.44 230.991 243.628 229.43C241.912 227.95 240.281 226.374 238.745 224.709C237.246 223.07 235.909 221.378 234.616 219.664C233.322 217.949 232.158 216.203 231.069 214.424C229.98 212.646 228.913 210.867 227.997 209.034C227.081 207.202 226.164 205.369 225.367 203.483C224.968 202.534 224.569 201.585 224.202 200.615L223.653 199.117L223.383 198.351L223.081 197.414C222.116 194.457 222.33 191.242 223.679 188.44C225.028 185.637 227.406 183.464 230.319 182.374C233.232 181.283 236.453 181.36 239.31 182.587C242.168 183.815 244.441 186.099 245.655 188.962L245.978 189.792Z" fill="#FFB573"/>
<path d="M284.225 225.129L281.822 218.586C281.897 211.256 291.297 212.991 291.297 212.991L298.315 211.428C299.182 211.312 300.061 211.505 300.799 211.975C301.537 212.444 302.085 213.159 302.347 213.994L304.061 218.554C304.468 219.471 304.502 220.51 304.156 221.452C303.81 222.394 303.111 223.164 302.207 223.599L296.019 225.755C294.846 226.207 293.579 226.359 292.332 226.197L284.225 225.129Z" fill="#FFB573"/>
<path d="M231.533 170.701C241.871 175.013 250.937 193.76 250.937 193.76C250.463 198.287 240.049 210.932 230.865 214.177C230.865 214.177 223.707 211.202 219.201 201.424C213.444 188.768 220.57 166.13 231.533 170.701Z" fill="#407BFF"/>
<path d="M225.712 169.375C210.399 167.92 194.972 168.166 179.713 170.108C177.624 170.417 175.619 171.149 173.822 172.259C172.025 173.369 170.474 174.835 169.263 176.565C168.052 178.296 167.207 180.256 166.779 182.324C166.352 184.393 166.351 186.527 166.777 188.596C173.935 224.612 166.432 265.015 171.089 273.068C171.089 273.068 224.267 273.769 253.998 271.72C262.148 232.621 246.129 208.69 238.076 178.15C236.686 172.932 231.08 169.936 225.712 169.375Z" fill="#407BFF"/>
<path d="M184.263 199.117C182.689 201.909 180.942 204.863 179.271 207.741L174.302 216.365C173.493 217.788 172.696 219.211 171.941 220.613C171.186 222.014 170.421 223.405 169.785 224.752C169.149 226.1 168.502 227.436 167.996 228.568C167.748 229.129 167.532 229.646 167.392 230.013L167.295 230.261V230.358C167.23 230.498 167.295 230.218 167.198 230.077L167.144 228.999C167.218 231.405 167.521 233.798 168.049 236.147C168.61 238.842 169.3 241.677 170.108 244.512C170.917 247.347 171.747 250.268 172.62 253.201C173.493 256.133 174.42 259.119 175.207 262.019L175.283 262.277C175.642 263.611 175.539 265.026 174.99 266.293C174.442 267.56 173.481 268.604 172.264 269.256C171.046 269.907 169.644 270.127 168.286 269.879C166.927 269.632 165.693 268.932 164.783 267.894C162.618 265.376 160.589 262.746 158.703 260.014C157.776 258.655 156.838 257.297 155.954 255.885C155.07 254.473 154.219 253.06 153.378 251.573C151.68 248.583 150.147 245.502 148.786 242.345C147.227 238.782 146.108 235.043 145.455 231.209C145.438 230.994 145.438 230.778 145.455 230.563V230.099C145.44 229.141 145.487 228.183 145.595 227.232C145.595 226.843 145.692 226.402 145.746 226.046L145.929 225.032C146.177 223.685 146.468 222.564 146.759 221.475C147.352 219.319 148.053 217.443 148.742 215.6C149.432 213.757 150.165 212.021 150.898 210.307C151.631 208.593 152.451 206.933 153.238 205.283C154.812 201.974 156.472 198.815 158.272 195.657C160.072 192.498 161.819 189.502 163.888 186.397C165.726 184.091 168.343 182.536 171.247 182.025C174.151 181.515 177.142 182.084 179.656 183.625C182.17 185.166 184.033 187.573 184.896 190.393C185.758 193.213 185.56 196.25 184.338 198.934L184.263 199.117Z" fill="#FFB573"/>
<path d="M174.183 172.188C163.953 176.781 155.415 195.355 155.415 195.355C156.418 201.823 170.895 215.664 178.463 218.273C178.463 218.273 184.78 212.711 187.723 199.753C191.097 184.866 179.713 173.374 174.183 172.188Z" fill="#407BFF"/>
<path d="M218.468 172.038C217.463 170.09 215.83 168.54 213.832 167.639C213.08 165.703 213.023 163.566 213.67 161.592L191.032 154.369C192.865 161.915 194.266 167.779 191.507 171.423C195.959 174.14 204.13 178.969 213.067 178.775C222.003 178.581 219.912 175.175 218.468 172.038Z" fill="#FFB573"/>
<path opacity="0.2" d="M213.444 162.293L196.433 161.29C201.758 166.971 209.822 169.116 213.498 166.799C213.1 165.325 213.082 163.775 213.444 162.293Z" fill="black"/>
<path d="M213.541 178.754L209.865 175.714L204.917 178.193C204.917 178.193 208.054 181.104 213.541 178.754Z" fill="#407BFF"/>
<path opacity="0.3" d="M213.541 178.754L209.865 175.714L204.917 178.193C204.917 178.193 208.054 181.104 213.541 178.754Z" fill="black"/>
<path d="M218.274 135.429C218.565 140 215.622 143.913 211.698 144.161C207.774 144.409 204.367 140.927 204.076 136.324C203.785 131.721 206.728 127.84 210.652 127.592C214.576 127.344 217.982 130.858 218.274 135.429Z" fill="#263238"/>
<path d="M221.475 151.761C221.766 156.331 218.823 160.244 214.899 160.492C210.975 160.74 207.569 157.258 207.278 152.655C206.987 148.052 209.941 144.171 213.854 143.924C217.767 143.676 221.184 147.179 221.475 151.761Z" fill="#263238"/>
<path d="M187.259 142.134C189.178 152.073 190.72 158.789 197.49 162.465C210.954 169.785 217.713 163.683 219.05 153.464C220.225 144.258 216.894 129.554 205.833 126.578C194.935 123.646 185.33 132.195 187.259 142.134Z" fill="#FFB573"/>
<path d="M213.53 149.842C225.13 147.438 223.513 158.746 220.721 162.778C218.263 166.368 212.937 169.472 203.688 165.624C194.072 161.635 196.638 154.758 193.566 150.607C192.488 149.098 194.902 142.91 196.476 146.155C199.872 153.184 208.722 147.977 213.53 149.842Z" fill="#263238"/>
<path d="M191.615 150.78C197.005 154.014 197.802 148.548 196.476 146.209C198.632 143.697 200.476 135.159 194.493 134.351C197.371 135.116 206.513 134.286 205.014 128.799C208.485 131.925 218.931 133.79 218.273 128.239C217.325 120.121 204.917 113.147 196.476 120.121C186.3 114.634 174.431 125.996 180.479 131.203C172.717 132.842 174.431 144.376 178.883 145.842C175.445 151.836 189.124 159.673 191.615 150.78Z" fill="#263238"/>
<path opacity="0.2" d="M203.181 142.21C201.93 141.777 200.559 141.854 199.365 142.425C200.639 142.604 201.936 142.531 203.181 142.21Z" fill="black"/>
<path opacity="0.2" d="M203.171 143.125C202.575 143.052 201.971 143.111 201.401 143.297C200.831 143.483 200.309 143.793 199.872 144.203C201.036 144.084 202.161 143.716 203.171 143.125Z" fill="black"/>
<path opacity="0.2" d="M212.495 132.593C209.306 132.331 206.098 132.399 202.923 132.798C208.259 132.884 212.495 132.593 212.495 132.593Z" fill="black"/>
<path opacity="0.2" d="M213.886 133.585C213.886 133.585 206.566 133.801 203.106 135.105C206.728 134.825 210.328 134.318 213.886 133.585Z" fill="black"/>
<path d="M184.338 153.367C185.176 154.425 186.215 155.307 187.395 155.962C188.576 156.617 189.874 157.032 191.216 157.183C194.816 157.56 195.625 154.639 194.45 151.426C193.372 148.537 189.771 144.775 186.386 145.831C183.001 146.888 182.311 150.726 184.338 153.367Z" fill="#FFB573"/>
<path d="M206.318 142.35C206.405 143.223 206.944 143.88 207.526 143.816C208.108 143.751 208.485 142.986 208.399 142.113C208.313 141.239 207.763 140.571 207.181 140.636C206.599 140.7 206.221 141.466 206.318 142.35Z" fill="#263238"/>
<path d="M215.428 141.617C215.514 142.49 216.053 143.158 216.635 143.083C217.217 143.007 217.594 142.253 217.508 141.38C217.422 140.506 216.872 139.838 216.29 139.903C215.708 139.967 215.331 140.733 215.428 141.617Z" fill="#263238"/>
<path d="M212.495 142.522L213.573 149.874C214.448 149.925 215.326 149.834 216.171 149.604C216.339 149.55 216.49 149.45 216.605 149.317C216.721 149.183 216.798 149.02 216.828 148.846C216.858 148.672 216.84 148.493 216.775 148.328C216.711 148.163 216.603 148.02 216.462 147.912C214.253 146.284 212.495 142.522 212.495 142.522Z" fill="#ED893E"/>
<path d="M201.586 140.043C201.498 140.038 201.413 140.012 201.338 139.967C201.281 139.929 201.232 139.88 201.194 139.823C201.156 139.766 201.13 139.702 201.117 139.635C201.104 139.568 201.105 139.499 201.118 139.432C201.132 139.365 201.159 139.301 201.198 139.245C201.637 138.544 202.236 137.958 202.947 137.534C203.657 137.11 204.458 136.862 205.283 136.809C205.426 136.809 205.563 136.865 205.665 136.966C205.766 137.068 205.822 137.205 205.822 137.348C205.822 137.491 205.766 137.628 205.665 137.729C205.563 137.83 205.426 137.887 205.283 137.887C204.626 137.935 203.991 138.139 203.428 138.482C202.866 138.825 202.393 139.297 202.049 139.859C201.993 139.926 201.921 139.977 201.841 140.009C201.76 140.041 201.672 140.053 201.586 140.043Z" fill="#263238"/>
<path d="M218.759 139.061C218.675 139.067 218.591 139.053 218.514 139.019C218.437 138.985 218.369 138.933 218.317 138.867C217.922 138.35 217.41 137.933 216.824 137.65C216.238 137.367 215.593 137.227 214.942 137.24C214.875 137.247 214.807 137.241 214.742 137.221C214.677 137.202 214.616 137.17 214.564 137.127C214.512 137.083 214.469 137.03 214.437 136.97C214.406 136.91 214.387 136.844 214.382 136.776C214.372 136.64 214.415 136.505 214.501 136.399C214.587 136.293 214.71 136.224 214.845 136.205C215.672 136.168 216.496 136.331 217.247 136.68C217.997 137.029 218.653 137.554 219.157 138.21C219.242 138.319 219.28 138.457 219.264 138.594C219.247 138.731 219.178 138.856 219.071 138.943C218.981 139.012 218.872 139.053 218.759 139.061Z" fill="#263238"/>
<path d="M192.595 166.572C192.595 166.572 200.346 175.196 209.843 175.692C204.302 178.312 200.303 183.939 200.303 183.939C200.303 183.939 190.202 181.47 187.96 168.847C189.458 167.09 192.595 166.572 192.595 166.572Z" fill="#EBEBEB"/>
<path d="M213.541 178.754L217.713 175.024L223.017 176.598C223.017 176.598 219.006 181.104 213.541 178.754Z" fill="#407BFF"/>
<path opacity="0.3" d="M213.541 178.754L217.713 175.024L223.017 176.598C223.017 176.598 219.006 181.104 213.541 178.754Z" fill="black"/>
<path d="M213.832 167.639C213.832 167.639 217.53 171.951 217.713 175.024C222.111 176.727 226.175 182.311 226.175 182.311C226.175 182.311 225.097 173.471 218.133 168.448C216.813 167.754 215.314 167.472 213.832 167.639Z" fill="#EBEBEB"/>
<path d="M166.368 448.696H169.968L170.938 447.23L172.825 448.707H194.547C194.682 446.997 194.362 445.282 193.62 443.737C193.62 443.737 187.152 443.144 184.629 439.91C184.54 439.784 184.416 439.686 184.273 439.628C184.129 439.571 183.972 439.556 183.821 439.587C181.665 440.039 173.041 441.667 168.34 439.964C168.224 439.915 168.096 439.895 167.97 439.906C167.844 439.917 167.722 439.959 167.615 440.028C167.509 440.097 167.421 440.192 167.36 440.303C167.298 440.413 167.265 440.538 167.262 440.665C167.167 443.36 166.868 446.045 166.368 448.696Z" fill="#407BFF"/>
<path d="M282.522 215.869C285.056 210.479 290.435 210.339 294.574 208.948C295.275 208.711 296.525 210.242 295.728 211.32C295.295 212.023 294.726 212.633 294.054 213.112C293.382 213.592 292.62 213.932 291.815 214.112C291.761 215.977 289.756 221.011 284.473 220.893C283.232 219.512 282.538 217.726 282.522 215.869Z" fill="#FFB573"/>
<path d="M215.266 153.194C215.266 153.194 212.258 152.504 203.774 152.396C204.615 154.197 206.793 155.544 211.137 155.63C214.63 155.792 215.266 153.194 215.266 153.194Z" fill="white"/>
<path d="M172.922 259.701L166.519 262.45C161.247 267.538 168.966 273.176 168.966 273.176L171.585 277.391C172.095 278.102 172.841 278.609 173.69 278.822C174.538 279.036 175.435 278.941 176.221 278.555L180.705 276.668C181.653 276.335 182.433 275.645 182.88 274.745C183.327 273.845 183.405 272.806 183.098 271.85L181.449 267.861C180.968 266.697 180.205 265.671 179.228 264.875L172.922 259.701Z" fill="#FFB573"/>
<path d="M382.259 161.236C375.694 150.661 378.292 144.43 385.493 143.18L414.286 154.014C424.527 166.378 404.584 165.656 415.644 175.509C426.705 185.362 394.774 197.888 379.079 185.017C363.383 172.146 388.813 171.811 382.259 161.236Z" fill="#263238"/>
<path d="M426.284 440.061L435.329 438.056C434.067 429.432 433.604 419.407 432.547 414.082L422.102 415.537L426.284 440.061Z" fill="#FFC3BD"/>
<path d="M359.847 441.527L368.363 441.452C369.15 432.828 372.19 422.544 372.481 417.111L361.96 416.852L359.847 441.527Z" fill="#FFC3BD"/>
<path d="M420.129 448.696C427.33 447.176 426.791 447.176 430.801 446.174C434.24 445.322 435.167 445.57 437.938 444.923C440.255 444.373 439.695 442.174 438.433 439.76C437.884 438.682 437.14 437.485 436.353 435.889C436.248 435.666 436.07 435.486 435.849 435.378C435.627 435.27 435.375 435.241 435.135 435.297L425.648 437.312C425.461 437.352 425.287 437.44 425.145 437.569C425.002 437.698 424.897 437.862 424.84 438.045C424.232 439.629 423.275 441.054 422.039 442.215C420.803 443.376 419.321 444.243 417.704 444.751C413.952 446.098 417.262 449.311 420.129 448.696Z" fill="#263238"/>
<path d="M348.722 448.696C353.983 448.696 357.465 448.222 361.55 448.082C365.054 447.963 365.528 448.696 369.096 448.696C371.436 448.696 372.093 446.066 371.5 444.082C370.925 442.577 370.435 441.04 370.034 439.479C369.989 439.255 369.865 439.054 369.686 438.912C369.506 438.77 369.282 438.696 369.053 438.703H359.265C359.081 438.709 358.9 438.756 358.736 438.84C358.572 438.923 358.429 439.042 358.316 439.188C357.114 440.817 355.556 442.149 353.761 443.083C351.965 444.017 349.98 444.529 347.957 444.578C343.968 444.891 345.833 448.696 348.722 448.696Z" fill="#263238"/>
<path d="M366.714 251.476C366.714 251.476 362.833 303.533 364.375 336.638C362.725 367.674 360.354 430.316 360.354 430.316C360.526 431.901 368.881 431.276 370.336 430.316C370.336 430.316 388.339 386.981 383.779 336.638C403.56 284.129 401.35 251.476 401.35 251.476H366.714Z" fill="#407BFF"/>
<path opacity="0.2" d="M386.334 272.367C389.417 272.874 397.685 278.749 398.763 282.457C396.593 295.039 393.553 307.455 389.665 319.616C384.684 305.774 383.865 285.799 386.334 272.367Z" fill="black"/>
<path d="M377.106 251.476C377.106 251.476 391.422 310.238 398.289 339.085C405.49 369.388 420.258 409.263 423.287 429.195C425.174 429.82 431.124 428.624 434.218 426.877C434.218 426.877 436.827 369.603 419.417 340.433C423.352 268.649 406.481 251.476 406.481 251.476H377.106Z" fill="#407BFF"/>
<path d="M421.584 425.271C421.842 426.634 422.005 428.014 422.069 429.4C422.071 429.516 422.096 429.631 422.143 429.738C422.19 429.844 422.259 429.94 422.345 430.019C422.431 430.098 422.532 430.158 422.642 430.196C422.753 430.234 422.869 430.249 422.986 430.241C427.125 430.036 432.688 427.869 434.488 427.147C434.652 427.081 434.791 426.966 434.886 426.817C434.981 426.668 435.026 426.493 435.016 426.317L434.811 422.403C434.804 422.276 434.769 422.151 434.708 422.039C434.647 421.926 434.562 421.828 434.459 421.752C434.356 421.676 434.238 421.624 434.113 421.598C433.987 421.573 433.858 421.576 433.733 421.606L422.22 424.29C422.009 424.341 421.826 424.472 421.707 424.654C421.589 424.836 421.545 425.057 421.584 425.271Z" fill="#263238"/>
<path opacity="0.1" d="M421.584 425.271C421.842 426.634 422.005 428.014 422.069 429.4C422.071 429.516 422.096 429.631 422.143 429.738C422.19 429.844 422.259 429.94 422.345 430.019C422.431 430.098 422.532 430.158 422.642 430.196C422.753 430.234 422.869 430.249 422.986 430.241C427.125 430.036 432.688 427.869 434.488 427.147C434.652 427.081 434.791 426.966 434.886 426.817C434.981 426.668 435.026 426.493 435.016 426.317L434.811 422.403C434.804 422.276 434.769 422.151 434.708 422.039C434.647 421.926 434.562 421.828 434.459 421.752C434.356 421.676 434.238 421.624 434.113 421.598C433.987 421.573 433.858 421.576 433.733 421.606L422.22 424.29C422.009 424.341 421.826 424.472 421.707 424.654C421.589 424.836 421.545 425.057 421.584 425.271Z" fill="white"/>
<path d="M359.416 425.896C359.34 426.974 359.179 428.904 359.017 430.316C358.993 430.54 359.057 430.765 359.196 430.942C359.335 431.119 359.538 431.235 359.761 431.265C363.445 431.589 367.152 431.567 370.832 431.2C371.01 431.183 371.179 431.11 371.314 430.992C371.45 430.874 371.545 430.717 371.587 430.543L372.503 426.683C372.535 426.559 372.539 426.429 372.515 426.303C372.49 426.176 372.438 426.057 372.361 425.954C372.285 425.851 372.186 425.766 372.073 425.705C371.959 425.645 371.834 425.611 371.705 425.605L360.365 425.153C360.141 425.128 359.916 425.192 359.739 425.331C359.561 425.47 359.446 425.673 359.416 425.896Z" fill="#263238"/>
<path opacity="0.1" d="M359.416 425.896C359.34 426.974 359.179 428.904 359.017 430.316C358.993 430.54 359.057 430.765 359.196 430.942C359.335 431.119 359.538 431.235 359.761 431.265C363.445 431.589 367.152 431.567 370.832 431.2C371.01 431.183 371.179 431.11 371.314 430.992C371.45 430.874 371.545 430.717 371.587 430.543L372.503 426.683C372.535 426.559 372.539 426.429 372.515 426.303C372.49 426.176 372.438 426.057 372.361 425.954C372.285 425.851 372.186 425.766 372.073 425.705C371.959 425.645 371.834 425.611 371.705 425.605L360.365 425.153C360.141 425.128 359.916 425.192 359.739 425.331C359.561 425.47 359.446 425.673 359.416 425.896Z" fill="white"/>
<path d="M378.378 205.09L377.666 206.276L376.998 207.354C376.556 208.044 376.093 208.69 375.64 209.337C374.724 210.642 373.743 211.881 372.751 213.099C370.748 215.534 368.587 217.836 366.283 219.988C365.205 221.066 363.944 222.144 362.758 223.146C361.572 224.149 360.3 225.141 358.995 226.046C356.418 227.923 353.709 229.613 350.889 231.102L350.501 231.307C349.515 231.848 348.384 232.066 347.267 231.932C345.564 231.727 343.897 231.295 342.308 230.649C340.825 230.036 339.415 229.258 338.104 228.331C336.884 227.477 335.751 226.506 334.719 225.432C333.731 224.422 332.82 223.341 331.992 222.198C330.434 220.068 329.097 217.785 328.003 215.385C327.464 214.22 326.99 213.035 326.558 211.849C326.134 210.622 325.774 209.373 325.48 208.108C325.286 207.316 325.375 206.481 325.731 205.747C326.086 205.013 326.687 204.426 327.43 204.087C328.172 203.749 329.009 203.68 329.796 203.892C330.584 204.105 331.273 204.586 331.744 205.251L331.948 205.543C332.487 206.329 333.156 207.289 333.781 208.151C334.406 209.014 335.085 209.876 335.754 210.706C337.043 212.313 338.456 213.816 339.98 215.201C341.287 216.438 342.769 217.477 344.378 218.285C345.592 218.907 346.937 219.232 348.302 219.233L344.637 220.063C346.796 218.621 348.876 217.062 350.867 215.395C352.877 213.706 354.792 211.907 356.602 210.005C358.424 208.108 360.192 206.135 361.831 204.076C362.661 202.998 363.437 202.007 364.224 200.961L365.302 199.387L365.83 198.622L366.272 197.964L366.552 197.544C367.553 195.971 369.137 194.861 370.957 194.456C372.776 194.052 374.682 194.387 376.254 195.388C377.827 196.388 378.937 197.973 379.342 199.792C379.746 201.612 379.411 203.517 378.41 205.09H378.378Z" fill="#FFC3BD"/>
<path d="M376.653 190.989C369.193 190.784 361.96 197.738 357.389 205.596C358.467 210.62 369.754 218.92 369.754 218.92C369.754 218.92 386.474 202.793 376.653 190.989Z" fill="#263238"/>
<path d="M364.461 204.691C364.241 210.753 364.331 216.823 364.731 222.877C365.032 230.768 365.571 238.529 366.714 251.476H406.46C405.651 240.286 406.956 227.523 414.092 202.341C414.514 201.024 414.635 199.629 414.448 198.259C414.26 196.889 413.769 195.578 413.009 194.422C412.25 193.267 411.241 192.296 410.057 191.581C408.874 190.865 407.545 190.424 406.169 190.289C404.595 190.127 402.935 189.998 401.21 189.911C395.202 189.485 389.172 189.485 383.164 189.911C381.202 190.095 379.176 190.343 377.225 190.612C373.796 191.118 370.649 192.797 368.321 195.365C365.993 197.933 364.629 201.229 364.461 204.691Z" fill="#263238"/>
<path d="M399.938 169.591C398.364 175.401 396.435 186.041 400.208 189.911C400.208 189.911 394.71 189.092 383.035 196.314C379.65 191.463 382.162 189.911 382.162 189.911C388.748 188.37 388.943 183.562 388.156 179.056L399.938 169.591Z" fill="#FFC3BD"/>
<path d="M385.504 194.859C389.341 195.398 390.549 201.209 390.549 201.209C390.549 201.209 399.787 194.676 402.709 190.073C401.548 189.412 400.422 188.693 399.334 187.917C399.334 187.917 387.746 192.639 385.504 194.859Z" fill="white"/>
<path d="M381.838 194.234C381.838 194.234 378.518 195.129 377.322 199.807C376.438 191.334 380.394 189.9 380.394 189.9C381.449 189.31 382.685 189.13 383.865 189.394C383.019 189.841 382.354 190.568 381.984 191.451C381.614 192.333 381.563 193.317 381.838 194.234Z" fill="white"/>
<path opacity="0.2" d="M395.141 173.45L388.166 179.045C388.371 180.111 388.479 181.194 388.49 182.279C390.991 181.913 394.591 179.196 395.044 176.609C395.267 175.57 395.3 174.5 395.141 173.45Z" fill="black"/>
<path d="M404.908 157.949C403.14 167.316 402.59 171.316 397.243 175.811C389.201 182.57 378.141 178.991 377.084 169.44C376.136 160.816 379.176 146.953 388.835 143.848C390.888 143.116 393.1 142.945 395.242 143.354C397.383 143.763 399.377 144.737 401.016 146.174C402.655 147.612 403.88 149.462 404.564 151.532C405.248 153.602 405.367 155.817 404.908 157.949Z" fill="#FFC3BD"/>
<path d="M405.145 162.864C399.507 165.096 395.82 156.116 397.491 149.928C387.703 154.488 371.619 147.869 374.066 141.369C377.688 144.096 379.855 143.202 379.855 143.202C379.855 143.202 410.168 123.798 407.818 140.949C424.732 147.686 415.224 159.619 405.145 162.864Z" fill="#263238"/>
<path d="M383.606 135.515C382.011 136.593 383.089 140.787 391.379 137.003L394.472 136.227C387.67 142.145 381.472 146.047 378.195 143.611C374.918 141.175 377.602 134.427 383.606 135.515Z" fill="#263238"/>
<path d="M390.053 159.544C389.934 160.342 389.438 160.956 388.975 160.913C388.511 160.87 388.145 160.202 388.252 159.415C388.36 158.628 388.878 158.002 389.384 158.046C389.891 158.089 390.171 158.714 390.053 159.544Z" fill="#263238"/>
<path d="M380.534 158.941C380.415 159.738 379.909 160.342 379.402 160.31C378.895 160.277 378.583 159.598 378.691 158.8C378.798 158.003 379.305 157.399 379.823 157.442C380.34 157.485 380.588 158.143 380.534 158.941Z" fill="#263238"/>
<path d="M379.984 157.496L378.195 156.806C378.195 156.806 378.939 158.369 379.984 157.496Z" fill="#263238"/>
<path d="M382.96 160.051C382.005 161.822 380.828 163.463 379.456 164.934C379.819 165.254 380.251 165.486 380.718 165.614C381.186 165.741 381.676 165.759 382.151 165.667L382.96 160.051Z" fill="#ED847E"/>
<path d="M386.204 169.246C385.763 169.284 385.319 169.284 384.878 169.246C384.848 169.245 384.819 169.238 384.792 169.224C384.765 169.21 384.742 169.191 384.723 169.167C384.705 169.144 384.692 169.116 384.685 169.087C384.678 169.058 384.678 169.027 384.684 168.998C384.692 168.936 384.723 168.88 384.771 168.84C384.819 168.8 384.881 168.779 384.943 168.782C385.941 168.858 386.942 168.709 387.875 168.348C388.808 167.986 389.648 167.42 390.333 166.691C390.377 166.65 390.435 166.627 390.495 166.627C390.555 166.627 390.613 166.65 390.656 166.691C390.697 166.735 390.72 166.793 390.72 166.853C390.72 166.913 390.697 166.971 390.656 167.015C389.499 168.283 387.913 169.078 386.204 169.246Z" fill="#263238"/>
<path d="M406.816 164.934C406.414 165.754 405.843 166.48 405.141 167.063C404.438 167.646 403.62 168.074 402.741 168.319C400.585 168.847 399.669 166.325 400.455 163.845C401.167 161.614 403.161 158.649 405.274 159.242C407.387 159.835 407.969 162.778 406.816 164.934Z" fill="#FFC3BD"/>
<path d="M392.812 154.003C392.744 154.008 392.675 153.998 392.611 153.976C392.546 153.954 392.486 153.919 392.435 153.874C391.967 153.435 391.41 153.104 390.801 152.902C390.192 152.701 389.547 152.636 388.91 152.709C388.846 152.726 388.78 152.729 388.715 152.719C388.65 152.709 388.588 152.687 388.531 152.652C388.475 152.618 388.426 152.573 388.388 152.52C388.349 152.467 388.321 152.407 388.306 152.343C388.3 152.208 388.346 152.076 388.434 151.974C388.522 151.871 388.646 151.807 388.781 151.793C389.587 151.688 390.406 151.76 391.181 152.006C391.956 152.252 392.667 152.665 393.265 153.216C393.309 153.262 393.342 153.317 393.362 153.376C393.382 153.436 393.388 153.5 393.381 153.563C393.374 153.625 393.353 153.686 393.32 153.739C393.287 153.793 393.242 153.839 393.19 153.874C393.083 153.959 392.949 154.005 392.812 154.003Z" fill="#263238"/>
<path d="M402.913 272.378C411.613 267.473 419.913 259.636 427.988 250.128C418.76 237.117 409.414 225.571 399.733 218.273C391.282 227.124 382.906 234.767 374.648 240.513C383.984 248.339 393.47 259.938 402.913 272.378Z" fill="white"/>
<path d="M378.173 154.003C378.117 154.015 378.059 154.014 378.003 154.001C377.947 153.988 377.895 153.963 377.85 153.928C377.756 153.848 377.696 153.735 377.684 153.612C377.672 153.489 377.708 153.367 377.785 153.27C378.227 152.66 378.802 152.159 379.467 151.806C380.133 151.452 380.87 151.257 381.623 151.233C381.683 151.235 381.743 151.25 381.797 151.277C381.852 151.304 381.9 151.342 381.939 151.389C381.977 151.436 382.006 151.49 382.022 151.549C382.038 151.607 382.042 151.669 382.032 151.729C382.017 151.852 381.956 151.964 381.863 152.046C381.77 152.127 381.65 152.172 381.526 152.171C380.928 152.196 380.345 152.358 379.82 152.644C379.295 152.93 378.842 153.332 378.497 153.82C378.46 153.873 378.412 153.917 378.356 153.948C378.3 153.98 378.237 153.999 378.173 154.003Z" fill="#263238"/>
<path d="M407.833 272.501L430.478 252.203C431.241 251.52 431.305 250.348 430.622 249.585L403.59 219.426C402.906 218.663 401.734 218.599 400.972 219.283L378.326 239.58C377.564 240.263 377.499 241.436 378.183 242.198L405.215 272.357C405.898 273.12 407.07 273.184 407.833 272.501Z" fill="#407BFF"/>
<path opacity="0.4" d="M407.833 272.501L430.478 252.203C431.241 251.52 431.305 250.348 430.622 249.585L403.59 219.426C402.906 218.663 401.734 218.599 400.972 219.283L378.326 239.58C377.564 240.263 377.499 241.436 378.183 242.198L405.215 272.357C405.898 273.12 407.07 273.184 407.833 272.501Z" fill="white"/>
<path d="M389.557 158.057L387.767 157.377C387.767 157.377 388.511 158.93 389.557 158.057Z" fill="#263238"/>
<path d="M390.937 258.548L391.778 255.702C391.931 255.179 392.207 254.7 392.581 254.305C392.956 253.909 393.42 253.608 393.934 253.427L398.86 251.735C399.832 251.403 400.868 251.307 401.884 251.455C402.9 251.603 403.867 251.991 404.703 252.586L405.781 253.341C404.703 258.149 399.992 262.558 399.992 262.558L398.795 263.959C398.556 264.254 398.261 264.499 397.927 264.679C397.593 264.859 397.226 264.972 396.849 265.01C396.471 265.048 396.089 265.011 395.726 264.901C395.363 264.791 395.025 264.61 394.731 264.369L391.918 262.019C391.436 261.597 391.087 261.045 390.913 260.429C390.739 259.812 390.747 259.159 390.937 258.548Z" fill="#FFC3BD"/>
<path d="M323.766 197.921L326.688 198.374C327.232 198.458 327.747 198.672 328.192 198.996C328.636 199.32 328.996 199.747 329.243 200.239L331.571 204.906C332.032 205.823 332.266 206.838 332.253 207.864C332.24 208.89 331.98 209.898 331.496 210.803L330.892 211.946C325.987 211.514 320.996 207.429 320.996 207.429L319.444 206.426C319.12 206.228 318.839 205.967 318.616 205.66C318.393 205.352 318.233 205.004 318.144 204.634C318.056 204.265 318.042 203.881 318.102 203.506C318.162 203.131 318.296 202.772 318.495 202.449L320.446 199.355C320.803 198.821 321.306 198.402 321.895 198.148C322.484 197.894 323.134 197.815 323.766 197.921Z" fill="#FFC3BD"/>
<path d="M315.671 214.985C315.629 214.985 315.588 214.975 315.551 214.956C315.513 214.937 315.481 214.911 315.455 214.878C314.989 214.161 314.801 213.298 314.927 212.452C315.024 212.028 315.206 211.628 315.462 211.276C315.718 210.924 316.041 210.628 316.414 210.404C316.442 210.386 316.473 210.374 316.505 210.368C316.537 210.362 316.571 210.362 316.603 210.369C316.635 210.377 316.665 210.39 316.692 210.409C316.719 210.428 316.742 210.452 316.759 210.479C316.778 210.506 316.791 210.537 316.798 210.568C316.804 210.6 316.805 210.633 316.799 210.665C316.793 210.697 316.78 210.728 316.763 210.755C316.745 210.782 316.722 210.806 316.695 210.824C316.378 211.01 316.103 211.257 315.884 211.552C315.666 211.846 315.509 212.182 315.423 212.538C315.323 213.253 315.484 213.98 315.875 214.587C315.9 214.625 315.914 214.669 315.917 214.714C315.919 214.76 315.909 214.805 315.888 214.845C315.868 214.886 315.837 214.92 315.798 214.945C315.76 214.969 315.716 214.983 315.671 214.985Z" fill="#E0E0E0"/>
<path d="M321.244 201.586L325.189 205.898C325.312 206.021 325.381 206.188 325.381 206.362C325.381 206.535 325.312 206.702 325.189 206.825L319.886 211.665C319.806 211.737 319.711 211.788 319.608 211.814C319.505 211.84 319.396 211.841 319.293 211.816L315.854 210.986C315.727 210.954 315.613 210.885 315.526 210.787C315.439 210.689 315.385 210.566 315.369 210.436L314.776 206.976C314.763 206.87 314.774 206.762 314.81 206.661C314.845 206.56 314.904 206.468 314.981 206.394L320.285 201.564C320.347 201.5 320.423 201.45 320.506 201.416C320.59 201.382 320.679 201.365 320.769 201.367C320.859 201.369 320.947 201.39 321.029 201.427C321.111 201.465 321.184 201.519 321.244 201.586ZM316.059 210.296C316.134 210.378 316.224 210.444 316.325 210.49C316.425 210.537 316.534 210.563 316.644 210.567C316.755 210.572 316.865 210.554 316.969 210.516C317.073 210.478 317.169 210.42 317.25 210.345C317.331 210.27 317.397 210.179 317.444 210.079C317.49 209.978 317.516 209.87 317.521 209.759C317.525 209.649 317.508 209.538 317.47 209.434C317.432 209.33 317.373 209.235 317.298 209.154C317.221 209.075 317.129 209.012 317.027 208.969C316.925 208.927 316.816 208.904 316.706 208.904C316.595 208.904 316.486 208.927 316.384 208.969C316.282 209.012 316.19 209.075 316.113 209.154C316.028 209.224 315.957 209.311 315.906 209.409C315.854 209.507 315.823 209.614 315.813 209.724C315.803 209.834 315.815 209.945 315.847 210.051C315.88 210.157 315.934 210.255 316.005 210.339L316.059 210.296Z" fill="#263238"/>
<path d="M315.768 214.263C316.326 214.38 316.826 214.689 317.179 215.138C317.532 215.586 317.715 216.144 317.697 216.715C317.679 217.285 317.461 217.831 317.08 218.256C316.7 218.681 316.182 218.958 315.617 219.039L314.399 224.699L313.849 225.054L313.429 224.397V223.232L313.73 222.327L313.612 221.734L313.784 220.926V220.16V219.653L313.914 218.683C313.492 218.421 313.162 218.034 312.969 217.577C312.776 217.119 312.729 216.613 312.836 216.128C312.903 215.812 313.033 215.512 313.218 215.247C313.402 214.981 313.638 214.755 313.911 214.581C314.184 214.408 314.488 214.29 314.807 214.236C315.126 214.181 315.453 214.191 315.768 214.263ZM315.315 216.419C315.525 216.448 315.738 216.397 315.912 216.276C316.085 216.154 316.207 215.972 316.252 215.765C316.297 215.558 316.262 215.342 316.154 215.159C316.046 214.977 315.874 214.842 315.671 214.781C315.452 214.736 315.225 214.778 315.037 214.899C314.85 215.02 314.717 215.21 314.668 215.428C314.639 215.637 314.689 215.849 314.809 216.023C314.928 216.197 315.109 216.319 315.315 216.366V216.419Z" fill="#407BFF"/>
<path d="M315.671 214.985C315.626 214.986 315.582 214.975 315.544 214.952C315.506 214.929 315.475 214.896 315.455 214.856C315.436 214.828 315.423 214.797 315.417 214.764C315.411 214.731 315.412 214.697 315.42 214.664C315.429 214.632 315.444 214.601 315.464 214.575C315.485 214.548 315.511 214.527 315.541 214.511C316.14 214.117 316.583 213.526 316.792 212.84C316.86 212.479 316.855 212.108 316.777 211.749C316.7 211.389 316.551 211.05 316.339 210.749C316.322 210.721 316.31 210.689 316.305 210.657C316.3 210.624 316.301 210.59 316.309 210.558C316.317 210.526 316.332 210.496 316.352 210.469C316.372 210.443 316.397 210.421 316.425 210.404C316.482 210.37 316.549 210.36 316.613 210.374C316.677 210.388 316.733 210.425 316.77 210.479C317.017 210.837 317.189 211.241 317.276 211.667C317.363 212.093 317.364 212.533 317.277 212.959C317.048 213.78 316.521 214.487 315.8 214.942C315.763 214.971 315.717 214.986 315.671 214.985Z" fill="#E0E0E0"/>
<path d="M417.919 200.508C418.275 201.284 418.512 201.834 418.781 202.481C419.051 203.127 419.277 203.72 419.514 204.335C419.989 205.574 420.398 206.825 420.797 208.065C421.581 210.573 422.236 213.121 422.759 215.697C423.299 218.298 423.681 220.93 423.902 223.577C424.138 226.265 424.195 228.966 424.074 231.662V232.126C424.06 232.42 424.017 232.713 423.945 232.999C423.519 234.605 422.885 236.149 422.059 237.591C421.376 238.778 420.628 239.927 419.816 241.03C418.323 243.046 416.699 244.962 414.955 246.765C413.251 248.511 411.505 250.161 409.705 251.734C407.904 253.308 406.072 254.785 404.067 256.208C403.389 256.679 402.568 256.899 401.746 256.828C400.923 256.758 400.152 256.402 399.564 255.822C398.977 255.242 398.611 254.475 398.529 253.654C398.448 252.832 398.656 252.008 399.119 251.325V251.249L402.946 245.708C404.207 243.854 405.457 242.022 406.622 240.178C407.786 238.335 408.896 236.491 409.856 234.734C410.295 233.909 410.688 233.06 411.031 232.19C411.279 231.594 411.446 230.966 411.527 230.325L411.386 231.662C411.203 229.506 410.977 227.404 410.589 225.248C410.201 223.092 409.748 220.936 409.187 218.78C408.627 216.624 408.001 214.468 407.301 212.377C406.956 211.299 406.578 210.221 406.223 209.229L405.651 207.687L405.123 206.297L404.983 205.93C404.381 204.239 404.449 202.381 405.173 200.738C405.898 199.095 407.223 197.791 408.878 197.095C410.533 196.398 412.392 196.362 414.073 196.992C415.754 197.623 417.13 198.873 417.919 200.486V200.508Z" fill="#FFC3BD"/>
<path d="M406.535 190.342C413.003 191.334 415.601 193.307 420.883 206.307C418.49 211.158 407.258 215.794 407.258 215.794C407.258 215.794 398.289 201.78 406.535 190.342Z" fill="#263238"/>
</svg>
