<svg width="287" height="287" viewBox="0 0 287 287" fill="none" xmlns="http://www.w3.org/2000/svg">
<path d="M179.532 172.253C185.644 168.349 195.336 165.386 194.376 161.275C193.871 159.099 192.883 159.343 192.883 159.343C192.883 159.343 196.138 156.532 194.605 154.068C193.699 152.612 191.485 152.671 191.453 152.684C191.756 152.418 194.828 149.941 192.46 147.342C190.154 144.815 187.177 147.433 186.933 147.659H186.917L186.935 147.643C187.369 147.172 196.143 137.717 194.129 135.506C192.8 134.039 185.027 139.601 179.705 143.718C179.67 143.744 174.587 147.818 174.621 147.781C174.693 147.547 177.847 137.38 175.288 136.208C172.729 135.036 163.202 147.42 164.082 158.514C155.424 175.391 140.721 194.363 140.197 196.388C140.728 194.363 155.424 175.394 164.082 158.514C163.202 147.42 172.716 135.028 175.288 136.208C177.86 137.388 174.693 147.547 174.621 147.781C174.587 147.818 174.594 147.805 179.705 143.718C185.019 139.601 192.79 134.039 194.129 135.506C196.143 137.717 187.369 147.172 186.935 147.643L186.917 147.659H186.933C187.177 147.433 190.154 144.815 192.46 147.342C194.828 149.941 191.756 152.423 191.453 152.684C191.485 152.684 193.699 152.612 194.605 154.068C196.138 156.532 192.883 159.343 192.883 159.343C192.883 159.343 193.871 159.099 194.376 161.275C195.336 165.386 185.639 168.349 179.532 172.253ZM149.782 227.378C143.447 230.921 135.071 230.211 129.458 226.847C135.071 230.219 143.447 230.929 149.782 227.378Z" fill="white"/>
<path d="M179.535 172.253C185.647 168.347 195.336 165.384 194.376 161.273C193.869 159.099 192.883 159.343 192.883 159.343C192.883 159.343 196.136 156.532 194.602 154.066C193.696 152.61 191.485 152.668 191.453 152.684C191.756 152.418 194.828 149.942 192.46 147.343C190.202 144.869 187.3 147.327 186.952 147.64C187.576 146.96 196.114 137.707 194.127 135.522C192.171 133.381 176.888 145.985 174.621 147.797C174.69 147.563 177.847 137.396 175.288 136.224C172.729 135.052 163.2 147.436 164.082 158.53C158.124 170.141 140.365 195.718 140.2 196.351C133.057 204.793 131.149 201.179 122.695 205.891L118.975 215.107C122.462 219.922 126.644 225.162 129.453 226.847C135.063 230.219 143.442 230.929 149.774 227.378C158.679 223.321 172.982 192.165 179.535 172.253Z" fill="white"/>
<path d="M135.988 204.022C135.907 204.022 135.827 204.003 135.754 203.967C135.682 203.932 135.618 203.88 135.569 203.816C135.519 203.751 135.485 203.677 135.469 203.598C135.453 203.518 135.455 203.436 135.475 203.358C136.044 201.155 154.789 175.423 163.545 158.413C162.87 148.913 169.474 138.857 173.085 136.333C174.068 135.645 174.887 135.443 175.514 135.732C177.786 136.774 176.609 142.641 175.604 146.319C190.486 134.377 193.534 134.069 194.525 135.158C195.588 136.317 194.762 138.639 191.945 142.469C191.057 143.675 190.101 144.847 189.287 145.814C189.934 145.654 190.613 145.678 191.246 145.884C191.88 146.089 192.443 146.469 192.872 146.978C194.4 148.658 194.142 150.582 192.654 152.272C195.524 152.865 196.874 155.812 193.855 159.136C194.328 159.513 194.682 160.199 194.905 161.158C195.984 165.787 186.088 168.7 179.83 172.702C179.771 172.743 179.705 172.771 179.635 172.785C179.565 172.8 179.493 172.8 179.423 172.785C179.353 172.771 179.286 172.743 179.227 172.703C179.168 172.662 179.118 172.611 179.08 172.55C179.041 172.49 179.016 172.423 179.004 172.352C178.992 172.282 178.994 172.21 179.011 172.141C179.028 172.071 179.058 172.006 179.101 171.948C179.143 171.891 179.197 171.843 179.258 171.807C185.166 168.03 194.703 164.977 193.874 161.397C193.587 160.175 193.167 159.885 193.002 159.869C192.892 159.911 192.77 159.911 192.66 159.87C192.549 159.828 192.458 159.748 192.402 159.644C192.341 159.528 192.323 159.395 192.349 159.268C192.376 159.14 192.446 159.026 192.548 158.945C192.577 158.921 195.439 156.399 194.166 154.35C193.457 153.21 191.668 153.213 191.53 153.215C191.424 153.228 191.317 153.208 191.223 153.159C191.128 153.11 191.051 153.034 191 152.941C190.949 152.847 190.928 152.74 190.939 152.634C190.949 152.528 190.992 152.428 191.06 152.346C191.164 152.219 192.739 151.047 192.835 149.548C192.848 149.203 192.788 148.859 192.659 148.539C192.531 148.218 192.336 147.928 192.088 147.688C191.865 147.419 191.589 147.199 191.278 147.042C190.966 146.884 190.625 146.793 190.276 146.774C188.785 146.707 187.371 147.986 187.313 148.039C187.208 148.136 187.07 148.188 186.927 148.184C186.785 148.18 186.649 148.12 186.55 148.017C186.501 147.967 186.463 147.906 186.438 147.841C186.412 147.775 186.4 147.705 186.402 147.634C186.404 147.564 186.42 147.494 186.449 147.43C186.478 147.366 186.52 147.308 186.572 147.26C191.621 141.791 194.693 136.896 193.747 135.862C193.712 135.823 192.808 134.983 185.652 139.995C181.475 142.918 177.536 146.136 174.972 148.19C174.881 148.266 174.767 148.31 174.649 148.314C174.531 148.318 174.414 148.283 174.318 148.213C174.222 148.143 174.152 148.044 174.12 147.93C174.087 147.816 174.093 147.694 174.138 147.584C176.12 141.055 176.112 137.162 175.078 136.689C174.887 136.604 174.425 136.689 173.699 137.196C170.104 139.71 163.925 149.686 164.621 158.474C164.629 158.572 164.61 158.671 164.566 158.759C155.953 175.543 136.99 201.761 136.509 203.616C136.48 203.732 136.414 203.836 136.319 203.91C136.224 203.984 136.108 204.023 135.988 204.022Z" fill="#000091"/>
<path d="M129.185 227.296C126.793 225.861 123.219 221.861 118.555 215.409C118.514 215.353 118.485 215.288 118.469 215.22C118.453 215.152 118.45 215.082 118.462 215.013C118.473 214.944 118.497 214.878 118.534 214.818C118.571 214.759 118.619 214.707 118.676 214.667C118.732 214.626 118.797 214.596 118.865 214.58C118.933 214.564 119.003 214.562 119.072 214.573C119.141 214.584 119.207 214.609 119.267 214.646C119.326 214.683 119.378 214.731 119.419 214.787C123.936 221.032 127.502 225.042 129.735 226.384C135.623 229.921 143.76 230.139 149.527 226.916C160.242 220.921 172.054 191.333 176.266 179.784C176.314 179.652 176.413 179.544 176.541 179.484C176.669 179.425 176.815 179.418 176.947 179.466C177.08 179.515 177.188 179.614 177.247 179.742C177.307 179.869 177.313 180.016 177.265 180.148C173.773 189.715 161.491 221.439 150.042 227.843C143.883 231.287 135.305 230.971 129.185 227.296ZM173.228 161.836C173.117 161.836 173.007 161.802 172.917 161.737C172.826 161.672 172.758 161.58 172.722 161.474C172.686 161.368 172.685 161.253 172.718 161.147C172.751 161.04 172.817 160.946 172.907 160.879C177.956 157.042 175.883 150.949 175.793 150.691C175.746 150.558 175.753 150.412 175.814 150.284C175.874 150.157 175.983 150.059 176.116 150.012C176.248 149.965 176.395 149.972 176.522 150.033C176.649 150.093 176.747 150.202 176.795 150.335C176.819 150.406 179.231 157.411 173.55 161.727C173.457 161.797 173.344 161.835 173.228 161.836ZM187.159 167.701C185.886 167.701 185.078 167.169 184.692 166.455C183.808 164.833 185.075 163.218 186.502 162.043C184.73 162.203 183.085 161.847 182.436 160.486C181.692 158.926 183.082 157.207 184.525 155.921C182.739 156.303 180.863 156.356 180.247 154.446C179.449 151.942 183.366 149.617 184.591 148.963C184.716 148.9 184.86 148.888 184.993 148.93C185.126 148.972 185.237 149.064 185.302 149.187C185.368 149.31 185.382 149.454 185.343 149.587C185.303 149.721 185.213 149.834 185.091 149.902C183.048 150.994 180.818 152.753 181.259 154.119C181.825 155.878 184.525 154.786 186.709 154.268C186.829 154.239 186.955 154.253 187.066 154.307C187.176 154.361 187.265 154.452 187.316 154.564C187.367 154.676 187.378 154.802 187.346 154.921C187.315 155.04 187.243 155.145 187.143 155.216C184.161 157.369 182.891 158.987 183.396 160.029C184.14 161.589 187.382 160.964 188.976 160.414C189.103 160.369 189.243 160.374 189.367 160.429C189.491 160.483 189.589 160.582 189.642 160.706C189.695 160.83 189.699 160.97 189.653 161.097C189.607 161.224 189.514 161.328 189.393 161.389C188.474 161.868 185.989 163.428 185.537 164.908C185.476 165.078 185.453 165.26 185.469 165.44C185.485 165.62 185.539 165.795 185.629 165.952C185.719 166.109 185.842 166.244 185.99 166.349C186.137 166.453 186.306 166.525 186.484 166.558C187.528 166.824 189.122 166.399 190.735 165.392C190.855 165.325 190.996 165.307 191.128 165.341C191.261 165.375 191.375 165.46 191.447 165.576C191.519 165.693 191.543 165.832 191.515 165.966C191.486 166.1 191.407 166.218 191.293 166.295C189.824 167.212 188.365 167.701 187.159 167.701Z" fill="#000091"/>
<path d="M125.725 270.019L122.7 206.148L135.456 203.225L141.834 193.127L140.152 172.317C132.743 145.211 78.5423 139.758 78.5423 139.758C78.5423 139.758 54.8913 139.758 31.8782 153.991C8.86504 168.224 30.2837 213.98 30.2837 213.98C31.5115 213.574 32.7188 213.154 33.9058 212.72C35.8244 225.72 36.1194 249.499 35.5002 269.785C58.2237 277.529 89.0071 273.349 125.725 270.019Z" fill="#CE0500"/>
<path d="M140.152 172.848C140.035 172.848 139.922 172.81 139.829 172.74C139.737 172.669 139.67 172.57 139.639 172.458C137.226 163.635 127.968 151.509 97.5509 143.824C97.4832 143.807 97.4196 143.776 97.3637 143.734C97.3078 143.692 97.2608 143.639 97.2253 143.579C97.1535 143.458 97.133 143.312 97.1682 143.176C97.2035 143.039 97.2916 142.922 97.4132 142.85C97.5348 142.778 97.6799 142.758 97.8166 142.793C128.725 150.603 138.185 163.082 140.665 172.176C140.686 172.255 140.69 172.338 140.674 172.418C140.658 172.499 140.624 172.574 140.575 172.639C140.525 172.704 140.461 172.757 140.388 172.793C140.314 172.83 140.234 172.848 140.152 172.848ZM30.2706 214.511C30.1697 214.511 30.0709 214.482 29.9857 214.428C29.9006 214.374 29.8325 214.297 29.7897 214.206C29.7365 214.091 24.3818 202.553 21.9264 189.42C19.4018 175.936 19.8935 160.784 31.5993 153.545C40.8259 147.837 51.211 143.713 62.4598 141.289C62.5976 141.259 62.7416 141.285 62.8603 141.361C62.9789 141.438 63.0623 141.558 63.0923 141.696C63.1222 141.833 63.0962 141.977 63.02 142.096C62.9437 142.215 62.8235 142.298 62.6857 142.328C51.5538 144.72 41.2829 148.804 32.1574 154.448C20.882 161.419 20.5419 176.231 22.9654 189.207C25.389 202.183 30.6985 213.656 30.7516 213.754C30.7897 213.835 30.8066 213.924 30.801 214.013C30.7953 214.103 30.7672 214.189 30.7192 214.265C30.6712 214.34 30.605 214.402 30.5266 214.445C30.4481 214.489 30.3601 214.511 30.2706 214.511Z" fill="#000091"/>
<path d="M139.498 196.117H119.583C118.979 196.117 118.383 195.985 117.835 195.731C117.287 195.476 116.801 195.106 116.411 194.645C116.021 194.184 115.736 193.643 115.576 193.061C115.417 192.478 115.386 191.868 115.486 191.272L121.709 154.337C121.874 153.37 122.375 152.493 123.125 151.86C123.874 151.228 124.824 150.882 125.804 150.882H145.708C146.312 150.883 146.908 151.015 147.455 151.269C148.002 151.523 148.487 151.894 148.877 152.355C149.266 152.815 149.551 153.356 149.71 153.938C149.87 154.519 149.901 155.129 149.801 155.724L143.596 192.638C143.435 193.609 142.935 194.491 142.184 195.128C141.434 195.765 140.482 196.116 139.498 196.117Z" fill="#FFC600"/>
<path d="M127.792 159.535C129.135 159.535 130.224 158.446 130.224 157.103C130.224 155.761 129.135 154.672 127.792 154.672C126.449 154.672 125.361 155.761 125.361 157.103C125.361 158.446 126.449 159.535 127.792 159.535Z" fill="#000091"/>
<path d="M126.979 165.541C127.933 165.541 128.706 164.767 128.706 163.813C128.706 162.859 127.933 162.086 126.979 162.086C126.025 162.086 125.251 162.859 125.251 163.813C125.251 164.767 126.025 165.541 126.979 165.541Z" fill="#000091"/>
<path d="M182.651 63.1824C182.527 63.1824 184.703 63.8415 134.579 48.301C134.444 48.2593 134.332 48.166 134.266 48.0414C134.2 47.9168 134.187 47.7712 134.228 47.6366L138.945 32.4203C138.99 32.2896 139.084 32.1816 139.207 32.119C139.33 32.0564 139.473 32.0442 139.605 32.0849C139.737 32.1257 139.848 32.2162 139.914 32.3374C139.98 32.4585 139.997 32.6007 139.96 32.7339L135.4 47.4426L182.298 61.9839L192.827 28.0249L145.929 13.4863L142.044 26.0186C142.002 26.1532 141.908 26.2657 141.783 26.3312C141.658 26.3967 141.513 26.41 141.378 26.368C141.243 26.3261 141.131 26.2324 141.065 26.1076C141 25.9827 140.987 25.837 141.029 25.7024L145.07 12.6625C145.112 12.5279 145.205 12.4154 145.33 12.3496C145.455 12.2838 145.6 12.2702 145.735 12.3117L193.653 27.1666C193.787 27.2088 193.899 27.3024 193.964 27.4269C194.03 27.5514 194.043 27.6967 194.001 27.8309L183.159 62.8077C183.126 62.9162 183.058 63.0111 182.967 63.0785C182.876 63.146 182.765 63.1824 182.651 63.1824Z" fill="#CE0500"/>
<path d="M157.94 39.9009L145.094 13.0505C145.064 12.9875 145.047 12.9192 145.043 12.8494C145.039 12.7796 145.049 12.7098 145.072 12.6439C145.095 12.578 145.131 12.5173 145.178 12.4654C145.225 12.4134 145.281 12.3711 145.344 12.3409C145.407 12.3107 145.475 12.2932 145.545 12.2894C145.615 12.2856 145.685 12.2955 145.751 12.3187C145.817 12.3419 145.877 12.3779 145.929 12.4246C145.981 12.4712 146.024 12.5277 146.054 12.5907L158.897 39.4306C159.259 40.1899 159.774 40.8661 160.409 41.4168C161.045 41.9674 161.788 42.3805 162.591 42.6301C163.395 42.8797 164.241 42.9604 165.077 42.8671C165.913 42.7738 166.72 42.5085 167.448 42.088L193.225 27.2065C193.347 27.1429 193.488 27.1288 193.62 27.167C193.751 27.2052 193.863 27.2928 193.932 27.4114C194 27.5301 194.021 27.6707 193.988 27.8039C193.955 27.937 193.872 28.0524 193.757 28.1259L167.98 43.0074C167.125 43.4989 166.178 43.8088 165.198 43.9179C164.218 44.0269 163.225 43.9328 162.283 43.6413C161.341 43.3497 160.469 42.8672 159.722 42.2236C158.975 41.5801 158.368 40.7894 157.94 39.9009Z" fill="#CE0500"/>
<path d="M182.652 63.1799C182.551 63.1796 182.453 63.151 182.369 63.0974C182.284 63.0438 182.216 62.9674 182.173 62.8769L171.403 40.374C171.342 40.2468 171.334 40.1005 171.381 39.9675C171.428 39.8344 171.525 39.7254 171.653 39.6645C171.78 39.6035 171.926 39.5956 172.059 39.6424C172.192 39.6893 172.301 39.787 172.362 39.9143L183.127 62.4198C183.166 62.5005 183.183 62.5896 183.178 62.6789C183.173 62.7681 183.145 62.8546 183.098 62.9304C183.05 63.0061 182.985 63.0687 182.907 63.1123C182.829 63.1559 182.741 63.1792 182.652 63.1799ZM134.731 48.3276C134.613 48.3284 134.498 48.2902 134.405 48.2188C134.311 48.1475 134.244 48.0471 134.213 47.9334C134.183 47.8197 134.191 47.6992 134.237 47.5906C134.282 47.4821 134.362 47.3918 134.465 47.3337L156.069 34.8652C156.13 34.8267 156.198 34.8009 156.268 34.7893C156.339 34.7776 156.411 34.7804 156.481 34.7975C156.551 34.8145 156.616 34.8455 156.673 34.8885C156.731 34.9315 156.779 34.9857 156.815 35.0477C156.851 35.1098 156.874 35.1785 156.882 35.2496C156.891 35.3208 156.885 35.3929 156.865 35.4618C156.845 35.5306 156.811 35.5947 156.766 35.6502C156.721 35.7057 156.664 35.7514 156.601 35.7846C133.479 49.1355 134.956 48.3276 134.731 48.3276Z" fill="#CE0500"/>
<path d="M92.0579 152.952C91.568 153.522 90.9023 153.913 90.1658 154.063C81.3326 155.923 70.9395 142.477 70.9395 142.477C71.0723 117.928 71.0936 115.6 71.1175 110.896L91.8214 127.68C93.4158 144.106 93.1952 141.953 93.3068 142.66C93.4976 143.886 93.6068 145.124 93.6337 146.364C93.5752 148.985 93.5753 151.339 92.0579 152.952Z" fill="white"/>
<path d="M76.8974 149.37C74.5687 147.388 72.4332 145.189 70.5196 142.803C70.4475 142.709 70.4091 142.593 70.4107 142.474L70.4585 133.646C70.4585 133.505 70.5145 133.37 70.6142 133.27C70.7139 133.171 70.8491 133.115 70.99 133.115C71.131 133.115 71.2661 133.171 71.3658 133.27C71.4655 133.37 71.5215 133.505 71.5215 133.646L71.4843 142.293C72.6217 143.71 82.1431 155.203 90.0702 153.542C90.6917 153.415 91.2528 153.084 91.6646 152.601C92.8684 151.347 93.1076 149.288 93.1076 146.364C93.0874 145.212 92.988 144.062 92.81 142.923C92.6559 141.884 92.887 144.047 91.2979 127.733C91.2911 127.663 91.2981 127.593 91.3185 127.526C91.339 127.459 91.3724 127.396 91.4169 127.342C91.4615 127.288 91.5163 127.243 91.5781 127.21C91.64 127.177 91.7078 127.157 91.7776 127.15C91.8474 127.143 91.9178 127.15 91.9849 127.171C92.052 127.191 92.1144 127.224 92.1686 127.269C92.2227 127.314 92.2676 127.368 92.3006 127.43C92.3336 127.492 92.3541 127.56 92.3609 127.63C93.7613 142.001 93.7613 142.131 93.8118 142.405C94.0283 143.711 94.15 145.03 94.1759 146.354C94.1759 148.977 94.043 151.669 92.4512 153.319C91.8886 153.967 91.127 154.411 90.2854 154.581C85.542 155.575 80.5992 152.495 76.8974 149.37Z" fill="#000091"/>
<path d="M103.108 131.563C97.8459 133.086 89.7435 132.743 81.75 129.193C70.6394 121.731 71.5854 122.461 70.7218 121.529C66.9137 117.476 65.1997 113.408 64.4264 108.773C62.2181 95.3133 69.8076 82.3026 82.3931 78.8772C95.6615 75.2658 109.459 79.2573 111.55 97.5748C111.59 97.9043 111.625 98.2391 111.654 98.5766C112.61 109.366 115.419 125.911 105.053 130.824L103.108 131.563Z" fill="white"/>
<path d="M81.5296 129.681C81.4006 129.624 81.2996 129.518 81.2488 129.387C81.1979 129.255 81.2014 129.109 81.2585 128.98C81.3156 128.851 81.4216 128.75 81.5532 128.699C81.6847 128.648 81.8311 128.652 81.9601 128.709C90.4133 132.464 98.3324 132.384 102.935 131.06L104.838 130.34C114.776 125.61 112.087 109.535 111.12 98.6295C110.538 91.8265 108.175 85.276 102.52 81.444C97.4342 77.9894 90.3362 77.2692 82.5288 79.3951C69.0717 83.0597 61.7824 97.6781 65.5798 111.595C66.5179 115.079 68.6172 118.77 71.8061 121.892C71.9069 121.991 71.9644 122.126 71.9659 122.267C71.9674 122.408 71.9128 122.544 71.8141 122.644C71.7154 122.745 71.5808 122.803 71.4397 122.804C71.2987 122.806 71.1628 122.751 71.0621 122.652C67.7323 119.394 65.5346 115.517 64.5541 111.871C60.568 97.2556 68.3382 82.1562 82.2471 78.3694C90.3601 76.1611 97.7717 76.9397 103.116 80.5644C109.074 84.601 111.569 91.4199 112.177 98.5365C113.166 109.658 115.911 126.269 105.268 131.31L103.251 132.073C97.971 133.601 89.7277 133.319 81.5296 129.681Z" fill="#000091"/>
<path d="M101.866 116.322H101.529C101.388 116.31 101.258 116.242 101.167 116.133C101.076 116.024 101.032 115.884 101.045 115.743C101.058 115.602 101.126 115.472 101.235 115.381C101.343 115.291 101.484 115.247 101.624 115.26C101.64 115.26 103.285 115.382 103.655 114.574C103.846 114.151 102.741 112.714 101.335 111.542C101.276 111.499 101.227 111.445 101.19 111.383C101.153 111.32 101.129 111.251 101.12 111.179C101.11 111.107 101.116 111.034 101.136 110.964C101.156 110.894 101.191 110.829 101.237 110.773C101.283 110.717 101.34 110.671 101.405 110.638C101.469 110.605 101.54 110.586 101.612 110.581C101.685 110.576 101.758 110.587 101.826 110.611C101.894 110.636 101.957 110.674 102.01 110.723C102.788 111.366 105.278 113.577 104.622 115.015C104.083 116.184 102.552 116.322 101.866 116.322ZM92.0499 111.037C91.9236 111.039 91.8008 110.996 91.7034 110.915C91.6061 110.835 91.5404 110.723 91.5184 110.598L91.1782 108.666C91.1546 108.528 91.1868 108.386 91.2678 108.271C91.3488 108.156 91.472 108.078 91.6104 108.054C91.7489 108.029 91.8913 108.061 92.0065 108.141C92.1218 108.222 92.2004 108.345 92.2252 108.483L92.5654 110.412C92.5789 110.488 92.5757 110.566 92.5561 110.641C92.5366 110.715 92.501 110.784 92.452 110.844C92.4029 110.903 92.3416 110.951 92.2721 110.985C92.2027 111.018 92.1269 111.036 92.0499 111.037ZM106.376 109.031C106.25 109.032 106.127 108.989 106.03 108.909C105.932 108.829 105.867 108.716 105.844 108.592L105.504 106.663C105.492 106.594 105.493 106.523 105.508 106.455C105.523 106.387 105.552 106.322 105.592 106.264C105.632 106.207 105.683 106.158 105.742 106.121C105.801 106.083 105.867 106.057 105.936 106.045C106.005 106.033 106.075 106.035 106.144 106.05C106.212 106.066 106.277 106.094 106.334 106.135C106.391 106.175 106.44 106.226 106.477 106.285C106.514 106.344 106.54 106.41 106.551 106.479L106.891 108.409C106.905 108.484 106.901 108.562 106.881 108.636C106.861 108.71 106.826 108.779 106.777 108.838C106.728 108.897 106.667 108.945 106.597 108.978C106.528 109.012 106.453 109.029 106.376 109.031ZM89.2489 103.809C89.1608 103.809 89.074 103.787 88.9965 103.745C88.919 103.702 88.8531 103.642 88.8049 103.568C88.7566 103.494 88.7275 103.41 88.7201 103.322C88.7128 103.234 88.7274 103.145 88.7626 103.065C89.4323 101.529 90.9842 101.422 91.7097 101.582C91.8475 101.612 91.9677 101.695 92.044 101.814C92.1202 101.932 92.1462 102.077 92.1163 102.214C92.0863 102.352 92.0029 102.472 91.8843 102.549C91.7656 102.625 91.6216 102.651 91.4838 102.621C91.3536 102.594 90.2136 102.395 89.7379 103.49C89.6964 103.585 89.628 103.666 89.5411 103.722C89.4542 103.779 89.3527 103.809 89.2489 103.809ZM103.602 100.864C103.495 100.865 103.391 100.834 103.302 100.774C103.214 100.715 103.145 100.63 103.105 100.531C103.065 100.433 103.056 100.324 103.079 100.22C103.102 100.116 103.155 100.021 103.232 99.9475C104.439 98.7862 105.914 99.2805 106.522 99.7057C106.632 99.788 106.706 99.9098 106.728 100.045C106.751 100.181 106.719 100.32 106.641 100.433C106.563 100.546 106.444 100.625 106.31 100.652C106.175 100.68 106.035 100.654 105.919 100.58C105.807 100.506 104.829 99.8864 103.971 100.716C103.872 100.811 103.739 100.864 103.602 100.864ZM100.104 123.747C98.5419 123.747 97.1388 122.987 96.1662 121.318C96.1277 121.258 96.1019 121.19 96.0903 121.12C96.0786 121.049 96.0814 120.976 96.0985 120.907C96.1155 120.837 96.1465 120.772 96.1895 120.714C96.2325 120.657 96.2867 120.609 96.3487 120.573C96.4108 120.537 96.4795 120.514 96.5506 120.506C96.6218 120.497 96.6939 120.503 96.7628 120.523C96.8316 120.543 96.8957 120.577 96.9512 120.622C97.0067 120.667 97.0524 120.723 97.0856 120.787C97.649 121.754 98.3851 122.36 99.2753 122.586C100.346 122.809 101.462 122.612 102.392 122.036C102.513 121.963 102.658 121.94 102.795 121.974C102.932 122.007 103.05 122.093 103.123 122.214C103.197 122.334 103.219 122.479 103.186 122.616C103.152 122.753 103.066 122.871 102.945 122.945C102.086 123.458 101.106 123.735 100.104 123.747Z" fill="#000091"/>
<path d="M70.6315 129.304C63.018 117.667 62.7921 110.636 52.5106 104.468C52.4255 104.419 52.3556 104.347 52.3086 104.261C52.2617 104.175 52.2397 104.077 52.2449 103.979C52.9385 92.7885 56.6774 86.0307 63.0712 84.407C65.5346 76.7138 78.7791 66.6821 89.8844 66.3552C105.917 65.8769 114.529 76.2461 117.375 91.9009C117.399 92.0296 117.375 92.1627 117.307 92.2745C117.238 92.3863 117.131 92.469 117.006 92.5068C112.284 93.9391 91.6489 102.464 76.9322 95.4299C78.3114 106.368 72.8611 104.853 74.3944 116.423C74.4229 116.558 74.4014 116.699 74.334 116.819C74.2665 116.94 74.1577 117.031 74.0277 117.077C73.536 117.245 73.4085 117.021 72.4332 115.291C71.729 114.056 70.4694 111.85 69.7173 111.125C69.342 111.387 69.0667 111.77 68.9361 112.209C68.0432 114.627 68.7873 119.509 71.5935 123.492C71.8034 123.792 71.6227 123.893 71.6227 129.02C71.6268 129.138 71.5911 129.254 71.5214 129.35C71.4517 129.446 71.352 129.516 71.2381 129.549C71.1242 129.581 71.0026 129.575 70.8927 129.531C70.7828 129.486 70.6908 129.406 70.6315 129.304ZM53.3344 103.724C63.1668 109.735 64.0119 116.684 70.5544 127.21C70.5677 126.075 70.5996 124.725 70.6102 123.957C66.672 118.225 66.6427 110.779 69.6775 109.998C69.749 109.98 69.8236 109.977 69.8963 109.989C69.969 110.002 70.0384 110.029 70.1 110.07C70.8972 110.601 71.9443 112.299 73.1241 114.356C72.4385 104.383 77.4451 105.563 75.747 94.5663C75.7322 94.469 75.7447 94.3696 75.7831 94.279C75.8214 94.1884 75.8842 94.1103 75.9644 94.0532C76.0445 93.9962 76.1389 93.9626 76.2371 93.956C76.3352 93.9495 76.4333 93.9703 76.5203 94.0162C89.3689 100.87 107.758 94.5477 114.681 92.156C115.299 91.9434 115.822 91.7663 116.251 91.6245C114.069 80.1738 107.716 66.8867 89.9243 67.4102C79.0448 67.7318 66.0794 77.7449 64.0092 84.9916C63.983 85.0832 63.9327 85.166 63.8635 85.2315C63.7943 85.2969 63.7088 85.3426 63.6159 85.3637C56.0556 87.0777 53.8446 96.2192 53.3344 103.724Z" fill="#000091"/>
<path d="M73.8762 116.488C73.9878 117.338 71.1683 111.404 69.8104 110.514C67.3124 111.157 67.2327 118.22 71.1391 123.801C71.1391 125.129 71.0727 126.641 71.0727 129.023C63.4964 117.442 63.1988 110.269 52.7817 104.019C53.4328 93.5116 56.7891 86.3658 63.5124 84.8538C65.6781 77.2775 78.9253 67.2112 89.9217 66.887C108.215 66.3555 114.71 80.0917 116.873 91.9969C112.326 93.3761 90.8969 102.281 76.2838 94.4869C78.1121 106.392 72.2659 104.335 73.8762 116.488Z" fill="#000091"/>
<path d="M72.1406 122.395C71.1521 123.644 69.8738 124.731 68.2183 125.18C64.1046 126.301 59.5179 122.847 58.059 117.489C56.9402 113.378 59.9192 108.667 64.2029 108.768C65.917 108.81 67.9579 109.411 69.8101 110.514L72.1406 122.395Z" fill="white"/>
<path d="M57.5464 117.63C56.3346 113.173 59.5713 108.132 64.2138 108.236C66.074 108.281 68.2159 108.945 70.0814 110.056C70.2026 110.129 70.2902 110.246 70.3248 110.383C70.3594 110.52 70.3383 110.665 70.2661 110.786C70.1938 110.907 70.0764 110.995 69.9396 111.029C69.8028 111.064 69.6578 111.043 69.5366 110.97C67.8252 109.95 65.8747 109.341 64.1899 109.299C60.2304 109.201 57.5464 113.62 58.5721 117.351C60.3526 123.888 67.1662 127.84 71.7236 122.065C71.811 121.954 71.9388 121.883 72.0789 121.867C72.2189 121.85 72.3597 121.89 72.4704 121.977C72.581 122.065 72.6524 122.193 72.6689 122.333C72.6853 122.473 72.6455 122.613 72.5581 122.724C67.4984 129.15 59.5846 125.116 57.5464 117.63Z" fill="#000091"/>
<path d="M68.0298 121.061C67.9476 121.062 67.8664 121.043 67.7933 121.005C64.2669 119.251 65.5452 116.062 68.4178 116.163C68.0086 114.728 67.1316 113.931 65.8082 113.795C64.0172 113.612 62.1729 114.725 61.9337 115.352C61.9088 115.418 61.8712 115.477 61.8232 115.528C61.7752 115.579 61.7176 115.62 61.6538 115.648C61.5901 115.677 61.5213 115.692 61.4514 115.694C61.3816 115.696 61.3121 115.684 61.2468 115.659C61.1815 115.634 61.1218 115.597 61.0711 115.549C61.0204 115.501 60.9796 115.443 60.9511 115.379C60.9226 115.316 60.9069 115.247 60.905 115.177C60.9031 115.107 60.9149 115.038 60.9399 114.972C61.7743 112.791 68.6277 110.561 69.6216 116.705C69.6352 116.791 69.6275 116.879 69.599 116.961C69.5706 117.044 69.5224 117.118 69.4586 117.177C69.3948 117.237 69.3174 117.279 69.2333 117.302C69.1491 117.324 69.0607 117.325 68.9759 117.306C67.8119 117.04 66.9669 117.481 66.7676 118.039C66.5311 118.693 67.121 119.485 68.2663 120.053C68.3735 120.107 68.4595 120.195 68.5104 120.303C68.5613 120.412 68.5741 120.534 68.5467 120.651C68.5193 120.767 68.4534 120.871 68.3596 120.945C68.2658 121.02 68.1496 121.06 68.0298 121.061Z" fill="#000091"/>
<path d="M227.309 37.5728C226.872 38.9071 226.84 40.3412 227.217 41.6937C227.595 43.0462 228.365 44.2565 229.43 45.1714C230.495 46.0864 231.808 46.665 233.202 46.8341C234.596 47.0032 236.008 46.7552 237.261 46.1214C238.514 45.4876 239.551 44.4966 240.241 43.2735C240.931 42.0505 241.243 40.6504 241.137 39.2502C241.031 37.85 240.513 36.5126 239.647 35.4071C238.781 34.3016 237.607 33.4776 236.273 33.0393C235.387 32.7482 234.452 32.6345 233.522 32.7048C232.591 32.775 231.684 33.0279 230.852 33.4489C230.019 33.8699 229.278 34.4508 228.67 35.1584C228.063 35.866 227.6 36.6865 227.309 37.5728ZM230.623 38.6597C230.846 37.9805 231.265 37.3826 231.828 36.9416C232.391 36.5006 233.071 36.2364 233.784 36.1824C234.497 36.1283 235.21 36.2869 235.832 36.638C236.455 36.9891 236.96 37.517 237.282 38.1548C237.605 38.7927 237.731 39.512 237.645 40.2216C237.559 40.9312 237.264 41.5994 236.798 42.1415C236.333 42.6837 235.716 43.0755 235.028 43.2675C234.339 43.4594 233.609 43.4428 232.93 43.2198C232.019 42.9209 231.265 42.2725 230.832 41.4174C230.4 40.5623 230.325 39.5703 230.623 38.6597Z" fill="#CE0500"/>
<path d="M217.11 123.484C233.711 127.917 248.84 129.203 250.716 123.484C253.905 113.774 244.112 105.717 247.697 89.9344C252.007 70.9472 253.751 54.4182 240.389 45.8746C237.097 43.7646 232.911 42.234 229.156 41.4686C210.156 37.5436 201.129 54.0727 193.281 72.0687C186.816 86.905 174.148 87.5906 170.959 97.3008C169.08 103.019 182.027 110.952 198.025 117.231L217.11 123.484Z" fill="#FFC600"/>
<path d="M174.129 98.9168C172.633 103.474 196.186 114.627 219.783 120.91C234.931 124.943 246.538 125.975 247.514 123.009C248.903 118.773 228.431 108.675 206.058 102.185C188.899 97.2001 175.19 95.6827 174.129 98.9168Z" fill="#000091"/>
<path d="M199.231 109.517C198.603 111.421 198.463 113.452 198.826 115.424C199.188 117.396 200.04 119.245 201.303 120.801C202.567 122.358 204.201 123.572 206.057 124.331C207.912 125.091 209.928 125.372 211.921 125.148C213.913 124.925 215.817 124.204 217.458 123.052C219.099 121.9 220.424 120.354 221.311 118.556C222.198 116.759 222.619 114.767 222.535 112.764C222.451 110.761 221.865 108.811 220.831 107.094C216.114 105.332 210.964 103.626 206.047 102.199C204.449 102.853 203.012 103.846 201.835 105.109C200.659 106.373 199.77 107.877 199.231 109.517Z" fill="#CE0500"/>
<path d="M245.43 169.931C243.727 169.929 242.062 169.423 240.647 168.476C239.231 167.529 238.128 166.184 237.477 164.61C236.826 163.036 236.656 161.305 236.989 159.634C237.322 157.964 238.143 156.43 239.347 155.226C240.552 154.022 242.087 153.202 243.757 152.87C245.428 152.538 247.159 152.709 248.733 153.361C250.306 154.013 251.651 155.117 252.597 156.533C253.543 157.95 254.048 159.615 254.048 161.318C254.045 163.602 253.136 165.792 251.521 167.407C249.905 169.021 247.715 169.929 245.43 169.931ZM245.43 153.768C243.937 153.769 242.478 154.213 241.237 155.043C239.996 155.873 239.03 157.053 238.459 158.432C237.888 159.812 237.74 161.33 238.032 162.794C238.324 164.258 239.043 165.603 240.099 166.658C241.155 167.713 242.5 168.432 243.965 168.723C245.429 169.014 246.947 168.864 248.326 168.292C249.705 167.721 250.884 166.753 251.713 165.512C252.543 164.27 252.985 162.811 252.985 161.318C252.983 159.315 252.186 157.395 250.77 155.98C249.353 154.564 247.433 153.769 245.43 153.768ZM28.3945 54.7425C28.2897 54.7421 28.1874 54.7107 28.1004 54.6522C28.0134 54.5938 27.9456 54.511 27.9056 54.4141C27.8655 54.3173 27.855 54.2108 27.8753 54.108C27.8956 54.0052 27.9459 53.9107 28.0198 53.8363L43.1989 38.6572C43.2472 38.6038 43.3058 38.5607 43.3712 38.5306C43.4366 38.5005 43.5074 38.484 43.5794 38.4821C43.6513 38.4802 43.7229 38.493 43.7898 38.5196C43.8567 38.5462 43.9175 38.5861 43.9685 38.6369C44.0195 38.6878 44.0597 38.7484 44.0865 38.8152C44.1134 38.882 44.1264 38.9536 44.1247 39.0255C44.1231 39.0975 44.1068 39.1684 44.077 39.2339C44.0471 39.2994 44.0042 39.3582 43.9509 39.4066L28.7692 54.5884C28.6695 54.6872 28.5348 54.7426 28.3945 54.7425Z" fill="#FFC600"/>
<path d="M43.5815 54.7425C43.4412 54.7426 43.3065 54.6872 43.2068 54.5884L28.0198 39.4093C27.9641 39.3616 27.9189 39.303 27.887 39.2371C27.8551 39.1711 27.8372 39.0993 27.8344 39.0261C27.8316 38.9529 27.8439 38.8799 27.8706 38.8117C27.8973 38.7435 27.9379 38.6816 27.9897 38.6298C28.0414 38.578 28.1034 38.5375 28.1716 38.5107C28.2398 38.484 28.3128 38.4717 28.386 38.4745C28.4592 38.4773 28.531 38.4953 28.5969 38.5272C28.6629 38.5591 28.7215 38.6043 28.7692 38.6599L43.9509 53.839C44.0236 53.9131 44.073 54.0069 44.093 54.1088C44.113 54.2107 44.1027 54.3162 44.0634 54.4123C44.0241 54.5084 43.9576 54.5908 43.8719 54.6495C43.7863 54.7082 43.6853 54.7406 43.5815 54.7425ZM164.122 263.049H143.234C143.141 263.049 143.049 263.024 142.969 262.977C142.888 262.931 142.821 262.864 142.774 262.783C142.728 262.702 142.703 262.61 142.703 262.517C142.703 262.424 142.728 262.332 142.775 262.251L153.216 244.181C153.262 244.101 153.329 244.034 153.41 243.987C153.491 243.941 153.582 243.916 153.675 243.916C153.768 243.916 153.86 243.941 153.941 243.987C154.021 244.034 154.088 244.101 154.135 244.181L164.579 262.251C164.625 262.332 164.65 262.423 164.65 262.516C164.65 262.609 164.626 262.701 164.579 262.782C164.533 262.862 164.467 262.929 164.386 262.976C164.306 263.023 164.215 263.048 164.122 263.049ZM144.159 261.986H163.202L153.681 245.51L144.159 261.986Z" fill="#FFC600"/>
<path d="M104.593 61.9787C104.519 61.979 104.445 61.9638 104.377 61.934C104.309 61.9042 104.248 61.8605 104.198 61.8056C104.148 61.7508 104.11 61.6861 104.086 61.6157C104.063 61.5452 104.054 61.4706 104.061 61.3967L105.265 48.992C105.279 48.851 105.348 48.7213 105.458 48.6313C105.567 48.5414 105.708 48.4985 105.849 48.5123C105.99 48.526 106.119 48.5952 106.209 48.7046C106.299 48.814 106.342 48.9546 106.328 49.0956L105.122 61.5004C105.109 61.6315 105.047 61.753 104.95 61.8414C104.852 61.9298 104.725 61.9787 104.593 61.9787ZM112.9 65.1065C112.802 65.1065 112.707 65.0797 112.623 65.0289C112.54 64.9781 112.472 64.9054 112.427 64.8186C112.383 64.7319 112.363 64.6345 112.37 64.5372C112.377 64.4398 112.41 64.3462 112.467 64.2667L119.711 54.1261C119.793 54.0112 119.917 53.9336 120.057 53.9104C120.196 53.8873 120.339 53.9204 120.454 54.0025C120.569 54.0846 120.646 54.209 120.669 54.3483C120.692 54.4876 120.659 54.6304 120.577 54.7452L113.331 64.8832C113.282 64.9519 113.217 65.008 113.142 65.0468C113.067 65.0856 112.984 65.1061 112.9 65.1065ZM117.274 72.5153C117.153 72.5148 117.036 72.4728 116.942 72.3964C116.847 72.3201 116.782 72.2139 116.757 72.0954C116.731 71.9769 116.747 71.8533 116.802 71.7451C116.856 71.6368 116.946 71.5504 117.056 71.5002L129.66 65.7682C129.724 65.7359 129.794 65.7169 129.866 65.7123C129.937 65.7077 130.009 65.7176 130.076 65.7414C130.144 65.7652 130.206 65.8025 130.259 65.8509C130.312 65.8993 130.354 65.958 130.384 66.0232C130.413 66.0885 130.429 66.1591 130.431 66.2307C130.433 66.3024 130.42 66.3736 130.393 66.4401C130.367 66.5067 130.327 66.5671 130.276 66.6179C130.226 66.6686 130.165 66.7086 130.099 66.7355C116.607 72.8714 117.457 72.5153 117.274 72.5153Z" fill="#18753C"/>
<path d="M35.4872 270.317C35.416 270.317 35.3456 270.303 35.28 270.275C35.2145 270.247 35.1552 270.207 35.1056 270.156C35.056 270.105 35.0172 270.044 34.9915 269.978C34.9657 269.911 34.9535 269.841 34.9557 269.77C35.5217 251.277 35.3065 233.775 34.3684 221.748C34.3628 221.678 34.371 221.607 34.3926 221.541C34.4141 221.474 34.4486 221.413 34.494 221.359C34.5394 221.306 34.5949 221.262 34.6572 221.23C34.7196 221.198 34.7876 221.179 34.8574 221.174C34.9272 221.168 34.9974 221.176 35.064 221.198C35.1306 221.219 35.1923 221.254 35.2456 221.299C35.2989 221.345 35.3428 221.4 35.3746 221.462C35.4065 221.525 35.4258 221.593 35.4314 221.662C36.3747 233.727 36.59 251.274 36.0213 269.801C36.0171 269.94 35.959 270.072 35.8592 270.168C35.7594 270.264 35.6259 270.318 35.4872 270.317ZM125.725 270.551C125.588 270.551 125.457 270.499 125.358 270.405C125.259 270.311 125.2 270.182 125.193 270.046L122.172 206.438C122.168 206.368 122.179 206.299 122.203 206.233C122.226 206.167 122.263 206.107 122.31 206.055C122.357 206.003 122.413 205.961 122.477 205.932C122.54 205.902 122.608 205.885 122.678 205.881C122.748 205.878 122.818 205.889 122.883 205.912C122.949 205.936 123.01 205.972 123.061 206.019C123.113 206.066 123.155 206.123 123.185 206.186C123.214 206.249 123.231 206.318 123.235 206.388L126.254 269.993C126.257 270.065 126.246 270.136 126.221 270.204C126.196 270.271 126.158 270.333 126.109 270.385C126.059 270.437 126 270.479 125.934 270.507C125.868 270.536 125.797 270.551 125.725 270.551Z" fill="#000091"/>
<path d="M135.424 187.424C135.374 189.983 127.325 189.46 126.867 189.428C127.306 189.473 134.308 190.225 134.252 193.568C134.223 195.312 131.252 195.747 128.797 195.808C127.728 195.688 126.652 195.656 125.579 195.713C126.649 195.803 127.723 195.835 128.797 195.808C130.747 196.045 132.852 196.704 132.783 198.442C132.685 201.32 125.765 201.006 121.574 200.44C115.845 199.667 111.773 199.696 109.533 201.075C105.733 203.411 68.7712 228.755 57.8094 229.674C44.3683 230.801 37.3926 211.572 37.3926 211.572C46.5819 207.198 55.0564 203.037 60.4057 198.176L62.1915 200.94C62.1915 200.94 91.997 188.291 101.157 181.076C110.317 173.861 113.982 166.436 119.759 166.356L118.218 175.126C118.218 175.126 121.444 175.631 126.493 176.215C131.542 176.8 135.462 177.858 135.462 180.507C135.462 183.38 127.128 182.941 127.128 182.941C127.128 182.941 135.488 183.967 135.424 187.424Z" fill="white"/>
<path d="M128.797 195.808C127.723 195.834 126.649 195.802 125.579 195.712C126.652 195.656 127.728 195.688 128.797 195.808Z" fill="white"/>
<path d="M62.1993 201.469C62.0769 201.468 61.9583 201.426 61.8636 201.348C61.7689 201.271 61.7038 201.163 61.6795 201.043C61.6551 200.923 61.6729 200.798 61.7298 200.69C61.7868 200.581 61.8794 200.496 61.992 200.448C62.2897 200.323 91.8347 187.746 100.838 180.658C110.075 173.385 113.671 165.91 119.748 165.825C119.889 165.825 120.024 165.881 120.124 165.98C120.224 166.08 120.28 166.215 120.28 166.356C120.28 166.497 120.224 166.632 120.124 166.732C120.024 166.832 119.889 166.888 119.748 166.888C114.284 166.965 110.599 174.312 101.478 181.503C92.3582 188.694 63.6263 200.9 62.4066 201.431C62.3407 201.457 62.2702 201.47 62.1993 201.469ZM39.42 217.161C39.3862 217.099 39.3647 217.032 39.3568 216.963C39.3489 216.894 39.3547 216.823 39.374 216.756C39.3932 216.689 39.4255 216.626 39.4689 216.572C39.5124 216.517 39.5662 216.472 39.6273 216.438C39.6884 216.404 39.7555 216.382 39.8249 216.374C39.8942 216.367 39.9645 216.372 40.0316 216.392C40.0987 216.411 40.1614 216.443 40.2161 216.487C40.2707 216.53 40.3163 216.584 40.3501 216.645C43.1058 221.628 49.0372 229.882 57.7721 229.135C68.5213 228.231 105.741 202.779 109.265 200.61C111.457 199.26 115.278 199.042 121.651 199.903C125.573 200.435 130.303 200.541 131.823 199.258C131.954 199.158 132.062 199.031 132.137 198.884C132.212 198.738 132.254 198.577 132.259 198.412C132.31 196.996 130.224 196.52 128.818 196.34C127.72 196.366 126.622 196.33 125.528 196.231C125.387 196.229 125.253 196.171 125.154 196.07C125.056 195.969 125.001 195.834 125.003 195.693C125.005 195.552 125.063 195.417 125.164 195.319C125.264 195.22 125.4 195.166 125.541 195.168C126.633 195.11 127.728 195.143 128.815 195.266C130.256 195.224 133.7 194.987 133.723 193.547C133.763 191.115 128.735 190.119 126.796 189.941C126.655 189.929 126.524 189.862 126.433 189.754C126.341 189.646 126.296 189.506 126.308 189.365C126.32 189.224 126.387 189.094 126.495 189.002C126.602 188.911 126.742 188.866 126.883 188.878C128.603 189.005 133.346 189.08 134.635 187.905C134.714 187.846 134.778 187.77 134.824 187.682C134.87 187.595 134.896 187.499 134.901 187.4C134.943 185.009 129.432 183.746 127.08 183.454C126.939 183.442 126.809 183.374 126.718 183.265C126.627 183.157 126.583 183.017 126.595 182.876C126.607 182.735 126.675 182.605 126.783 182.514C126.892 182.423 127.032 182.379 127.173 182.391C129.123 182.492 134.948 182.354 134.948 180.483C134.948 178.612 132.249 177.392 126.445 176.723C121.425 176.143 118.164 175.631 118.132 175.628C118.063 175.617 117.996 175.593 117.935 175.556C117.875 175.519 117.822 175.471 117.781 175.414C117.739 175.357 117.709 175.292 117.692 175.224C117.676 175.155 117.672 175.084 117.683 175.014C117.694 174.944 117.719 174.877 117.755 174.817C117.792 174.757 117.84 174.704 117.897 174.662C117.954 174.621 118.019 174.591 118.088 174.574C118.156 174.557 118.227 174.554 118.297 174.565C118.332 174.565 121.568 175.08 126.567 175.657C131.236 176.189 136.006 177.188 136.006 180.472C136.006 182.434 133.322 183.066 131.38 183.302C133.66 184.047 135.995 185.317 135.958 187.406C135.924 189.236 133.219 189.723 131.398 189.896C134.212 190.98 134.805 192.46 134.786 193.544C134.762 195.059 133.192 195.715 131.714 196.021C132.719 196.531 133.362 197.323 133.325 198.428C133.2 202.077 125.145 201.426 121.513 200.934C115.48 200.121 111.765 200.299 109.82 201.495C105.765 204.017 69.0235 229.268 57.8624 230.203C49.6935 230.889 43.4061 224.367 39.42 217.161ZM29.763 214.147C29.7409 214.081 29.7322 214.011 29.7372 213.941C29.7423 213.871 29.761 213.803 29.7923 213.741C29.8237 213.678 29.867 213.623 29.9199 213.577C29.9728 213.531 30.0341 213.497 30.1005 213.475C42.2262 209.47 52.4626 204.089 61.3861 197.041C57.0732 187.142 54.0357 177.881 52.1012 168.74C52.0837 168.671 52.0804 168.598 52.0914 168.528C52.1024 168.457 52.1276 168.389 52.1654 168.329C52.2032 168.268 52.2529 168.216 52.3114 168.175C52.37 168.134 52.4362 168.105 52.5061 168.09C52.5761 168.075 52.6483 168.075 52.7184 168.088C52.7886 168.102 52.8553 168.13 52.9145 168.17C52.9737 168.21 53.0242 168.262 53.063 168.322C53.1018 168.382 53.128 168.449 53.1402 168.519C55.0854 177.703 58.1547 187.018 62.5235 196.991C62.5702 197.098 62.5805 197.217 62.5526 197.33C62.5248 197.444 62.4604 197.545 62.3694 197.618C53.2704 204.875 42.8268 210.392 30.438 214.484C30.3715 214.507 30.3013 214.516 30.2313 214.511C30.1613 214.506 30.0929 214.488 30.0302 214.456C29.9674 214.425 29.9115 214.381 29.8657 214.328C29.8198 214.275 29.7849 214.214 29.763 214.147Z" fill="#000091"/>
<path d="M227.62 57.8726L232.766 52.7258L247.823 67.7828L242.677 72.9296L227.62 57.8726Z" fill="#18753C"/>
<path d="M260.635 44.6797L265.782 49.8265L242.679 72.9296L237.532 67.7829L260.635 44.6797Z" fill="#18753C"/>
<path d="M237.859 236.379C228.702 236.379 217.889 228.805 210.488 223.397C210.374 223.314 210.298 223.189 210.276 223.05C210.255 222.911 210.289 222.768 210.372 222.655C210.455 222.541 210.58 222.465 210.72 222.443C210.859 222.421 211.001 222.456 211.115 222.539C218.795 228.146 231.186 236.929 240.567 235.058C244.41 234.293 247.545 231.853 250.431 227.383C253.355 222.866 249.95 219.541 247.66 217.974C243.469 215.101 238.093 214.391 237.221 215.582C236.275 216.887 236.132 218.274 236.004 219.494C235.861 220.883 235.709 222.318 234.107 222.682C228.848 223.886 221.824 219.791 219.05 217.974C213.677 214.455 209.425 210.033 208.952 207.464C208.545 205.308 213.19 205.399 214.113 201.046C214.57 198.885 210.004 193.196 204.705 191.407C202.048 190.515 198.453 190.395 196.316 194.905C192.189 203.613 194.799 209.73 206.653 219.14C206.761 219.229 206.83 219.356 206.845 219.495C206.86 219.634 206.82 219.773 206.733 219.882C206.646 219.992 206.519 220.062 206.38 220.079C206.242 220.096 206.102 220.057 205.992 219.972C193.797 210.291 191.014 203.613 195.362 194.461C200.873 182.835 216.207 196.321 215.157 201.277C214.548 204.147 212.523 205.415 211.184 206.254C210.578 206.632 209.954 207.025 210.002 207.277C210.852 211.795 225.919 223.488 233.886 221.657C235.643 221.253 234.2 217.971 236.376 214.965C237.92 212.839 244.317 214.383 248.276 217.091C252.719 220.131 253.836 224.094 251.34 227.955C248.029 233.054 243.95 236.379 237.859 236.379Z" fill="#18753C"/>
</svg>
