<svg width="337" height="337" viewBox="0 0 337 337" fill="none" xmlns="http://www.w3.org/2000/svg">
<path d="M68.7917 53.4985H271.394C273.642 53.4985 275.798 54.3914 277.387 55.9808C278.976 57.5701 279.869 59.7258 279.869 61.9735V248.843C279.869 250.866 279.065 252.807 277.635 254.238C276.204 255.669 274.263 256.472 272.24 256.472H68.7917C66.544 256.472 64.3884 255.579 62.799 253.99C61.2097 252.401 60.3168 250.245 60.3168 247.997V61.9766C60.3168 59.7289 61.2097 57.5733 62.799 55.9839C64.3884 54.3945 66.544 53.5017 68.7917 53.5017V53.4985Z" fill="#CE0500"/>
<path d="M60.3136 79.0483H279.869V247.995C279.869 250.242 278.976 252.398 277.387 253.987C275.797 255.577 273.642 256.469 271.394 256.469H68.7916C66.544 256.469 64.3883 255.577 62.799 253.987C61.2096 252.398 60.3167 250.242 60.3167 247.995V79.0483H60.3136Z" fill="#FCC63A"/>
<path d="M79.6006 71.0162C81.598 71.0162 83.2172 69.3971 83.2172 67.3997C83.2172 65.4024 81.598 63.7832 79.6006 63.7832C77.6033 63.7832 75.9841 65.4024 75.9841 67.3997C75.9841 69.3971 77.6033 71.0162 79.6006 71.0162Z" fill="white"/>
<path d="M93.1275 71.0162C95.1248 71.0162 96.744 69.3971 96.744 67.3997C96.744 65.4024 95.1248 63.7832 93.1275 63.7832C91.1302 63.7832 89.511 65.4024 89.511 67.3997C89.511 69.3971 91.1302 71.0162 93.1275 71.0162Z" fill="white"/>
<path d="M106.651 71.0162C108.649 71.0162 110.268 69.3971 110.268 67.3997C110.268 65.4024 108.649 63.7832 106.651 63.7832C104.654 63.7832 103.035 65.4024 103.035 67.3997C103.035 69.3971 104.654 71.0162 106.651 71.0162Z" fill="white"/>
<path d="M261.468 69.2438H161.748C161.381 69.2561 161.017 69.1947 160.675 69.0632C160.333 68.9316 160.021 68.7326 159.757 68.478C159.494 68.2234 159.285 67.9184 159.142 67.5811C158.999 67.2439 158.925 66.8813 158.925 66.515C158.925 66.1487 158.999 65.7861 159.142 65.4489C159.285 65.1116 159.494 64.8066 159.757 64.552C160.021 64.2974 160.333 64.0984 160.675 63.9668C161.017 63.8353 161.381 63.7738 161.748 63.7862H261.468C261.834 63.7738 262.199 63.8353 262.541 63.9668C262.883 64.0984 263.195 64.2974 263.458 64.552C263.722 64.8066 263.931 65.1116 264.074 65.4489C264.217 65.7861 264.291 66.1487 264.291 66.515C264.291 66.8813 264.217 67.2439 264.074 67.5811C263.931 67.9184 263.722 68.2234 263.458 68.478C263.195 68.7326 262.883 68.9316 262.541 69.0632C262.199 69.1947 261.834 69.2561 261.468 69.2438ZM170.091 168.085C163.512 168.086 157.046 166.365 151.338 163.092C151.194 163.009 151.09 162.873 151.047 162.713C151.004 162.553 151.026 162.382 151.109 162.239C151.191 162.095 151.328 161.99 151.488 161.947C151.648 161.904 151.818 161.926 151.962 162.009C160.019 166.642 169.538 168.03 178.582 165.891C187.626 163.751 195.515 158.245 200.642 150.493C205.768 142.742 207.748 133.327 206.177 124.167C204.606 115.007 199.603 106.791 192.187 101.19C184.77 95.5892 175.498 93.0259 166.258 94.022C157.017 95.018 148.504 99.4984 142.452 106.551C136.399 113.603 133.262 122.698 133.679 131.982C134.097 141.266 138.037 150.043 144.698 156.524C144.817 156.639 144.885 156.797 144.887 156.963C144.889 157.128 144.826 157.288 144.71 157.407C144.595 157.525 144.437 157.593 144.271 157.596C144.106 157.598 143.946 157.535 143.827 157.419C137.556 151.325 133.598 143.24 132.632 134.548C131.666 125.857 133.752 117.1 138.532 109.778C143.312 102.455 150.49 97.0221 158.835 94.4092C167.18 91.7963 176.174 92.166 184.277 95.455C192.38 98.744 199.087 104.748 203.25 112.438C207.413 120.128 208.773 129.027 207.097 137.609C205.421 146.192 200.813 153.925 194.063 159.484C187.312 165.043 178.839 168.082 170.094 168.081L170.091 168.085Z" fill="white"/>
<path d="M197.033 145.883C194.307 150.619 190.382 154.552 185.652 157.287C180.922 160.022 175.555 161.462 170.091 161.462C164.628 161.462 159.261 160.022 154.531 157.287C149.801 154.552 145.876 150.619 143.15 145.883C145.876 141.148 149.801 137.215 154.531 134.48C159.261 131.745 164.628 130.305 170.091 130.305C175.555 130.305 180.922 131.745 185.652 134.48C190.382 137.215 194.307 141.148 197.033 145.883Z" fill="white"/>
<path d="M170.091 131.658C177.6 131.658 183.687 125.571 183.687 118.062C183.687 110.554 177.6 104.467 170.091 104.467C162.583 104.467 156.496 110.554 156.496 118.062C156.496 125.571 162.583 131.658 170.091 131.658Z" fill="white"/>
<path d="M225.968 203.932H192.371C192.205 203.932 192.047 203.866 191.93 203.749C191.813 203.632 191.747 203.473 191.747 203.308C191.747 203.142 191.813 202.983 191.93 202.866C192.047 202.749 192.205 202.684 192.371 202.684H225.344V183.899H114.83V202.684H185.166C185.331 202.684 185.49 202.749 185.607 202.866C185.724 202.983 185.79 203.142 185.79 203.308C185.79 203.473 185.724 203.632 185.607 203.749C185.49 203.866 185.331 203.932 185.166 203.932H114.206C114.04 203.932 113.881 203.866 113.764 203.749C113.647 203.632 113.582 203.473 113.582 203.308V183.275C113.582 183.109 113.647 182.951 113.764 182.834C113.881 182.717 114.04 182.651 114.206 182.651H225.968C226.133 182.651 226.292 182.717 226.409 182.834C226.526 182.951 226.592 183.109 226.592 183.275V203.308C226.592 203.473 226.526 203.632 226.409 203.749C226.292 203.866 226.133 203.932 225.968 203.932ZM225.968 238.708H114.206C114.04 238.708 113.881 238.643 113.764 238.526C113.647 238.409 113.582 238.25 113.582 238.084V218.067C113.582 217.902 113.647 217.743 113.764 217.626C113.881 217.509 114.04 217.443 114.206 217.443H225.968C226.133 217.443 226.292 217.509 226.409 217.626C226.526 217.743 226.592 217.902 226.592 218.067V238.084C226.592 238.25 226.526 238.409 226.409 238.526C226.292 238.643 226.133 238.708 225.968 238.708ZM114.83 237.46H225.344V218.691H114.83V237.46Z" fill="white"/>
<path d="M215.618 196.895H125.994C125.553 196.909 125.114 196.834 124.702 196.674C124.291 196.515 123.916 196.274 123.599 195.967C123.282 195.66 123.03 195.292 122.858 194.886C122.686 194.48 122.598 194.043 122.598 193.602C122.598 193.16 122.686 192.724 122.858 192.317C123.03 191.911 123.282 191.543 123.599 191.236C123.916 190.929 124.291 190.689 124.702 190.529C125.114 190.37 125.553 190.295 125.994 190.308H215.618C216.059 190.295 216.498 190.37 216.909 190.529C217.321 190.689 217.696 190.929 218.013 191.236C218.33 191.543 218.581 191.911 218.753 192.317C218.925 192.724 219.014 193.16 219.014 193.602C219.014 194.043 218.925 194.48 218.753 194.886C218.581 195.292 218.33 195.66 218.013 195.967C217.696 196.274 217.321 196.515 216.909 196.674C216.498 196.834 216.059 196.909 215.618 196.895ZM128.631 234.056C128.465 234.056 128.307 233.99 128.19 233.873C128.073 233.756 128.007 233.597 128.007 233.432V222.46C128.007 222.295 128.073 222.136 128.19 222.019C128.307 221.902 128.465 221.836 128.631 221.836C128.797 221.836 128.955 221.902 129.072 222.019C129.189 222.136 129.255 222.295 129.255 222.46V233.432C129.255 233.597 129.189 233.756 129.072 233.873C128.955 233.99 128.797 234.056 128.631 234.056Z" fill="#CE0500"/>
<path d="M123.879 231.313C123.74 231.314 123.606 231.269 123.496 231.185C123.386 231.101 123.307 230.984 123.271 230.85C123.236 230.717 123.245 230.575 123.299 230.448C123.352 230.32 123.446 230.214 123.567 230.146L133.068 224.666C133.212 224.584 133.382 224.561 133.542 224.604C133.702 224.647 133.839 224.752 133.922 224.896C134.004 225.039 134.027 225.21 133.984 225.37C133.941 225.53 133.836 225.666 133.692 225.749C123.373 231.7 124.122 231.313 123.879 231.313Z" fill="#CE0500"/>
<path d="M133.38 231.313C133.143 231.313 133.986 231.759 123.567 225.743C123.423 225.66 123.318 225.524 123.275 225.364C123.232 225.204 123.255 225.033 123.337 224.89C123.42 224.746 123.556 224.641 123.716 224.598C123.877 224.555 124.047 224.577 124.191 224.66L133.692 230.146C133.812 230.214 133.907 230.32 133.96 230.447C134.014 230.575 134.023 230.716 133.987 230.85C133.952 230.983 133.873 231.101 133.763 231.185C133.653 231.269 133.518 231.314 133.38 231.313ZM145.356 234.146C145.191 234.146 145.032 234.08 144.915 233.963C144.798 233.846 144.732 233.688 144.732 233.522V222.551C144.732 222.385 144.798 222.227 144.915 222.11C145.032 221.993 145.191 221.927 145.356 221.927C145.522 221.927 145.68 221.993 145.797 222.11C145.914 222.227 145.98 222.385 145.98 222.551V233.522C145.98 233.688 145.914 233.846 145.797 233.963C145.68 234.08 145.522 234.146 145.356 234.146Z" fill="#CE0500"/>
<path d="M140.607 231.403C140.47 231.403 140.337 231.358 140.228 231.274C140.119 231.19 140.041 231.073 140.005 230.941C139.97 230.808 139.979 230.668 140.031 230.541C140.084 230.414 140.176 230.308 140.295 230.239L149.796 224.754C149.939 224.679 150.105 224.662 150.26 224.707C150.414 224.752 150.545 224.855 150.626 224.994C150.707 225.134 150.73 225.299 150.692 225.455C150.654 225.612 150.556 225.747 150.421 225.833C140.105 231.793 140.85 231.403 140.607 231.403Z" fill="#CE0500"/>
<path d="M150.105 231.403C149.868 231.403 150.714 231.849 140.295 225.833C140.22 225.794 140.155 225.741 140.101 225.675C140.048 225.61 140.008 225.535 139.985 225.454C139.961 225.373 139.955 225.289 139.965 225.205C139.975 225.122 140.002 225.041 140.044 224.968C140.086 224.895 140.143 224.832 140.21 224.781C140.277 224.731 140.354 224.694 140.436 224.674C140.518 224.654 140.603 224.651 140.686 224.665C140.769 224.678 140.848 224.709 140.919 224.754L150.421 230.239C150.539 230.308 150.632 230.415 150.685 230.542C150.737 230.669 150.746 230.81 150.71 230.942C150.674 231.075 150.595 231.192 150.486 231.275C150.377 231.359 150.243 231.404 150.105 231.403ZM162.081 234.236C161.916 234.236 161.757 234.171 161.64 234.054C161.523 233.937 161.457 233.778 161.457 233.612V222.641C161.457 222.476 161.523 222.317 161.64 222.2C161.757 222.083 161.916 222.017 162.081 222.017C162.247 222.017 162.406 222.083 162.523 222.2C162.64 222.317 162.706 222.476 162.706 222.641V233.612C162.706 233.778 162.64 233.937 162.523 234.054C162.406 234.171 162.247 234.236 162.081 234.236Z" fill="#CE0500"/>
<path d="M157.332 231.494C157.195 231.494 157.062 231.448 156.953 231.365C156.844 231.281 156.766 231.164 156.731 231.032C156.695 230.899 156.704 230.759 156.756 230.632C156.809 230.505 156.901 230.399 157.02 230.33L166.522 224.844C166.593 224.799 166.672 224.769 166.755 224.755C166.838 224.742 166.923 224.745 167.005 224.765C167.087 224.785 167.164 224.821 167.231 224.872C167.298 224.922 167.355 224.986 167.397 225.059C167.439 225.132 167.466 225.212 167.476 225.296C167.486 225.379 167.479 225.464 167.456 225.545C167.432 225.626 167.393 225.701 167.34 225.766C167.286 225.831 167.22 225.885 167.146 225.924C156.827 231.884 157.579 231.494 157.332 231.494Z" fill="#CE0500"/>
<path d="M166.834 231.494C166.593 231.494 167.439 231.94 157.02 225.924C156.884 225.838 156.787 225.702 156.749 225.546C156.71 225.39 156.734 225.225 156.815 225.085C156.895 224.946 157.026 224.843 157.181 224.798C157.336 224.753 157.502 224.77 157.644 224.844L167.146 230.33C167.264 230.399 167.357 230.505 167.409 230.632C167.462 230.759 167.471 230.899 167.435 231.032C167.4 231.164 167.322 231.281 167.213 231.365C167.104 231.448 166.971 231.494 166.834 231.494ZM178.797 234.34C178.632 234.34 178.473 234.274 178.356 234.157C178.239 234.04 178.173 233.881 178.173 233.716V222.732C178.173 222.566 178.239 222.408 178.356 222.291C178.473 222.174 178.632 222.108 178.797 222.108C178.963 222.108 179.121 222.174 179.238 222.291C179.355 222.408 179.421 222.566 179.421 222.732V233.716C179.421 233.881 179.355 234.04 179.238 234.157C179.121 234.274 178.963 234.34 178.797 234.34Z" fill="#CE0500"/>
<path d="M174.061 231.588C173.922 231.589 173.788 231.544 173.678 231.46C173.568 231.376 173.489 231.258 173.453 231.125C173.418 230.991 173.427 230.85 173.481 230.722C173.534 230.595 173.628 230.489 173.749 230.421L183.25 224.935C183.321 224.894 183.4 224.867 183.481 224.857C183.562 224.846 183.645 224.852 183.724 224.873C183.804 224.894 183.878 224.931 183.943 224.981C184.008 225.031 184.063 225.093 184.103 225.164C184.144 225.235 184.171 225.314 184.182 225.395C184.192 225.477 184.187 225.559 184.166 225.639C184.144 225.718 184.108 225.792 184.058 225.857C184.008 225.922 183.945 225.977 183.874 226.018C173.552 231.975 174.304 231.588 174.061 231.588Z" fill="#CE0500"/>
<path d="M183.559 231.588C183.322 231.588 184.183 232.034 173.745 226.018C173.602 225.935 173.497 225.799 173.454 225.639C173.411 225.479 173.433 225.308 173.516 225.164C173.599 225.021 173.735 224.916 173.895 224.873C174.055 224.83 174.226 224.852 174.369 224.935L183.871 230.421C183.991 230.489 184.085 230.595 184.139 230.722C184.192 230.85 184.202 230.991 184.166 231.125C184.13 231.258 184.051 231.376 183.942 231.46C183.832 231.544 183.697 231.589 183.559 231.588ZM199.298 233.404H188.876C188.71 233.404 188.552 233.338 188.435 233.221C188.318 233.104 188.252 232.945 188.252 232.78C188.252 232.614 188.318 232.455 188.435 232.338C188.552 232.221 188.71 232.156 188.876 232.156H199.298C199.464 232.156 199.622 232.221 199.739 232.338C199.856 232.455 199.922 232.614 199.922 232.78C199.922 232.945 199.856 233.104 199.739 233.221C199.622 233.338 199.464 233.404 199.298 233.404ZM216.304 233.404H205.882C205.717 233.404 205.558 233.338 205.441 233.221C205.324 233.104 205.258 232.945 205.258 232.78C205.258 232.614 205.324 232.455 205.441 232.338C205.558 232.221 205.717 232.156 205.882 232.156H216.304C216.47 232.156 216.628 232.221 216.745 232.338C216.862 232.455 216.928 232.614 216.928 232.78C216.928 232.945 216.862 233.104 216.745 233.221C216.628 233.338 216.47 233.404 216.304 233.404Z" fill="#CE0500"/>
<path d="M208.712 40.8766C206.712 40.8766 204.757 40.2835 203.094 39.1723C201.431 38.061 200.134 36.4816 199.369 34.6336C198.603 32.7857 198.403 30.7523 198.793 28.7905C199.184 26.8288 200.147 25.0268 201.561 23.6125C202.976 22.1981 204.778 21.2349 206.739 20.8447C208.701 20.4545 210.734 20.6548 212.582 21.4202C214.43 22.1856 216.01 23.4819 217.121 25.145C218.232 26.8081 218.825 28.7633 218.825 30.7635C218.822 33.4447 217.756 36.0151 215.86 37.9109C213.964 39.8068 211.393 40.8733 208.712 40.8766ZM208.712 21.8985C206.959 21.8985 205.245 22.4185 203.787 23.3926C202.329 24.3667 201.193 25.7512 200.522 27.371C199.851 28.9909 199.676 30.7733 200.018 32.493C200.36 34.2126 201.204 35.7922 202.444 37.032C203.684 38.2718 205.263 39.1161 206.983 39.4582C208.702 39.8002 210.485 39.6247 212.105 38.9537C213.725 38.2827 215.109 37.1465 216.083 35.6886C217.057 34.2308 217.577 32.5168 217.577 30.7635C217.576 28.4118 216.642 26.1564 214.98 24.4926C213.318 22.8288 211.064 21.8925 208.712 21.8892V21.8985ZM306.748 204.908C306.624 204.909 306.503 204.873 306.399 204.804C306.296 204.736 306.216 204.638 306.168 204.524C306.121 204.409 306.108 204.283 306.133 204.161C306.157 204.04 306.217 203.928 306.305 203.841L322.737 187.412C322.856 187.305 323.011 187.247 323.172 187.252C323.332 187.256 323.484 187.322 323.597 187.435C323.71 187.549 323.775 187.701 323.779 187.861C323.783 188.021 323.725 188.177 323.617 188.295L307.188 204.724C307.072 204.841 306.913 204.908 306.748 204.908Z" fill="#FCC63A"/>
<path d="M323.177 204.908C323.012 204.908 322.853 204.841 322.737 204.724L306.305 188.295C306.188 188.178 306.122 188.02 306.122 187.854C306.122 187.688 306.188 187.529 306.305 187.412C306.422 187.295 306.581 187.229 306.746 187.229C306.912 187.229 307.071 187.295 307.188 187.412L323.617 203.841C323.705 203.928 323.765 204.039 323.789 204.161C323.813 204.282 323.801 204.408 323.754 204.522C323.707 204.636 323.627 204.734 323.524 204.803C323.421 204.872 323.3 204.908 323.177 204.908ZM145.806 297.761H123.205C123.095 297.761 122.988 297.732 122.893 297.677C122.798 297.622 122.719 297.544 122.665 297.449C122.61 297.354 122.581 297.246 122.581 297.137C122.581 297.027 122.61 296.92 122.665 296.825L133.967 277.251C134.022 277.156 134.1 277.078 134.195 277.023C134.29 276.969 134.397 276.94 134.507 276.94C134.616 276.94 134.723 276.969 134.818 277.023C134.913 277.078 134.992 277.156 135.047 277.251L146.345 296.825C146.4 296.92 146.429 297.027 146.429 297.137C146.429 297.246 146.4 297.354 146.346 297.449C146.291 297.544 146.212 297.622 146.117 297.677C146.023 297.732 145.915 297.761 145.806 297.761ZM124.275 296.513H144.713L134.494 278.811L124.275 296.513Z" fill="#FCC63A"/>
<path d="M316.187 128.559H309.634V112.573C309.582 109.233 308.218 106.046 305.837 103.702C303.456 101.358 300.249 100.045 296.908 100.045C293.567 100.045 290.36 101.358 287.979 103.702C285.598 106.046 284.234 109.233 284.181 112.573V128.559H277.657V112.573C277.657 107.464 279.686 102.564 283.299 98.9507C286.912 95.3378 291.812 93.3081 296.922 93.3081C302.031 93.3081 306.932 95.3378 310.544 98.9507C314.157 102.564 316.187 107.464 316.187 112.573V128.559Z" fill="#0063CB"/>
<path d="M319.563 117.154H274.274C272.196 117.154 270.511 118.839 270.511 120.917V153.912C270.511 155.991 272.196 157.675 274.274 157.675H319.563C321.642 157.675 323.327 155.991 323.327 153.912V120.917C323.327 118.839 321.642 117.154 319.563 117.154Z" fill="#000091"/>
<path d="M296.922 138.919C299.381 138.919 301.375 136.925 301.375 134.466C301.375 132.007 299.381 130.013 296.922 130.013C294.463 130.013 292.469 132.007 292.469 134.466C292.469 136.925 294.463 138.919 296.922 138.919Z" fill="white"/>
<path d="M294.85 136.16H298.991V144.816H294.85V136.16Z" fill="white"/>
<path d="M234.92 229.659H233.048C232.882 229.659 232.724 229.593 232.607 229.476C232.49 229.359 232.424 229.201 232.424 229.035C232.424 228.87 232.49 228.711 232.607 228.594C232.724 228.477 232.882 228.411 233.048 228.411H234.92C235.086 228.411 235.244 228.477 235.361 228.594C235.479 228.711 235.544 228.87 235.544 229.035C235.544 229.201 235.479 229.359 235.361 229.476C235.244 229.593 235.086 229.659 234.92 229.659ZM289.811 229.659H285.888C285.723 229.659 285.564 229.593 285.447 229.476C285.33 229.359 285.264 229.201 285.264 229.035C285.264 228.87 285.33 228.711 285.447 228.594C285.564 228.477 285.723 228.411 285.888 228.411H289.811C289.976 228.411 290.135 228.477 290.252 228.594C290.369 228.711 290.435 228.87 290.435 229.035C290.435 229.201 290.369 229.359 290.252 229.476C290.135 229.593 289.976 229.659 289.811 229.659ZM281.969 229.659H278.047C277.881 229.659 277.723 229.593 277.606 229.476C277.489 229.359 277.423 229.201 277.423 229.035C277.423 228.87 277.489 228.711 277.606 228.594C277.723 228.477 277.881 228.411 278.047 228.411H281.969C282.135 228.411 282.293 228.477 282.41 228.594C282.527 228.711 282.593 228.87 282.593 229.035C282.593 229.201 282.527 229.359 282.41 229.476C282.293 229.593 282.135 229.659 281.969 229.659ZM274.128 229.659H270.205C270.04 229.659 269.881 229.593 269.764 229.476C269.647 229.359 269.581 229.201 269.581 229.035C269.581 228.87 269.647 228.711 269.764 228.594C269.881 228.477 270.04 228.411 270.205 228.411H274.128C274.293 228.411 274.452 228.477 274.569 228.594C274.686 228.711 274.752 228.87 274.752 229.035C274.752 229.201 274.686 229.359 274.569 229.476C274.452 229.593 274.293 229.659 274.128 229.659ZM266.286 229.659H262.367C262.201 229.659 262.043 229.593 261.926 229.476C261.809 229.359 261.743 229.201 261.743 229.035C261.743 228.87 261.809 228.711 261.926 228.594C262.043 228.477 262.201 228.411 262.367 228.411H266.286C266.452 228.411 266.61 228.477 266.727 228.594C266.844 228.711 266.91 228.87 266.91 229.035C266.91 229.201 266.844 229.359 266.727 229.476C266.61 229.593 266.452 229.659 266.286 229.659ZM258.445 229.659H254.525C254.36 229.659 254.201 229.593 254.084 229.476C253.967 229.359 253.901 229.201 253.901 229.035C253.901 228.87 253.967 228.711 254.084 228.594C254.201 228.477 254.36 228.411 254.525 228.411H258.445C258.61 228.411 258.769 228.477 258.886 228.594C259.003 228.711 259.069 228.87 259.069 229.035C259.069 229.201 259.003 229.359 258.886 229.476C258.769 229.593 258.61 229.659 258.445 229.659ZM250.603 229.659H246.684C246.518 229.659 246.36 229.593 246.243 229.476C246.126 229.359 246.06 229.201 246.06 229.035C246.06 228.87 246.126 228.711 246.243 228.594C246.36 228.477 246.518 228.411 246.684 228.411H250.603C250.769 228.411 250.927 228.477 251.044 228.594C251.162 228.711 251.227 228.87 251.227 229.035C251.227 229.201 251.162 229.359 251.044 229.476C250.927 229.593 250.769 229.659 250.603 229.659ZM242.765 229.659H238.843C238.677 229.659 238.518 229.593 238.401 229.476C238.284 229.359 238.218 229.201 238.218 229.035C238.218 228.87 238.284 228.711 238.401 228.594C238.518 228.477 238.677 228.411 238.843 228.411H242.765C242.93 228.411 243.089 228.477 243.206 228.594C243.323 228.711 243.389 228.87 243.389 229.035C243.389 229.201 243.323 229.359 243.206 229.476C243.089 229.593 242.93 229.659 242.765 229.659ZM295.602 229.659H293.73C293.564 229.659 293.406 229.593 293.289 229.476C293.172 229.359 293.106 229.201 293.106 229.035C293.106 228.87 293.172 228.711 293.289 228.594C293.406 228.477 293.564 228.411 293.73 228.411H294.978V227.163C294.978 226.997 295.044 226.839 295.161 226.722C295.278 226.605 295.437 226.539 295.602 226.539C295.768 226.539 295.926 226.605 296.043 226.722C296.16 226.839 296.226 226.997 296.226 227.163V229.035C296.226 229.201 296.16 229.359 296.043 229.476C295.926 229.593 295.768 229.659 295.602 229.659ZM295.602 224.067C295.437 224.067 295.278 224.002 295.161 223.885C295.044 223.768 294.978 223.609 294.978 223.443V219.699C294.978 219.533 295.044 219.375 295.161 219.258C295.278 219.141 295.437 219.075 295.602 219.075C295.768 219.075 295.926 219.141 296.043 219.258C296.16 219.375 296.226 219.533 296.226 219.699V223.443C296.226 223.609 296.16 223.768 296.043 223.885C295.926 224.002 295.768 224.067 295.602 224.067ZM295.602 216.6C295.437 216.6 295.278 216.535 295.161 216.418C295.044 216.301 294.978 216.142 294.978 215.976V212.232C294.978 212.066 295.044 211.908 295.161 211.791C295.278 211.674 295.437 211.608 295.602 211.608C295.768 211.608 295.926 211.674 296.043 211.791C296.16 211.908 296.226 212.066 296.226 212.232V215.976C296.226 216.142 296.16 216.301 296.043 216.418C295.926 216.535 295.768 216.6 295.602 216.6ZM295.602 209.133C295.437 209.133 295.278 209.068 295.161 208.951C295.044 208.834 294.978 208.675 294.978 208.509V204.765C294.978 204.599 295.044 204.441 295.161 204.324C295.278 204.207 295.437 204.141 295.602 204.141C295.768 204.141 295.926 204.207 296.043 204.324C296.16 204.441 296.226 204.599 296.226 204.765V208.509C296.226 208.675 296.16 208.834 296.043 208.951C295.926 209.068 295.768 209.133 295.602 209.133ZM295.602 201.666C295.437 201.666 295.278 201.601 295.161 201.484C295.044 201.367 294.978 201.208 294.978 201.042V197.298C294.978 197.132 295.044 196.974 295.161 196.857C295.278 196.74 295.437 196.674 295.602 196.674C295.768 196.674 295.926 196.74 296.043 196.857C296.16 196.974 296.226 197.132 296.226 197.298V201.042C296.226 201.208 296.16 201.367 296.043 201.484C295.926 201.601 295.768 201.666 295.602 201.666ZM295.602 194.199C295.437 194.199 295.278 194.134 295.161 194.017C295.044 193.899 294.978 193.741 294.978 193.575V189.831C294.978 189.665 295.044 189.507 295.161 189.389C295.278 189.272 295.437 189.207 295.602 189.207C295.768 189.207 295.926 189.272 296.043 189.389C296.16 189.507 296.226 189.665 296.226 189.831V193.575C296.226 193.741 296.16 193.899 296.043 194.017C295.926 194.134 295.768 194.199 295.602 194.199ZM295.602 186.735C295.437 186.735 295.278 186.67 295.161 186.553C295.044 186.436 294.978 186.277 294.978 186.111V182.367C294.978 182.201 295.044 182.043 295.161 181.926C295.278 181.809 295.437 181.743 295.602 181.743C295.768 181.743 295.926 181.809 296.043 181.926C296.16 182.043 296.226 182.201 296.226 182.367V186.111C296.226 186.277 296.16 186.436 296.043 186.553C295.926 186.67 295.768 186.735 295.602 186.735ZM295.602 179.268C295.437 179.268 295.278 179.203 295.161 179.086C295.044 178.968 294.978 178.81 294.978 178.644V174.9C294.978 174.734 295.044 174.576 295.161 174.459C295.278 174.341 295.437 174.276 295.602 174.276C295.768 174.276 295.926 174.341 296.043 174.459C296.16 174.576 296.226 174.734 296.226 174.9V178.644C296.226 178.81 296.16 178.968 296.043 179.086C295.926 179.203 295.768 179.268 295.602 179.268ZM295.602 171.801C295.437 171.801 295.278 171.736 295.161 171.618C295.044 171.501 294.978 171.343 294.978 171.177V167.433C294.978 167.267 295.044 167.109 295.161 166.991C295.278 166.874 295.437 166.809 295.602 166.809C295.768 166.809 295.926 166.874 296.043 166.991C296.16 167.109 296.226 167.267 296.226 167.433V171.177C296.226 171.343 296.16 171.501 296.043 171.618C295.926 171.736 295.768 171.801 295.602 171.801ZM295.602 164.334C295.437 164.334 295.278 164.268 295.161 164.151C295.044 164.034 294.978 163.876 294.978 163.71V161.838C294.978 161.672 295.044 161.514 295.161 161.397C295.278 161.28 295.437 161.214 295.602 161.214C295.768 161.214 295.926 161.28 296.043 161.397C296.16 161.514 296.226 161.672 296.226 161.838V163.71C296.226 163.876 296.16 164.034 296.043 164.151C295.926 164.268 295.768 164.334 295.602 164.334ZM50.7435 279.585C44.2001 279.583 37.7698 277.879 32.0847 274.639C26.3996 271.399 21.6555 266.736 18.3186 261.107C14.9817 255.479 13.167 249.079 13.0529 242.536C12.9387 235.994 14.529 229.534 17.6675 223.793C17.747 223.648 17.8809 223.54 18.0397 223.493C18.1184 223.47 18.2008 223.463 18.2823 223.472C18.3638 223.481 18.4428 223.505 18.5147 223.545C18.5866 223.584 18.6501 223.637 18.7015 223.701C18.7529 223.765 18.7912 223.838 18.8142 223.917C18.8372 223.996 18.8446 224.078 18.8357 224.16C18.8269 224.241 18.8021 224.32 18.7628 224.392C14.4705 232.239 13.2132 241.391 15.2302 250.105C17.2471 258.819 22.3976 266.487 29.7013 271.65C37.005 276.814 45.9521 279.111 54.8399 278.106C63.7276 277.101 71.9356 272.863 77.9017 266.199C83.8679 259.535 87.1756 250.91 87.1955 241.966C87.2154 233.021 83.946 224.382 78.0096 217.692C72.0732 211.001 63.8841 206.727 55.0009 205.682C46.1177 204.637 37.1605 206.895 29.8339 212.026C29.7667 212.073 29.6908 212.107 29.6107 212.124C29.5306 212.142 29.4477 212.144 29.3669 212.13C29.2861 212.116 29.2088 212.086 29.1396 212.042C29.0703 211.998 29.0104 211.94 28.9633 211.873C28.9162 211.806 28.8827 211.73 28.8649 211.65C28.8471 211.57 28.8452 211.487 28.8594 211.406C28.8736 211.325 28.9036 211.248 28.9477 211.179C28.9917 211.11 29.049 211.05 29.1162 211.002C33.9668 207.606 39.5494 205.4 45.4115 204.563C51.2736 203.726 57.2504 204.282 62.8578 206.185C68.4651 208.088 73.5453 211.286 77.6867 215.518C81.8281 219.751 84.9142 224.899 86.6951 230.547C88.476 236.194 88.9015 242.181 87.9373 248.024C86.973 253.867 84.646 259.4 81.1448 264.175C77.6437 268.951 73.0668 272.835 67.785 275.512C62.5032 278.189 56.665 279.585 50.7435 279.585Z" fill="#18753C"/>
<path d="M25.4653 240.643L32.2832 233.825L52.2316 253.773L45.4137 260.591L25.4653 240.643Z" fill="#18753C"/>
<path d="M69.207 223.162L76.0249 229.98L45.415 260.589L38.5972 253.772L69.207 223.162Z" fill="#18753C"/>
<path d="M201.264 316.358C201.132 316.358 201.003 316.316 200.897 316.238C200.79 316.16 200.711 316.05 200.671 315.925L195.398 299.505C195.373 299.427 195.363 299.345 195.37 299.263C195.377 299.182 195.4 299.102 195.437 299.029C195.475 298.956 195.526 298.891 195.589 298.839C195.651 298.786 195.724 298.745 195.802 298.72C195.88 298.695 195.962 298.686 196.044 298.693C196.125 298.7 196.205 298.722 196.278 298.76C196.351 298.797 196.415 298.849 196.468 298.912C196.521 298.974 196.561 299.046 196.586 299.125L201.657 314.948L252.173 298.763L240.462 262.211L189.946 278.396L194.265 291.873C194.315 292.03 194.301 292.202 194.225 292.349C194.15 292.496 194.018 292.607 193.861 292.658C193.703 292.708 193.532 292.694 193.385 292.618C193.237 292.542 193.126 292.411 193.076 292.253L188.567 278.184C188.517 278.026 188.531 277.856 188.607 277.709C188.682 277.562 188.813 277.451 188.97 277.4L240.674 260.831C240.752 260.806 240.835 260.797 240.917 260.803C240.999 260.81 241.079 260.833 241.152 260.871C241.225 260.908 241.29 260.96 241.343 261.023C241.396 261.086 241.436 261.159 241.46 261.237L253.552 298.978C253.602 299.136 253.587 299.307 253.511 299.453C253.435 299.6 253.304 299.711 253.146 299.761C199.08 317.088 201.404 316.358 201.264 316.358Z" fill="#CE0500"/>
<path d="M216.903 294.375L188.851 278.536C188.78 278.495 188.717 278.441 188.667 278.376C188.617 278.31 188.58 278.236 188.559 278.157C188.537 278.077 188.531 277.994 188.542 277.913C188.553 277.831 188.579 277.753 188.62 277.681C188.661 277.61 188.716 277.548 188.781 277.497C188.846 277.447 188.92 277.41 189 277.389C189.079 277.367 189.162 277.362 189.244 277.372C189.325 277.383 189.404 277.409 189.475 277.45L217.524 293.286C218.311 293.731 219.18 294.008 220.079 294.1C220.978 294.192 221.886 294.098 222.746 293.822C223.606 293.547 224.4 293.096 225.078 292.499C225.756 291.902 226.303 291.172 226.686 290.353L240.3 261.175C240.375 261.033 240.501 260.926 240.653 260.875C240.805 260.824 240.97 260.833 241.115 260.901C241.26 260.969 241.374 261.09 241.432 261.239C241.491 261.388 241.49 261.554 241.429 261.702L227.806 290.881C227.351 291.855 226.7 292.724 225.893 293.435C225.087 294.146 224.142 294.682 223.118 295.01C222.094 295.338 221.014 295.451 219.944 295.342C218.875 295.233 217.839 294.904 216.903 294.375Z" fill="#CE0500"/>
<path d="M252.956 299.789C252.703 299.789 254.301 300.641 229.141 286.434C229.07 286.393 229.007 286.339 228.957 286.274C228.907 286.208 228.87 286.134 228.849 286.055C228.827 285.975 228.822 285.892 228.832 285.811C228.843 285.729 228.869 285.651 228.91 285.579C228.951 285.508 229.006 285.445 229.071 285.395C229.136 285.345 229.211 285.308 229.29 285.287C229.369 285.265 229.452 285.26 229.534 285.27C229.615 285.281 229.694 285.307 229.765 285.348L253.265 298.619C253.386 298.687 253.482 298.793 253.537 298.92C253.591 299.048 253.602 299.19 253.566 299.325C253.531 299.459 253.451 299.578 253.341 299.662C253.23 299.746 253.095 299.791 252.956 299.789ZM201.264 316.356C201.159 316.355 201.056 316.329 200.965 316.278C200.873 316.228 200.795 316.155 200.739 316.067C200.683 315.979 200.65 315.878 200.643 315.773C200.636 315.669 200.655 315.564 200.699 315.469L212.117 291.003C212.189 290.856 212.316 290.743 212.47 290.689C212.624 290.635 212.794 290.644 212.942 290.713C213.09 290.783 213.204 290.908 213.261 291.061C213.318 291.214 213.313 291.384 213.246 291.533L201.829 315.997C201.778 316.104 201.698 316.195 201.598 316.258C201.498 316.322 201.382 316.356 201.264 316.356Z" fill="#CE0500"/>
<path d="M75.2384 143.374H17.9546C16.6451 143.352 15.3968 142.817 14.4786 141.883C13.5605 140.949 13.0461 139.691 13.0463 138.382V105.125C13.0463 103.801 13.5723 102.531 14.5086 101.595C15.4449 100.658 16.7147 100.132 18.0389 100.132H63.0128C64.3369 100.132 65.6068 100.658 66.543 101.595C67.4793 102.531 68.0053 103.801 68.0053 105.125V133.183L75.7189 142.351C75.7949 142.442 75.8432 142.553 75.8584 142.671C75.8735 142.789 75.8547 142.908 75.8043 143.016C75.7538 143.123 75.6738 143.214 75.5736 143.277C75.4733 143.341 75.3571 143.375 75.2384 143.374ZM18.0357 142.126H73.8904L66.9007 133.814C66.8059 133.701 66.7539 133.558 66.7541 133.411V105.125C66.7541 104.132 66.3596 103.179 65.6574 102.477C64.9551 101.775 64.0027 101.38 63.0096 101.38H18.0357C17.0426 101.38 16.0902 101.775 15.388 102.477C14.6858 103.179 14.2913 104.132 14.2913 105.125V138.385C14.2921 139.377 14.687 140.329 15.3891 141.031C16.0912 141.732 17.0432 142.126 18.0357 142.126Z" fill="#000091"/>
<path d="M56.9405 113.893H24.5449C24.3793 113.893 24.2206 113.827 24.1036 113.71C23.9865 113.593 23.9208 113.435 23.9208 113.269C23.9208 113.104 23.9865 112.945 24.1036 112.828C24.2206 112.711 24.3793 112.645 24.5449 112.645H56.9405C57.106 112.645 57.2648 112.711 57.3818 112.828C57.4989 112.945 57.5646 113.104 57.5646 113.269C57.5646 113.435 57.4989 113.593 57.3818 113.71C57.2648 113.827 57.106 113.893 56.9405 113.893ZM56.9405 122.836H24.5449C24.3793 122.836 24.2206 122.77 24.1036 122.653C23.9865 122.536 23.9208 122.378 23.9208 122.212C23.9208 122.047 23.9865 121.888 24.1036 121.771C24.2206 121.654 24.3793 121.588 24.5449 121.588H56.9405C57.106 121.588 57.2648 121.654 57.3818 121.771C57.4989 121.888 57.5646 122.047 57.5646 122.212C57.5646 122.378 57.4989 122.536 57.3818 122.653C57.2648 122.77 57.106 122.836 56.9405 122.836ZM48.2097 131.776H24.5449C24.3793 131.776 24.2206 131.71 24.1036 131.593C23.9865 131.476 23.9208 131.317 23.9208 131.152C23.9208 130.986 23.9865 130.828 24.1036 130.711C24.2206 130.594 24.3793 130.528 24.5449 130.528H48.2097C48.3753 130.528 48.534 130.594 48.651 130.711C48.7681 130.828 48.8338 130.986 48.8338 131.152C48.8338 131.317 48.7681 131.476 48.651 131.593C48.534 131.71 48.3753 131.776 48.2097 131.776Z" fill="#000091"/>
</svg>
