<svg width="250" height="250" viewBox="0 0 250 250" fill="none" xmlns="http://www.w3.org/2000/svg">
<path d="M30.3449 141.972C29.2841 141.972 28.2471 141.658 27.3651 141.068C26.4831 140.479 25.7957 139.641 25.3897 138.661C24.9838 137.681 24.8776 136.603 25.0845 135.562C25.2915 134.522 25.8023 133.566 26.5524 132.816C27.3024 132.066 28.2581 131.555 29.2985 131.348C30.3389 131.141 31.4173 131.248 32.3974 131.654C33.3774 132.06 34.2151 132.747 34.8044 133.629C35.3937 134.511 35.7083 135.548 35.7083 136.609C35.7065 138.031 35.1408 139.394 34.1354 140.399C33.1299 141.405 31.7668 141.97 30.3449 141.972ZM30.3449 132.171C29.4672 132.171 28.6093 132.431 27.8795 132.919C27.1498 133.407 26.581 134.1 26.2452 134.911C25.9093 135.721 25.8214 136.614 25.9926 137.474C26.1639 138.335 26.5865 139.126 27.2071 139.747C27.8277 140.367 28.6184 140.79 29.4792 140.961C30.34 141.132 31.2322 141.044 32.043 140.708C32.8539 140.373 33.5469 139.804 34.0345 139.074C34.5221 138.344 34.7824 137.486 34.7824 136.609C34.7799 135.433 34.3115 134.306 33.4797 133.475C32.6479 132.644 31.5206 132.177 30.3449 132.176V132.171ZM135.917 46.4259C135.824 46.4256 135.733 46.3973 135.656 46.3446C135.579 46.292 135.52 46.2175 135.487 46.1308C135.453 46.0441 135.446 45.9492 135.467 45.8586C135.488 45.7679 135.536 45.6857 135.604 45.6226L144.444 37.4999C144.489 37.4588 144.542 37.4268 144.599 37.4059C144.656 37.385 144.717 37.3756 144.778 37.3782C144.839 37.3807 144.898 37.3953 144.953 37.4209C145.009 37.4466 145.058 37.4829 145.1 37.5277C145.141 37.5726 145.173 37.6251 145.194 37.6823C145.214 37.7394 145.224 37.8002 145.221 37.861C145.219 37.9219 145.204 37.9816 145.179 38.0368C145.153 38.092 145.117 38.1416 145.072 38.1828L136.229 46.2962C136.145 46.3773 136.033 46.4236 135.917 46.4259Z" fill="#FCC63A"/>
<path d="M144.394 46.7824C144.329 46.7822 144.266 46.7687 144.208 46.7428C144.149 46.7169 144.096 46.6792 144.053 46.6319L135.931 37.7986C135.851 37.7075 135.81 37.5889 135.816 37.468C135.823 37.3471 135.877 37.2337 135.966 37.152C136.055 37.0702 136.173 37.0267 136.294 37.0308C136.415 37.0348 136.53 37.0861 136.613 37.1736L144.734 46.0046C144.795 46.0707 144.836 46.1533 144.851 46.2422C144.866 46.331 144.855 46.4224 144.818 46.505C144.782 46.5876 144.723 46.6578 144.647 46.7071C144.572 46.7564 144.484 46.7825 144.394 46.7824ZM221.164 154.373H209.491C209.41 154.373 209.33 154.351 209.259 154.31C209.189 154.27 209.131 154.211 209.09 154.141C209.05 154.071 209.028 153.991 209.028 153.91C209.028 153.828 209.05 153.749 209.09 153.678L214.926 143.569C214.966 143.499 215.025 143.44 215.095 143.399C215.166 143.358 215.246 143.337 215.328 143.337C215.409 143.337 215.489 143.358 215.56 143.399C215.63 143.44 215.689 143.499 215.729 143.569L221.565 153.678C221.605 153.749 221.627 153.828 221.627 153.91C221.627 153.991 221.606 154.071 221.565 154.141C221.524 154.211 221.466 154.27 221.396 154.31C221.325 154.351 221.246 154.373 221.164 154.373ZM210.285 153.447H220.37L215.336 144.727L210.285 153.447Z" fill="#FCC63A"/>
<path d="M183.361 125.405C183.361 157.398 157.435 183.766 125 183.766C109.961 183.784 95.4997 177.977 84.6505 167.562C78.9494 162.12 74.4133 155.577 71.3171 148.329C68.221 141.081 66.6294 133.28 66.6389 125.398C66.6389 93.1643 92.7662 67.0347 125 67.0347C157.234 67.0347 183.361 93.1712 183.361 125.405Z" fill="white"/>
<path d="M125 187.211C90.8403 187.211 63.1945 159.567 63.1945 125.405C63.1944 115.32 65.6578 105.387 70.3704 96.4699C70.4278 96.3612 70.526 96.2798 70.6434 96.2435C70.7016 96.2256 70.7627 96.2193 70.8233 96.2249C70.8839 96.2306 70.9427 96.2482 70.9965 96.2766C71.0503 96.305 71.098 96.3437 71.1369 96.3906C71.1757 96.4374 71.2049 96.4915 71.2229 96.5496C71.2408 96.6078 71.2471 96.6689 71.2415 96.7295C71.2358 96.7901 71.2183 96.8489 71.1898 96.9027C66.5473 105.686 64.1205 115.47 64.1204 125.405C64.1204 159.051 91.3472 186.285 125 186.285C158.653 186.285 185.88 159.056 185.88 125.405C185.88 91.7546 158.653 64.5254 125 64.5254C115.335 64.5197 105.808 66.8175 97.2078 71.2283C88.6079 75.6392 81.1831 82.0361 75.5486 89.8889C75.5152 89.9427 75.471 89.9892 75.4188 90.0253C75.3667 90.0614 75.3076 90.0864 75.2454 90.0988C75.1832 90.1111 75.1191 90.1105 75.0571 90.0971C74.9951 90.0836 74.9365 90.0576 74.885 90.0205C74.8335 89.9835 74.7902 89.9362 74.7577 89.8818C74.7252 89.8273 74.7042 89.7667 74.6961 89.7038C74.688 89.6408 74.6929 89.5769 74.7106 89.516C74.7282 89.455 74.7582 89.3984 74.7986 89.3495C80.5181 81.377 88.0555 74.8826 96.7858 70.4045C105.516 65.9264 115.188 63.5936 125 63.5995C159.16 63.5995 186.806 91.2407 186.806 125.405C186.806 159.569 159.164 187.211 125 187.211Z" fill="#E1000F"/>
<path d="M165.44 167.484C143.546 188.843 107.569 189.516 84.6528 167.572C86.2731 163.1 90.5602 151.488 93.993 148.211C98.8102 143.609 111.574 140.84 118.056 140.222C121.38 139.903 123.583 139.812 123.583 139.812H125.588C127.139 139.875 130.317 140.127 131.532 140.275C136.87 140.877 152.894 144.192 156.59 148.069C156.681 148.157 156.891 148.41 157.005 148.556C160.648 153.088 165.37 167.484 165.44 167.484Z" fill="#297254"/>
<path d="M165.437 167.949C165.337 167.949 165.239 167.916 165.159 167.855C165.078 167.794 165.02 167.708 164.993 167.611C164.868 167.231 159.773 152.333 156.278 148.412C153.285 144.919 136.903 141.236 131.065 140.683C130.942 140.671 130.829 140.611 130.75 140.516C130.672 140.421 130.634 140.299 130.646 140.176C130.657 140.053 130.717 139.94 130.813 139.861C130.908 139.783 131.03 139.745 131.153 139.757C136.451 140.262 153.558 143.81 156.975 147.796C158.505 149.512 160.472 153.326 162.815 159.125C164.287 162.766 165.9 167.266 165.9 167.481C165.901 167.543 165.89 167.603 165.867 167.66C165.844 167.717 165.81 167.768 165.766 167.812C165.723 167.855 165.672 167.89 165.616 167.913C165.559 167.937 165.499 167.949 165.437 167.949ZM84.6504 168.032C84.5759 168.033 84.5024 168.015 84.4362 167.981C84.37 167.947 84.3129 167.897 84.27 167.836C84.227 167.775 84.1994 167.705 84.1895 167.631C84.1796 167.557 84.1876 167.482 84.2129 167.412C88.0717 156.764 91.2546 150.183 93.6713 147.875C95.375 146.255 99.8704 143.181 110.852 140.893C110.972 140.868 111.098 140.892 111.2 140.959C111.303 141.027 111.375 141.132 111.4 141.252C111.426 141.373 111.402 141.498 111.335 141.601C111.267 141.704 111.162 141.776 111.042 141.801C99.8842 144.116 95.625 147.292 94.3125 148.544C91.9977 150.755 88.8935 157.208 85.0856 167.727C85.0533 167.816 84.9942 167.894 84.9163 167.948C84.8384 168.003 84.7456 168.032 84.6504 168.032ZM94.6759 175.736C94.611 175.736 94.5468 175.723 94.4874 175.697C94.4279 175.671 94.3747 175.633 94.331 175.585C94.2874 175.537 94.2543 175.48 94.234 175.418C94.2136 175.357 94.2065 175.291 94.2129 175.227L95.6018 161.431C95.6079 161.37 95.6259 161.311 95.6548 161.257C95.6837 161.203 95.7229 161.155 95.7702 161.117C95.8175 161.078 95.8719 161.049 95.9304 161.031C95.9889 161.014 96.0503 161.008 96.1111 161.014C96.1719 161.02 96.2309 161.038 96.2847 161.067C96.3386 161.096 96.3862 161.135 96.4249 161.182C96.4636 161.229 96.4926 161.284 96.5102 161.342C96.5279 161.401 96.5338 161.462 96.5278 161.523L95.1389 175.319C95.1274 175.434 95.0735 175.54 94.9879 175.617C94.9023 175.694 94.7911 175.737 94.6759 175.736ZM154.542 176.211C154.426 176.211 154.315 176.169 154.23 176.092C154.144 176.015 154.09 175.909 154.079 175.794L152.653 161.523C152.64 161.4 152.677 161.278 152.756 161.182C152.834 161.087 152.947 161.026 153.069 161.014C153.192 161.002 153.315 161.039 153.41 161.117C153.506 161.195 153.566 161.308 153.579 161.431L155.002 175.694C155.01 175.759 155.004 175.825 154.984 175.887C154.964 175.95 154.931 176.007 154.888 176.056C154.844 176.105 154.791 176.144 154.731 176.17C154.672 176.197 154.607 176.211 154.542 176.211Z" fill="#000091"/>
<path d="M131.535 139.933C131.535 148.405 117.625 148.648 117.625 139.933L118.463 125.893H130.697L131.535 139.933Z" fill="white"/>
<path d="M117.162 139.933C117.161 139.924 117.161 139.914 117.162 139.905L117.542 133.565C117.549 133.442 117.605 133.327 117.697 133.246C117.789 133.164 117.91 133.122 118.032 133.13C118.155 133.137 118.27 133.193 118.352 133.285C118.433 133.377 118.475 133.498 118.468 133.62L118.09 139.947C118.09 143.718 120.984 145.914 124.509 145.914C129.012 145.914 131.067 142.824 131.074 139.947L130.234 125.926C130.226 125.803 130.268 125.682 130.35 125.59C130.431 125.498 130.546 125.443 130.669 125.435C130.792 125.428 130.912 125.469 131.004 125.551C131.097 125.633 131.152 125.748 131.16 125.87C132.174 142.884 131.998 139.5 131.998 139.937C131.998 148.988 117.162 149.306 117.162 139.933Z" fill="#000091"/>
<path d="M142.569 111.41C145.287 110.537 146.947 113.625 145.458 116.773C144.236 119.359 141.854 120.067 140.632 119.303L142.569 111.41ZM108.53 119.303C107.308 120.067 104.924 119.356 103.704 116.773C102.204 113.604 103.896 110.544 106.59 111.41L108.53 119.303Z" fill="white"/>
<path d="M141.736 120.056C141.261 120.064 140.794 119.939 140.387 119.694C140.333 119.663 140.286 119.621 140.249 119.572C140.212 119.522 140.186 119.466 140.171 119.405C140.156 119.345 140.154 119.283 140.163 119.222C140.173 119.161 140.195 119.102 140.228 119.049C140.261 118.997 140.304 118.952 140.355 118.916C140.405 118.88 140.463 118.855 140.523 118.842C140.584 118.829 140.646 118.829 140.707 118.84C140.768 118.852 140.826 118.875 140.877 118.91C141.117 119.036 141.381 119.112 141.651 119.131C141.922 119.15 142.194 119.112 142.449 119.021C145.023 118.266 146.5 114.211 144.882 112.363C144.347 111.755 143.576 111.572 142.711 111.85C142.594 111.887 142.467 111.876 142.357 111.82C142.248 111.764 142.166 111.667 142.128 111.55C142.091 111.433 142.102 111.306 142.158 111.197C142.214 111.087 142.311 111.005 142.428 110.968C143.648 110.576 144.796 110.863 145.579 111.755C147.917 114.431 145.37 120.053 141.736 120.056ZM107.426 120.056C103.801 120.056 101.22 114.454 103.581 111.759C104.366 110.866 105.514 110.576 106.731 110.968C106.848 111.005 106.946 111.087 107.002 111.197C107.058 111.306 107.069 111.433 107.031 111.55C106.994 111.667 106.911 111.764 106.802 111.82C106.693 111.876 106.566 111.887 106.449 111.85C105.586 111.572 104.815 111.757 104.278 112.37C103.583 113.162 103.266 114.768 104.12 116.574C105.259 118.984 107.361 119.488 108.287 118.91C108.391 118.849 108.515 118.831 108.631 118.86C108.748 118.888 108.85 118.962 108.913 119.064C108.977 119.166 108.999 119.289 108.974 119.407C108.948 119.524 108.878 119.628 108.778 119.694C108.37 119.939 107.901 120.064 107.426 120.056Z" fill="#000091"/>
<path d="M143.208 101.447C143.208 117.623 136.562 130.736 124.581 130.736C112.6 130.736 105.951 117.623 105.951 101.447C105.951 101.447 109.694 89.8264 123.975 89.8264C138.255 89.8264 143.208 101.447 143.208 101.447Z" fill="white"/>
<path d="M124.581 131.199C118.72 131.199 113.808 128.153 110.375 122.403C107.225 117.116 105.488 109.671 105.488 101.456C105.488 101.407 105.496 101.359 105.512 101.312C105.551 101.19 106.509 98.2754 109.271 95.3287C111.806 92.5926 116.435 89.3634 123.975 89.3634C131.514 89.3634 136.449 92.5926 139.269 95.3032C142.324 98.2384 143.583 101.141 143.634 101.264C143.659 101.322 143.671 101.384 143.671 101.447C143.671 109.669 141.937 117.106 138.785 122.393C135.352 128.153 130.44 131.199 124.581 131.199ZM106.414 101.523C106.426 109.551 108.113 116.801 111.171 121.919C114.428 127.384 119.065 130.273 124.581 130.273C130.097 130.273 134.734 127.384 137.991 121.919C141.044 116.796 142.731 109.562 142.745 101.549C141.705 99.4507 140.301 97.5534 138.6 95.9444C135.905 93.3657 131.192 90.2916 123.975 90.2916C118.201 90.2916 113.491 92.1875 109.975 95.9259C108.435 97.5424 107.226 99.4436 106.414 101.523Z" fill="#000091"/>
<path d="M124.618 117.451C124.573 117.337 124.576 117.21 124.625 117.098C124.674 116.985 124.766 116.897 124.88 116.852C124.88 116.852 125.704 116.512 125.961 115.81C126.125 115.363 125.465 114.303 124.968 113.727C124.921 113.682 124.884 113.629 124.859 113.569C124.835 113.51 124.823 113.446 124.824 113.382C124.825 113.317 124.84 113.254 124.867 113.196C124.895 113.137 124.934 113.085 124.982 113.043C125.031 113 125.088 112.969 125.149 112.95C125.21 112.93 125.275 112.924 125.339 112.932C125.403 112.939 125.465 112.959 125.521 112.992C125.576 113.024 125.624 113.068 125.662 113.12C125.928 113.426 127.234 115.012 126.819 116.13C126.405 117.248 125.255 117.697 125.199 117.715C125.087 117.754 124.964 117.749 124.856 117.699C124.748 117.65 124.663 117.562 124.618 117.451ZM117.289 112.715C117.17 112.715 117.056 112.67 116.97 112.588C116.884 112.506 116.832 112.394 116.826 112.275L116.743 110.634C116.74 110.573 116.749 110.513 116.769 110.455C116.789 110.398 116.821 110.345 116.861 110.3C116.902 110.255 116.951 110.218 117.006 110.192C117.061 110.165 117.121 110.15 117.182 110.147C117.243 110.144 117.303 110.153 117.361 110.173C117.418 110.193 117.471 110.225 117.516 110.265C117.561 110.306 117.598 110.355 117.624 110.41C117.651 110.465 117.666 110.525 117.669 110.586L117.755 112.229C117.758 112.292 117.748 112.355 117.726 112.414C117.704 112.473 117.67 112.527 117.627 112.572C117.583 112.618 117.531 112.654 117.473 112.679C117.415 112.703 117.352 112.716 117.289 112.715ZM115.461 108.213C115.356 108.214 115.255 108.18 115.172 108.116C115.09 108.052 115.032 107.962 115.007 107.861C114.982 107.759 114.992 107.653 115.035 107.558C115.079 107.463 115.153 107.386 115.245 107.338C116.011 106.936 116.892 106.808 117.741 106.977C117.802 106.988 117.861 107.011 117.914 107.045C117.966 107.079 118.011 107.124 118.046 107.176C118.08 107.228 118.104 107.286 118.116 107.348C118.127 107.409 118.126 107.473 118.112 107.534C118.099 107.595 118.073 107.652 118.036 107.703C118 107.754 117.953 107.797 117.9 107.829C117.846 107.861 117.787 107.883 117.725 107.891C117.663 107.9 117.6 107.896 117.539 107.88C116.904 107.756 116.245 107.855 115.674 108.16C115.608 108.194 115.535 108.213 115.461 108.213ZM131.873 112.715C131.81 112.715 131.748 112.703 131.69 112.678C131.632 112.653 131.58 112.617 131.537 112.572C131.494 112.526 131.46 112.472 131.438 112.413C131.416 112.355 131.407 112.292 131.41 112.229L131.493 110.586C131.5 110.463 131.554 110.348 131.646 110.265C131.737 110.183 131.858 110.141 131.98 110.147C132.103 110.153 132.218 110.208 132.301 110.3C132.383 110.391 132.425 110.511 132.419 110.634L132.333 112.275C132.327 112.394 132.276 112.505 132.191 112.587C132.105 112.669 131.991 112.715 131.873 112.715ZM133.701 108.208C133.627 108.207 133.554 108.189 133.488 108.155C132.916 107.854 132.257 107.759 131.623 107.884C131.505 107.907 131.382 107.883 131.282 107.817C131.181 107.751 131.11 107.649 131.083 107.532C131.057 107.414 131.077 107.291 131.14 107.189C131.202 107.086 131.303 107.012 131.419 106.981C132.267 106.811 133.147 106.935 133.914 107.333C134.007 107.381 134.081 107.458 134.124 107.553C134.168 107.647 134.178 107.754 134.153 107.855C134.128 107.956 134.071 108.046 133.989 108.11C133.907 108.174 133.805 108.209 133.701 108.208ZM122.685 123.53C122.624 123.509 122.569 123.476 122.521 123.433C122.474 123.39 122.436 123.337 122.41 123.278C122.385 123.22 122.371 123.156 122.371 123.092C122.371 123.028 122.384 122.965 122.41 122.906C122.436 122.847 122.473 122.794 122.521 122.751C122.568 122.708 122.624 122.674 122.684 122.654C122.745 122.633 122.809 122.625 122.873 122.63C122.937 122.636 122.999 122.654 123.056 122.685C124.38 123.273 126.625 123.104 127.336 122.549C127.432 122.473 127.555 122.438 127.677 122.453C127.799 122.468 127.91 122.531 127.986 122.627C128.062 122.724 128.096 122.847 128.081 122.969C128.067 123.091 128.004 123.202 127.907 123.278C126.907 124.06 124.285 124.245 122.685 123.53Z" fill="#000091"/>
<path d="M117.869 96.1416L117.445 95.9222L117.206 96.335L117.206 96.3351L117.206 96.3352L117.206 96.3353L117.205 96.3371L117.2 96.3456L117.179 96.3815C117.159 96.4137 117.13 96.4619 117.092 96.5241C117.015 96.6487 116.9 96.8294 116.752 97.0505C116.456 97.4934 116.026 98.0959 115.496 98.7339C114.422 100.027 112.988 101.397 111.452 101.948C110.237 102.383 109.276 102.896 108.545 103.607C107.808 104.325 107.338 105.213 107.054 106.338C106.773 107.452 106.672 108.81 106.671 110.483C106.671 111.628 106.718 112.936 106.791 114.433C106.302 113.508 105.681 112.303 105.015 110.932C103.481 107.774 101.718 103.761 100.755 100.268L100.753 100.252C100.749 100.22 100.743 100.171 100.736 100.107C100.721 99.9777 100.702 99.7868 100.683 99.5431C100.645 99.0555 100.609 98.3578 100.616 97.5235C100.631 95.851 100.819 93.649 101.506 91.495C102.193 89.3423 103.367 87.2649 105.337 85.7962C107.3 84.3322 110.108 83.4327 114.139 83.7301L114.363 83.7466L114.524 83.59C118.6 79.6282 122.413 78.1008 125.979 77.9508C129.561 77.8001 132.963 79.0362 136.218 80.7384C137.844 81.5887 139.421 82.5491 140.96 83.502C141.16 83.6256 141.359 83.749 141.557 83.8721C142.884 84.6954 144.184 85.5024 145.446 86.2022C148.106 87.677 150.713 88.7471 153.201 88.4522C153.125 90.3679 152.687 93.2686 151.565 95.8944C150.32 98.8105 148.282 101.282 145.064 101.831L144.833 101.871L144.715 102.074C143.431 104.295 142.623 106.634 142.117 108.639C141.984 107.774 141.814 106.968 141.634 106.248C141.373 105.2 141.09 104.33 140.872 103.72C140.764 103.415 140.671 103.175 140.605 103.01C140.572 102.928 140.545 102.864 140.527 102.82L140.506 102.77L140.5 102.756L140.498 102.752L140.498 102.751L140.497 102.751C140.497 102.751 140.497 102.751 140.039 102.951L140.497 102.751L140.366 102.451H140.039C132.645 102.451 125.31 99.9948 117.869 96.1416Z" fill="#000091" stroke="#000091"/>
<path d="M62.6435 155.961H59.8657C59.7429 155.961 59.6252 155.912 59.5383 155.825C59.4515 155.738 59.4027 155.62 59.4027 155.498C59.4027 155.375 59.4515 155.257 59.5383 155.17C59.6252 155.083 59.7429 155.035 59.8657 155.035H62.6435C62.7663 155.035 62.884 155.083 62.9708 155.17C63.0577 155.257 63.1064 155.375 63.1064 155.498C63.1064 155.62 63.0577 155.738 62.9708 155.825C62.884 155.912 62.7663 155.961 62.6435 155.961ZM57.0879 155.961H54.3102C54.1874 155.961 54.0696 155.912 53.9828 155.825C53.896 155.738 53.8472 155.62 53.8472 155.498C53.8472 155.375 53.896 155.257 53.9828 155.17C54.0696 155.083 54.1874 155.035 54.3102 155.035H57.0879C57.2107 155.035 57.3285 155.083 57.4153 155.17C57.5021 155.257 57.5509 155.375 57.5509 155.498C57.5509 155.62 57.5021 155.738 57.4153 155.825C57.3285 155.912 57.2107 155.961 57.0879 155.961ZM51.5324 155.961H48.7546C48.6318 155.961 48.5141 155.912 48.4272 155.825C48.3404 155.738 48.2916 155.62 48.2916 155.498C48.2916 155.375 48.3404 155.257 48.4272 155.17C48.5141 155.083 48.6318 155.035 48.7546 155.035H51.5324C51.6552 155.035 51.7729 155.083 51.8597 155.17C51.9466 155.257 51.9953 155.375 51.9953 155.498C51.9953 155.62 51.9466 155.738 51.8597 155.825C51.7729 155.912 51.6552 155.961 51.5324 155.961ZM45.9768 155.961H45.1967C45.0739 155.961 44.9562 155.912 44.8694 155.825C44.7825 155.738 44.7338 155.62 44.7338 155.498V153.5C44.7338 153.377 44.7825 153.259 44.8694 153.173C44.9562 153.086 45.0739 153.037 45.1967 153.037C45.3195 153.037 45.4373 153.086 45.5241 153.173C45.6109 153.259 45.6597 153.377 45.6597 153.5V155.035H45.9768C46.0996 155.035 46.2174 155.083 46.3042 155.17C46.391 155.257 46.4398 155.375 46.4398 155.498C46.4398 155.62 46.391 155.738 46.3042 155.825C46.2174 155.912 46.0996 155.961 45.9768 155.961ZM45.1967 151.185C45.0739 151.185 44.9562 151.136 44.8694 151.05C44.7825 150.963 44.7338 150.845 44.7338 150.722V147.944C44.7338 147.822 44.7825 147.704 44.8694 147.617C44.9562 147.53 45.0739 147.481 45.1967 147.481C45.3195 147.481 45.4373 147.53 45.5241 147.617C45.6109 147.704 45.6597 147.822 45.6597 147.944V150.722C45.6597 150.845 45.6109 150.963 45.5241 151.05C45.4373 151.136 45.3195 151.185 45.1967 151.185ZM45.1967 145.63C45.0739 145.63 44.9562 145.581 44.8694 145.494C44.7825 145.407 44.7338 145.289 44.7338 145.167V142.389C44.7338 142.266 44.7825 142.148 44.8694 142.061C44.9562 141.975 45.0739 141.926 45.1967 141.926C45.3195 141.926 45.4373 141.975 45.5241 142.061C45.6109 142.148 45.6597 142.266 45.6597 142.389V145.167C45.6597 145.289 45.6109 145.407 45.5241 145.494C45.4373 145.581 45.3195 145.63 45.1967 145.63ZM45.1967 140.074C45.0739 140.074 44.9562 140.025 44.8694 139.938C44.7825 139.852 44.7338 139.734 44.7338 139.611V136.833C44.7338 136.711 44.7825 136.593 44.8694 136.506C44.9562 136.419 45.0739 136.37 45.1967 136.37C45.3195 136.37 45.4373 136.419 45.5241 136.506C45.6109 136.593 45.6597 136.711 45.6597 136.833V139.611C45.6597 139.734 45.6109 139.852 45.5241 139.938C45.4373 140.025 45.3195 140.074 45.1967 140.074ZM45.1967 134.518C45.0739 134.518 44.9562 134.47 44.8694 134.383C44.7825 134.296 44.7338 134.178 44.7338 134.056V131.278C44.7338 131.155 44.7825 131.037 44.8694 130.95C44.9562 130.864 45.0739 130.815 45.1967 130.815C45.3195 130.815 45.4373 130.864 45.5241 130.95C45.6109 131.037 45.6597 131.155 45.6597 131.278V134.056C45.6597 134.178 45.6109 134.296 45.5241 134.383C45.4373 134.47 45.3195 134.518 45.1967 134.518ZM45.1967 128.963C45.0739 128.963 44.9562 128.914 44.8694 128.827C44.7825 128.741 44.7338 128.623 44.7338 128.5V125.722C44.7338 125.599 44.7825 125.482 44.8694 125.395C44.9562 125.308 45.0739 125.259 45.1967 125.259C45.3195 125.259 45.4373 125.308 45.5241 125.395C45.6109 125.482 45.6597 125.599 45.6597 125.722V128.5C45.6597 128.623 45.6109 128.741 45.5241 128.827C45.4373 128.914 45.3195 128.963 45.1967 128.963ZM45.1967 123.407C45.0739 123.407 44.9562 123.359 44.8694 123.272C44.7825 123.185 44.7338 123.067 44.7338 122.944V120.167C44.7338 120.044 44.7825 119.926 44.8694 119.839C44.9562 119.752 45.0739 119.704 45.1967 119.704C45.3195 119.704 45.4373 119.752 45.5241 119.839C45.6109 119.926 45.6597 120.044 45.6597 120.167V122.944C45.6597 123.067 45.6109 123.185 45.5241 123.272C45.4373 123.359 45.3195 123.407 45.1967 123.407ZM45.1967 117.852C45.0739 117.852 44.9562 117.803 44.8694 117.716C44.7825 117.629 44.7338 117.512 44.7338 117.389V114.611C44.7338 114.488 44.7825 114.371 44.8694 114.284C44.9562 114.197 45.0739 114.148 45.1967 114.148C45.3195 114.148 45.4373 114.197 45.5241 114.284C45.6109 114.371 45.6597 114.488 45.6597 114.611V117.389C45.6597 117.512 45.6109 117.629 45.5241 117.716C45.4373 117.803 45.3195 117.852 45.1967 117.852ZM45.1967 112.296C45.0739 112.296 44.9562 112.247 44.8694 112.161C44.7825 112.074 44.7338 111.956 44.7338 111.833V109.056C44.7338 108.933 44.7825 108.815 44.8694 108.728C44.9562 108.641 45.0739 108.593 45.1967 108.593C45.3195 108.593 45.4373 108.641 45.5241 108.728C45.6109 108.815 45.6597 108.933 45.6597 109.056V111.833C45.6597 111.956 45.6109 112.074 45.5241 112.161C45.4373 112.247 45.3195 112.296 45.1967 112.296ZM45.1967 106.741C45.0739 106.741 44.9562 106.692 44.8694 106.605C44.7825 106.518 44.7338 106.401 44.7338 106.278V103.5C44.7338 103.377 44.7825 103.259 44.8694 103.173C44.9562 103.086 45.0739 103.037 45.1967 103.037C45.3195 103.037 45.4373 103.086 45.5241 103.173C45.6109 103.259 45.6597 103.377 45.6597 103.5V106.278C45.6597 106.401 45.6109 106.518 45.5241 106.605C45.4373 106.692 45.3195 106.741 45.1967 106.741ZM45.1967 101.185C45.0739 101.185 44.9562 101.136 44.8694 101.05C44.7825 100.963 44.7338 100.845 44.7338 100.722V97.9444C44.7338 97.8216 44.7825 97.7039 44.8694 97.617C44.9562 97.5302 45.0739 97.4814 45.1967 97.4814C45.3195 97.4814 45.4373 97.5302 45.5241 97.617C45.6109 97.7039 45.6597 97.8216 45.6597 97.9444V100.722C45.6597 100.845 45.6109 100.963 45.5241 101.05C45.4373 101.136 45.3195 101.185 45.1967 101.185ZM45.1967 95.6296C45.0739 95.6296 44.9562 95.5808 44.8694 95.494C44.7825 95.4072 44.7338 95.2894 44.7338 95.1666V92.3889C44.7338 92.2661 44.7825 92.1483 44.8694 92.0615C44.9562 91.9747 45.0739 91.9259 45.1967 91.9259C45.3195 91.9259 45.4373 91.9747 45.5241 92.0615C45.6109 92.1483 45.6597 92.2661 45.6597 92.3889V95.1666C45.6597 95.2894 45.6109 95.4072 45.5241 95.494C45.4373 95.5808 45.3195 95.6296 45.1967 95.6296ZM45.1967 90.074C45.0739 90.074 44.9562 90.0253 44.8694 89.9384C44.7825 89.8516 44.7338 89.7339 44.7338 89.6111V86.8333C44.7338 86.7105 44.7825 86.5928 44.8694 86.5059C44.9562 86.4191 45.0739 86.3703 45.1967 86.3703C45.3195 86.3703 45.4373 86.4191 45.5241 86.5059C45.6109 86.5928 45.6597 86.7105 45.6597 86.8333V89.6111C45.6597 89.7339 45.6109 89.8516 45.5241 89.9384C45.4373 90.0253 45.3195 90.074 45.1967 90.074ZM45.1967 84.5185C45.0739 84.5185 44.9562 84.4697 44.8694 84.3829C44.7825 84.2961 44.7338 84.1783 44.7338 84.0555V81.2777C44.7338 81.155 44.7825 81.0372 44.8694 80.9504C44.9562 80.8636 45.0739 80.8148 45.1967 80.8148C45.3195 80.8148 45.4373 80.8636 45.5241 80.9504C45.6109 81.0372 45.6597 81.155 45.6597 81.2777V84.0555C45.6597 84.1783 45.6109 84.2961 45.5241 84.3829C45.4373 84.4697 45.3195 84.5185 45.1967 84.5185ZM45.1967 78.9629C45.0739 78.9629 44.9562 78.9142 44.8694 78.8273C44.7825 78.7405 44.7338 78.6228 44.7338 78.5V75.7222C44.7338 75.5994 44.7825 75.4817 44.8694 75.3948C44.9562 75.308 45.0739 75.2592 45.1967 75.2592C45.3195 75.2592 45.4373 75.308 45.5241 75.3948C45.6109 75.4817 45.6597 75.5994 45.6597 75.7222V78.5C45.6597 78.6228 45.6109 78.7405 45.5241 78.8273C45.4373 78.9142 45.3195 78.9629 45.1967 78.9629ZM45.1967 73.4074C45.0739 73.4074 44.9562 73.3586 44.8694 73.2718C44.7825 73.185 44.7338 73.0672 44.7338 72.9444V70.1666C44.7338 70.0439 44.7825 69.9261 44.8694 69.8393C44.9562 69.7525 45.0739 69.7037 45.1967 69.7037C45.3195 69.7037 45.4373 69.7525 45.5241 69.8393C45.6109 69.9261 45.6597 70.0439 45.6597 70.1666V72.9444C45.6597 73.0672 45.6109 73.185 45.5241 73.2718C45.4373 73.3586 45.3195 73.4074 45.1967 73.4074ZM145.569 216.363H144.812C144.69 216.363 144.572 216.315 144.485 216.228C144.398 216.141 144.35 216.023 144.35 215.9C144.35 215.778 144.398 215.66 144.485 215.573C144.572 215.486 144.69 215.437 144.812 215.437H145.569C145.692 215.437 145.81 215.486 145.897 215.573C145.984 215.66 146.032 215.778 146.032 215.9C146.032 216.023 145.984 216.141 145.897 216.228C145.81 216.315 145.692 216.363 145.569 216.363ZM142.035 216.363H139.257C139.134 216.363 139.016 216.315 138.93 216.228C138.843 216.141 138.794 216.023 138.794 215.9C138.794 215.778 138.843 215.66 138.93 215.573C139.016 215.486 139.134 215.437 139.257 215.437H142.035C142.157 215.437 142.275 215.486 142.362 215.573C142.449 215.66 142.498 215.778 142.498 215.9C142.498 216.023 142.449 216.141 142.362 216.228C142.275 216.315 142.157 216.363 142.035 216.363ZM136.479 216.363H133.701C133.579 216.363 133.461 216.315 133.374 216.228C133.287 216.141 133.238 216.023 133.238 215.9C133.238 215.778 133.287 215.66 133.374 215.573C133.461 215.486 133.579 215.437 133.701 215.437H136.479C136.602 215.437 136.72 215.486 136.806 215.573C136.893 215.66 136.942 215.778 136.942 215.9C136.942 216.023 136.893 216.141 136.806 216.228C136.72 216.315 136.602 216.363 136.479 216.363ZM130.924 216.363H128.146C128.023 216.363 127.905 216.315 127.818 216.228C127.732 216.141 127.683 216.023 127.683 215.9C127.683 215.778 127.732 215.66 127.818 215.573C127.905 215.486 128.023 215.437 128.146 215.437H130.924C131.046 215.437 131.164 215.486 131.251 215.573C131.338 215.66 131.387 215.778 131.387 215.9C131.387 216.023 131.338 216.141 131.251 216.228C131.164 216.315 131.046 216.363 130.924 216.363ZM125.368 216.363H122.887C122.764 216.363 122.646 216.315 122.559 216.228C122.472 216.141 122.424 216.023 122.424 215.9V215.602C122.424 215.493 122.461 215.389 122.531 215.305C122.6 215.222 122.696 215.166 122.803 215.146C122.91 215.127 123.02 215.145 123.114 215.198C123.208 215.252 123.281 215.336 123.319 215.437H125.368C125.491 215.437 125.609 215.486 125.695 215.573C125.782 215.66 125.831 215.778 125.831 215.9C125.831 216.023 125.782 216.141 125.695 216.228C125.609 216.315 125.491 216.363 125.368 216.363ZM122.887 213.287C122.764 213.287 122.646 213.238 122.559 213.151C122.472 213.065 122.424 212.947 122.424 212.824V210.046C122.424 209.923 122.472 209.806 122.559 209.719C122.646 209.632 122.764 209.583 122.887 209.583C123.009 209.583 123.127 209.632 123.214 209.719C123.301 209.806 123.35 209.923 123.35 210.046V212.824C123.35 212.947 123.301 213.065 123.214 213.151C123.127 213.238 123.009 213.287 122.887 213.287ZM122.887 207.731C122.764 207.731 122.646 207.683 122.559 207.596C122.472 207.509 122.424 207.391 122.424 207.268V204.491C122.424 204.368 122.472 204.25 122.559 204.163C122.646 204.077 122.764 204.028 122.887 204.028C123.009 204.028 123.127 204.077 123.214 204.163C123.301 204.25 123.35 204.368 123.35 204.491V207.268C123.35 207.391 123.301 207.509 123.214 207.596C123.127 207.683 123.009 207.731 122.887 207.731ZM122.887 202.176C122.764 202.176 122.646 202.127 122.559 202.04C122.472 201.953 122.424 201.836 122.424 201.713V198.935C122.424 198.812 122.472 198.695 122.559 198.608C122.646 198.521 122.764 198.472 122.887 198.472C123.009 198.472 123.127 198.521 123.214 198.608C123.301 198.695 123.35 198.812 123.35 198.935V201.713C123.35 201.836 123.301 201.953 123.214 202.04C123.127 202.127 123.009 202.176 122.887 202.176ZM122.887 196.62C122.764 196.62 122.646 196.572 122.559 196.485C122.472 196.398 122.424 196.28 122.424 196.157V193.38C122.424 193.257 122.472 193.139 122.559 193.052C122.646 192.965 122.764 192.917 122.887 192.917C123.009 192.917 123.127 192.965 123.214 193.052C123.301 193.139 123.35 193.257 123.35 193.38V196.157C123.35 196.28 123.301 196.398 123.214 196.485C123.127 196.572 123.009 196.62 122.887 196.62ZM122.887 191.065C122.764 191.065 122.646 191.016 122.559 190.929C122.472 190.842 122.424 190.725 122.424 190.602V187.824C122.424 187.701 122.472 187.583 122.559 187.497C122.646 187.41 122.764 187.361 122.887 187.361C123.009 187.361 123.127 187.41 123.214 187.497C123.301 187.583 123.35 187.701 123.35 187.824V190.602C123.35 190.725 123.301 190.842 123.214 190.929C123.127 191.016 123.009 191.065 122.887 191.065ZM122.887 185.509C122.764 185.509 122.646 185.46 122.559 185.374C122.472 185.287 122.424 185.169 122.424 185.046V182.268C122.424 182.146 122.472 182.028 122.559 181.941C122.646 181.854 122.764 181.806 122.887 181.806C123.009 181.806 123.127 181.854 123.214 181.941C123.301 182.028 123.35 182.146 123.35 182.268V185.046C123.35 185.169 123.301 185.287 123.214 185.374C123.127 185.46 123.009 185.509 122.887 185.509Z" fill="#297254"/>
<path d="M18.787 18.1759H93.949C94.362 18.1756 94.7711 18.2567 95.1527 18.4145C95.5344 18.5724 95.8812 18.8039 96.1733 19.0958C96.4655 19.3877 96.6973 19.7344 96.8554 20.1159C97.0135 20.4975 97.0949 20.9064 97.0949 21.3194V62.8634C97.0949 63.2352 97.0217 63.6033 96.8794 63.9468C96.7371 64.2903 96.5286 64.6024 96.2657 64.8652C96.0028 65.1281 95.6907 65.3367 95.3472 65.4789C95.0038 65.6212 94.6356 65.6944 94.2639 65.6944H18.787C17.9533 65.6944 17.1537 65.3632 16.5642 64.7737C15.9747 64.1842 15.6435 63.3846 15.6435 62.5509V21.3194C15.6435 20.4857 15.9747 19.6861 16.5642 19.0966C17.1537 18.5071 17.9533 18.1759 18.787 18.1759Z" fill="#E1000F"/>
<path d="M15.6435 27.6528H97.0949V62.5486C97.0949 63.3823 96.7637 64.1819 96.1742 64.7714C95.5846 65.3609 94.7851 65.6921 93.9514 65.6921H18.787C17.9533 65.6921 17.1537 65.3609 16.5642 64.7714C15.9747 64.1819 15.6435 63.3823 15.6435 62.5486V27.6528Z" fill="#FCC63A"/>
<path d="M22.7986 24.6736C23.5388 24.6736 24.1389 24.0735 24.1389 23.3333C24.1389 22.5931 23.5388 21.993 22.7986 21.993C22.0584 21.993 21.4583 22.5931 21.4583 23.3333C21.4583 24.0735 22.0584 24.6736 22.7986 24.6736Z" fill="white"/>
<path d="M27.8148 24.6736C28.555 24.6736 29.1551 24.0735 29.1551 23.3333C29.1551 22.5931 28.555 21.993 27.8148 21.993C27.0746 21.993 26.4745 22.5931 26.4745 23.3333C26.4745 24.0735 27.0746 24.6736 27.8148 24.6736Z" fill="white"/>
<path d="M32.8333 24.6736C33.5735 24.6736 34.1736 24.0735 34.1736 23.3333C34.1736 22.5931 33.5735 21.993 32.8333 21.993C32.0931 21.993 31.493 22.5931 31.493 23.3333C31.493 24.0735 32.0931 24.6736 32.8333 24.6736Z" fill="white"/>
<path d="M90.2778 24.0162H53.2731C53.1361 24.0227 52.9991 24.0014 52.8705 23.9535C52.7419 23.9055 52.6244 23.832 52.5251 23.7373C52.4258 23.6426 52.3467 23.5288 52.2927 23.4026C52.2387 23.2765 52.2108 23.1407 52.2108 23.0035C52.2108 22.8662 52.2387 22.7304 52.2927 22.6043C52.3467 22.4781 52.4258 22.3643 52.5251 22.2696C52.6244 22.1749 52.7419 22.1014 52.8705 22.0534C52.9991 22.0055 53.1361 21.9842 53.2731 21.9907H90.2778C90.4148 21.9842 90.5518 22.0055 90.6804 22.0534C90.809 22.1014 90.9265 22.1749 91.0258 22.2696C91.1251 22.3643 91.2042 22.4781 91.2582 22.6043C91.3122 22.7304 91.3401 22.8662 91.3401 23.0035C91.3401 23.1407 91.3122 23.2765 91.2582 23.4026C91.2042 23.5288 91.1251 23.6426 91.0258 23.7373C90.9265 23.832 90.809 23.9055 90.6804 23.9535C90.5518 24.0014 90.4148 24.0227 90.2778 24.0162Z" fill="white"/>
<path d="M34.6343 57.8125C41.2821 57.8125 46.6713 52.4233 46.6713 45.7754C46.6713 39.1276 41.2821 33.7384 34.6343 33.7384C27.9864 33.7384 22.5972 39.1276 22.5972 45.7754C22.5972 52.4233 27.9864 57.8125 34.6343 57.8125Z" fill="#297254"/>
<path d="M46.6713 45.7754C46.6738 47.3566 46.3636 48.9226 45.7586 50.3833C45.1536 51.8441 44.2656 53.1708 43.1458 54.287L34.6342 45.7754V33.7384C37.8266 33.7384 40.8883 35.0066 43.1457 37.264C45.4031 39.5214 46.6713 42.583 46.6713 45.7754Z" fill="white"/>
<path d="M34.5023 50.9907C37.4568 50.9907 39.8518 48.5956 39.8518 45.6412C39.8518 42.6867 37.4568 40.2916 34.5023 40.2916C31.5478 40.2916 29.1528 42.6867 29.1528 45.6412C29.1528 48.5956 31.5478 50.9907 34.5023 50.9907Z" fill="#FCC63A"/>
<path d="M53.3935 34.1759H89.956V39.2592H53.3935V34.1759Z" fill="white"/>
<path d="M84.4907 44.4143H54.5023C54.3795 44.4143 54.2617 44.3656 54.1749 44.2787C54.0881 44.1919 54.0393 44.0742 54.0393 43.9514C54.0393 43.8286 54.0881 43.7108 54.1749 43.624C54.2617 43.5372 54.3795 43.4884 54.5023 43.4884H84.4907C84.6135 43.4884 84.7312 43.5372 84.8181 43.624C84.9049 43.7108 84.9537 43.8286 84.9537 43.9514C84.9537 44.0742 84.9049 44.1919 84.8181 44.2787C84.7312 44.3656 84.6135 44.4143 84.4907 44.4143ZM84.4907 50.0208H54.5023C54.3795 50.0208 54.2617 49.972 54.1749 49.8852C54.0881 49.7984 54.0393 49.6806 54.0393 49.5578C54.0393 49.4351 54.0881 49.3173 54.1749 49.2305C54.2617 49.1437 54.3795 49.0949 54.5023 49.0949H84.4907C84.6135 49.0949 84.7312 49.1437 84.8181 49.2305C84.9049 49.3173 84.9537 49.4351 84.9537 49.5578C84.9537 49.6806 84.9049 49.7984 84.8181 49.8852C84.7312 49.972 84.6135 50.0208 84.4907 50.0208ZM84.4907 55.625H54.5023C54.3795 55.625 54.2617 55.5762 54.1749 55.4894C54.0881 55.4026 54.0393 55.2848 54.0393 55.162C54.0393 55.0392 54.0881 54.9215 54.1749 54.8347C54.2617 54.7478 54.3795 54.6991 54.5023 54.6991H84.4907C84.6135 54.6991 84.7312 54.7478 84.8181 54.8347C84.9049 54.9215 84.9537 55.0392 84.9537 55.162C84.9537 55.2848 84.9049 55.4026 84.8181 55.4894C84.7312 55.5762 84.6135 55.625 84.4907 55.625Z" fill="#E1000F"/>
<path d="M215.741 48.6111H180.407C179.26 48.6111 178.159 49.0669 177.348 49.8783C176.537 50.6896 176.081 51.79 176.081 52.9375V80.9791L168.289 90.2384H215.741C216.309 90.2384 216.872 90.1264 217.397 89.9088C217.922 89.6913 218.399 89.3724 218.801 88.9704C219.203 88.5684 219.521 88.0912 219.738 87.566C219.956 87.0409 220.067 86.478 220.067 85.9097V52.9398C220.067 52.3714 219.956 51.8086 219.738 51.2834C219.521 50.7583 219.203 50.2811 218.801 49.8791C218.399 49.4771 217.922 49.1582 217.397 48.9406C216.872 48.7231 216.309 48.6111 215.741 48.6111Z" fill="#297254"/>
<path d="M187.136 69.0187L190.459 65.696L200.18 75.4171L196.857 78.7398L187.136 69.0187Z" fill="white"/>
<path d="M208.45 60.5024L211.773 63.8252L196.856 78.7415L193.533 75.4188L208.45 60.5024Z" fill="white"/>
<path d="M100.111 220.058H42.625C42.5022 220.058 42.3844 220.009 42.2976 219.922C42.2108 219.835 42.162 219.718 42.162 219.595C42.162 219.472 42.2108 219.354 42.2976 219.268C42.3844 219.181 42.5022 219.132 42.625 219.132H100.111C103.445 219.132 106.643 217.807 109.001 215.45C111.358 213.092 112.683 209.894 112.683 206.56C112.683 203.226 111.358 200.028 109.001 197.671C106.643 195.313 103.445 193.988 100.111 193.988H28.6782C25.344 193.988 22.1463 195.313 19.7887 197.671C17.431 200.028 16.1065 203.226 16.1065 206.56C16.1065 209.894 17.431 213.092 19.7887 215.45C22.1463 217.807 25.344 219.132 28.6782 219.132H34.9097C35.0325 219.132 35.1502 219.181 35.2371 219.268C35.3239 219.354 35.3727 219.472 35.3727 219.595C35.3727 219.718 35.3239 219.835 35.2371 219.922C35.1502 220.009 35.0325 220.058 34.9097 220.058H28.6782C25.0984 220.058 21.6652 218.636 19.1339 216.104C16.6026 213.573 15.1805 210.14 15.1805 206.56C15.1805 202.98 16.6026 199.547 19.1339 197.016C21.6652 194.485 25.0984 193.062 28.6782 193.063H100.111C103.691 193.062 107.124 194.485 109.655 197.016C112.187 199.547 113.609 202.98 113.609 206.56C113.609 210.14 112.187 213.573 109.655 216.104C107.124 218.636 103.691 220.058 100.111 220.058Z" fill="#297254"/>
<path d="M30.7639 200.539L32.7199 204.502L37.0926 205.139L33.9282 208.222L34.6759 212.579L30.7639 210.521L26.8518 212.579L27.5995 208.222L24.4352 205.139L28.8079 204.502L30.7639 200.539ZM47.5787 200.539L49.5347 204.502L53.9074 205.139L50.7431 208.222L51.4907 212.579L47.5787 210.521L43.6667 212.579L44.4143 208.222L41.25 205.139L45.6227 204.502L47.5787 200.539ZM64.3935 200.539L66.3495 204.502L70.7222 205.139L67.5579 208.222L68.3055 212.579L64.3935 210.521L60.4838 212.579L61.2292 208.222L58.0648 205.139L62.4398 204.502L64.3935 200.539ZM81.2106 200.539L83.1643 204.502L87.5393 205.139L84.375 208.222L85.1204 212.579L81.2106 210.521L77.2986 212.579L78.0463 208.222L74.8819 205.139L79.2546 204.502L81.2106 200.539ZM98.0255 200.539L99.9815 204.502L104.354 205.139L101.19 208.222L101.937 212.579L98.0255 210.521L94.1134 212.579L94.8611 208.222L91.6968 205.139L96.0694 204.502L98.0255 200.539ZM152.905 184.306H234.356V231.824H152.905V184.306Z" fill="#FCC63A"/>
<path d="M182.836 198.278L180.59 194.389C179.993 194.73 179.316 194.91 178.628 194.908C177.94 194.907 177.265 194.725 176.669 194.381C176.073 194.037 175.578 193.542 175.232 192.947C174.887 192.352 174.704 191.677 174.701 190.988H170.211C170.208 191.677 170.025 192.352 169.68 192.947C169.334 193.542 168.839 194.037 168.243 194.381C167.647 194.725 166.972 194.907 166.284 194.908C165.595 194.91 164.919 194.73 164.322 194.389L162.076 198.278C162.671 198.624 163.164 199.121 163.506 199.717C163.849 200.313 164.029 200.989 164.029 201.677C164.029 202.365 163.849 203.041 163.506 203.637C163.164 204.234 162.671 204.73 162.076 205.076L164.322 208.968C164.919 208.626 165.595 208.447 166.283 208.448C166.971 208.45 167.646 208.631 168.242 208.975C168.838 209.319 169.333 209.813 169.679 210.408C170.024 211.003 170.208 211.678 170.211 212.366H174.701C174.704 211.678 174.888 211.003 175.233 210.408C175.579 209.813 176.074 209.319 176.67 208.975C177.266 208.631 177.941 208.45 178.629 208.448C179.317 208.447 179.993 208.626 180.59 208.968L182.836 205.076C182.241 204.73 181.748 204.234 181.406 203.637C181.063 203.041 180.883 202.365 180.883 201.677C180.883 200.989 181.063 200.313 181.406 199.717C181.748 199.121 182.241 198.624 182.836 198.278Z" fill="#297254"/>
<path d="M172.456 205.681C174.666 205.681 176.458 203.889 176.458 201.678C176.458 199.468 174.666 197.676 172.456 197.676C170.246 197.676 168.454 199.468 168.454 201.678C168.454 203.889 170.246 205.681 172.456 205.681Z" fill="#FCC63A"/>
<path d="M191.553 190.049H228.116V195.132H191.553V190.049Z" fill="white"/>
<path d="M222.641 202.141H192.66C192.537 202.141 192.419 202.092 192.332 202.006C192.246 201.919 192.197 201.801 192.197 201.678C192.197 201.555 192.246 201.438 192.332 201.351C192.419 201.264 192.537 201.215 192.66 201.215H222.641C222.764 201.215 222.882 201.264 222.969 201.351C223.055 201.438 223.104 201.555 223.104 201.678C223.104 201.801 223.055 201.919 222.969 202.006C222.882 202.092 222.764 202.141 222.641 202.141ZM222.641 207.745H192.66C192.537 207.745 192.419 207.697 192.332 207.61C192.246 207.523 192.197 207.405 192.197 207.282C192.197 207.16 192.246 207.042 192.332 206.955C192.419 206.868 192.537 206.819 192.66 206.819H222.641C222.764 206.819 222.882 206.868 222.969 206.955C223.055 207.042 223.104 207.16 223.104 207.282C223.104 207.405 223.055 207.523 222.969 207.61C222.882 207.697 222.764 207.745 222.641 207.745ZM222.641 213.352H192.66C192.537 213.352 192.419 213.303 192.332 213.216C192.246 213.129 192.197 213.012 192.197 212.889C192.197 212.766 192.246 212.648 192.332 212.562C192.419 212.475 192.537 212.426 192.66 212.426H222.641C222.764 212.426 222.882 212.475 222.969 212.562C223.055 212.648 223.104 212.766 223.104 212.889C223.104 213.012 223.055 213.129 222.969 213.216C222.882 213.303 222.764 213.352 222.641 213.352ZM187.613 226.331H176.502C175.796 226.331 175.119 226.051 174.62 225.551C174.121 225.052 173.84 224.375 173.84 223.669C173.84 222.963 174.121 222.286 174.62 221.787C175.119 221.287 175.796 221.007 176.502 221.007H187.613C188.319 221.007 188.997 221.287 189.496 221.787C189.995 222.286 190.275 222.963 190.275 223.669C190.275 224.375 189.995 225.052 189.496 225.551C188.997 226.051 188.319 226.331 187.613 226.331ZM210.762 226.331H199.65C198.944 226.331 198.267 226.051 197.768 225.551C197.269 225.052 196.988 224.375 196.988 223.669C196.988 222.963 197.269 222.286 197.768 221.787C198.267 221.287 198.944 221.007 199.65 221.007H210.762C211.468 221.007 212.145 221.287 212.644 221.787C213.143 222.286 213.424 222.963 213.424 223.669C213.424 224.375 213.143 225.052 212.644 225.551C212.145 226.051 211.468 226.331 210.762 226.331Z" fill="#E1000F"/>
</svg>
