<svg width="250" height="250" viewBox="0 0 250 250" fill="none" xmlns="http://www.w3.org/2000/svg">
<path d="M158.331 223.134H109.287V218.616H158.331V223.134Z" fill="#E1000F"/>
<path d="M44.0255 223.148H114.743L91.8658 175.859C91.6247 175.363 91.249 174.944 90.7816 174.652C90.3141 174.359 89.7738 174.204 89.2222 174.204H20.3472L44.0255 223.148Z" fill="#E1000F"/>
<path d="M40.3565 223.148H104.551C105.048 223.148 105.537 223.022 105.972 222.781C106.407 222.54 106.774 222.193 107.038 221.771C107.302 221.35 107.455 220.869 107.482 220.372C107.509 219.876 107.409 219.38 107.192 218.933L86.3588 175.877C86.118 175.381 85.7423 174.963 85.2748 174.67C84.8073 174.377 84.2669 174.222 83.7153 174.222H19.5185C19.0214 174.222 18.5324 174.348 18.0973 174.589C17.6623 174.829 17.2954 175.176 17.0312 175.597C16.767 176.018 16.614 176.5 16.5867 176.996C16.5594 177.492 16.6586 177.988 16.875 178.435L37.7083 221.491C37.9485 221.989 38.3246 222.408 38.7931 222.702C39.2617 222.995 39.8037 223.15 40.3565 223.148Z" fill="#297254"/>
<path d="M59.8843 203.486C58.7353 203.486 57.6121 203.145 56.6569 202.507C55.7016 201.868 54.9572 200.961 54.5179 199.899C54.0785 198.838 53.9639 197.669 54.1885 196.543C54.4132 195.416 54.967 194.381 55.78 193.569C56.5929 192.757 57.6284 192.204 58.7555 191.981C59.8826 191.758 61.0505 191.874 62.1117 192.314C63.1728 192.755 64.0794 193.501 64.7167 194.457C65.3541 195.413 65.6935 196.536 65.6922 197.685C65.6885 199.224 65.0752 200.698 63.9866 201.785C62.898 202.873 61.4229 203.484 59.8843 203.486ZM59.8843 192.796C58.919 192.796 57.9754 193.082 57.1727 193.619C56.3701 194.155 55.7443 194.917 55.3746 195.808C55.0049 196.7 54.9078 197.681 55.0956 198.628C55.2835 199.575 55.7477 200.445 56.4298 201.128C57.1118 201.811 57.9811 202.276 58.9276 202.466C59.8742 202.655 60.8555 202.559 61.7477 202.191C62.6399 201.822 63.4028 201.197 63.9401 200.396C64.4774 199.594 64.7649 198.65 64.7662 197.685C64.7668 196.39 64.2529 195.147 63.3374 194.23C62.422 193.313 61.1799 192.798 59.8843 192.796Z" fill="white"/>
<path d="M21.9028 135.352C21.7942 135.354 21.6883 135.318 21.6036 135.25C21.519 135.181 21.461 135.086 21.4398 134.979L18.7153 121.375C18.7016 121.315 18.7002 121.252 18.7109 121.192C18.7217 121.131 18.7446 121.073 18.7781 121.021C18.8117 120.969 18.8552 120.925 18.9063 120.89C18.9573 120.855 19.0148 120.831 19.0753 120.819C19.1359 120.806 19.1982 120.806 19.2587 120.819C19.3192 120.831 19.3767 120.855 19.4277 120.89C19.4787 120.925 19.5222 120.97 19.5557 121.021C19.5892 121.073 19.612 121.131 19.6227 121.192L22.2662 134.343L64.1991 125.926L58.1019 95.5532L16.1644 103.979L18.4167 115.183C18.4304 115.243 18.4319 115.305 18.4211 115.366C18.4103 115.427 18.3874 115.485 18.3539 115.537C18.3204 115.589 18.2768 115.633 18.2257 115.668C18.1747 115.703 18.1172 115.727 18.0567 115.739C17.9962 115.751 17.9338 115.751 17.8733 115.739C17.8128 115.727 17.7553 115.703 17.7043 115.668C17.6533 115.633 17.6098 115.588 17.5763 115.536C17.5428 115.485 17.52 115.427 17.5093 115.366L15.1667 103.704C15.1428 103.584 15.1674 103.459 15.235 103.357C15.3027 103.255 15.408 103.184 15.5278 103.16L58.3704 94.5509C58.4301 94.5388 58.4917 94.5385 58.5515 94.5502C58.6114 94.562 58.6683 94.5854 58.719 94.6191C58.7698 94.6529 58.8134 94.6964 58.8473 94.747C58.8812 94.7977 58.9048 94.8545 58.9167 94.9143L65.1991 126.185C65.2113 126.245 65.2115 126.306 65.1998 126.366C65.1881 126.426 65.1646 126.483 65.1309 126.534C65.0971 126.585 65.0537 126.628 65.003 126.662C64.9523 126.696 64.8955 126.72 64.8357 126.731C20 135.743 21.9746 135.352 21.9028 135.352Z" fill="#297254"/>
<path d="M36.3611 119.178L15.3472 103.993C15.2475 103.921 15.1803 103.813 15.1606 103.691C15.1408 103.57 15.1701 103.446 15.2419 103.346C15.3137 103.246 15.4222 103.179 15.5436 103.159C15.6649 103.14 15.7891 103.169 15.8889 103.241L36.9028 118.426C37.4966 118.852 38.1718 119.152 38.8864 119.305C39.6009 119.459 40.3395 119.465 41.0561 119.321C41.7728 119.177 42.4521 118.887 43.0517 118.469C43.6514 118.051 44.1586 117.514 44.5417 116.891L58.0579 94.7662C58.0891 94.7134 58.1306 94.6673 58.1799 94.6306C58.2291 94.594 58.2852 94.5675 58.3448 94.5527C58.4044 94.5379 58.4663 94.5351 58.527 94.5445C58.5877 94.5539 58.6459 94.5752 58.6982 94.6073C58.7506 94.6394 58.796 94.6816 58.8319 94.7314C58.8678 94.7812 58.8934 94.8376 58.9073 94.8975C58.9211 94.9573 58.923 95.0192 58.9127 95.0798C58.9024 95.1403 58.8801 95.1982 58.8472 95.25L45.331 117.373C44.8816 118.104 44.2864 118.735 43.5824 119.226C42.8784 119.718 42.0807 120.059 41.2391 120.228C40.3975 120.397 39.5301 120.392 38.6908 120.211C37.8516 120.03 37.0585 119.679 36.3611 119.178Z" fill="#297254"/>
<path d="M64.7454 126.741C64.6481 126.741 64.5533 126.71 64.4745 126.653L46.8611 113.921C46.7616 113.849 46.6949 113.74 46.6756 113.619C46.6563 113.498 46.6859 113.374 46.7581 113.274C46.8302 113.175 46.9389 113.108 47.0602 113.089C47.1816 113.07 47.3056 113.099 47.4051 113.171L65.0162 125.903C65.0954 125.96 65.1544 126.041 65.1848 126.134C65.2151 126.227 65.2153 126.327 65.1852 126.42C65.1552 126.513 65.0964 126.594 65.0174 126.652C64.9384 126.71 64.8431 126.741 64.7454 126.741ZM21.9028 135.35C21.8219 135.349 21.7427 135.327 21.6731 135.286C21.6034 135.245 21.5457 135.186 21.5056 135.116C21.4656 135.046 21.4447 134.966 21.4449 134.885C21.4451 134.804 21.4665 134.725 21.5069 134.655L32.8356 116.111C32.8669 116.058 32.9084 116.012 32.9576 115.976C33.0069 115.939 33.0629 115.912 33.1225 115.898C33.1821 115.883 33.2441 115.88 33.3047 115.889C33.3654 115.899 33.4236 115.92 33.476 115.952C33.5283 115.984 33.5738 116.026 33.6096 116.076C33.6455 116.126 33.6712 116.183 33.685 116.242C33.6989 116.302 33.7007 116.364 33.6904 116.425C33.6801 116.485 33.6579 116.543 33.625 116.595L22.2963 135.13C22.2549 135.197 22.197 135.252 22.1281 135.291C22.0592 135.329 21.9817 135.349 21.9028 135.35Z" fill="#297254"/>
<path d="M90.7801 121.35C94.3819 121.255 95.8611 122.56 95.7454 123.597C95.4815 125.982 90.8264 126.951 90.8264 126.951C90.8264 126.951 95.1528 127.139 95.0208 129.389C94.8958 131.509 90.4352 132.012 90.4352 132.012C90.4352 132.012 93.7153 133.09 93.0347 134.623C92.0625 136.813 88.8356 136.769 88.8356 136.769C91.7083 137.926 91.9421 141.461 87.3773 140.831C84.8009 140.475 84.3681 136.616 85.6574 135.72C84.7639 134.574 83.75 131.958 86.0671 130.775C84.9583 129.183 85.0764 126.678 87.0301 126.181C86.0741 124.745 87.6898 122.558 88.7639 121.935L90.7801 121.35Z" fill="white"/>
<path d="M124.049 176.831C118.183 160.796 108.049 132.667 107.495 130.817C106.47 127.396 106.148 125.493 106.153 123.456C106.153 118.718 108.745 116.139 106.648 115.005C104.424 113.801 102.199 116.285 101.275 119.357C100.759 121.074 98.8032 123.419 98.8032 123.419C94.9421 123.65 96.8241 123.509 90.3148 124.046L87.3773 140.831C90.7199 142.22 95.3287 142.417 95.3287 142.417C95.3287 142.417 103.199 177.139 104.757 183.479C106.667 191.255 110.873 198.338 118.947 197.738C120.317 197.637 123.826 196.903 127.486 195.762L133.968 193.447L126.157 176.188L124.049 176.831ZM194.579 205.69C178.935 206.086 158.021 206.232 146.025 210.072C141.757 211.373 138.736 213.988 136.359 217.282C133.461 222.688 131.345 229.009 133.947 229.938C135.822 230.604 137.174 227.53 137.831 225.565C138.125 224.683 138.317 223.901 138.275 224.046C138.238 224.151 138.032 224.741 137.831 225.565C137.336 227.576 136.863 230.924 139.009 231.509C141.155 232.095 142.641 226.065 142.824 225.324C142.825 225.313 142.825 225.301 142.824 225.289C142.824 225.241 142.84 225.22 142.824 225.324C142.681 226.046 141.597 231.863 144.273 232.417C146.106 232.794 147.56 227.817 147.894 226.576C147.894 226.551 147.986 226.213 147.961 226.317C147.37 228.685 146.972 232.391 149.398 232.694C151.019 232.896 151.826 229.965 152.905 226.907C153.438 225.403 154.495 224.563 156.556 222.857C173.938 224.414 179.289 226.838 192.532 227.546C204.898 228.206 211.322 224.769 214.257 218.639C217.255 212.389 218.424 202.389 218.424 202.389L218.655 199.928L195.507 199.211L194.579 205.69Z" fill="white"/>
<path d="M220.972 198.565L220.944 198.778C215.576 202.22 201.269 202.632 195.482 199.215L194.604 205.697C177.817 206.095 158.884 206.241 146.021 210.067C147.178 199.218 145.16 195.326 145.514 189.044C145.514 189.174 145.498 189.292 145.484 189.62L135.579 195.345L135.329 195.097C132.319 192.137 124.838 175.736 125.725 173.324C136.199 164.505 148.977 153.417 156.294 151.669C159.62 150.87 169.361 150.512 172.769 150.382C172.656 151.235 172.59 152.094 172.572 152.954C172.482 155.769 172.954 156.914 173.843 158.257C174.235 158.71 174.767 159.02 175.354 159.139C180.801 160.296 187.326 154.185 190.796 149.838C194.96 150.039 199.084 150.738 203.081 151.921C213.692 155.162 217.514 160.785 218.85 164.944C223.257 178.627 221.218 196.563 220.972 198.565Z" fill="#FCC63A"/>
<path d="M217.299 107.407C215.022 107.404 212.8 106.705 210.931 105.405C207.514 103.037 207.491 100.472 207.734 96.4815C207.993 92.2407 211.437 86.7431 215.979 85.6296C218.37 85.044 221.893 85.463 225.104 90.794C230.643 99.9838 224.662 107.407 217.299 107.407ZM208.657 96.5278C208.426 100.414 208.437 102.546 211.458 104.63C219.454 110.185 231.088 102.514 224.31 91.2593C221.995 87.4213 219.194 85.7801 216.208 86.5139C212.88 87.331 208.963 91.6435 208.664 96.5232L208.657 96.5278Z" fill="#000091"/>
<path d="M208.197 96.5C208.63 89.3727 217.968 79.8333 224.708 91.0255C231.745 102.713 219.616 110.852 211.194 105.016C207.935 102.757 207.963 100.322 208.197 96.5Z" fill="#000091"/>
<path d="M200.695 103.292C198.148 95.6019 209.259 92.75 212.588 100.745C215.651 108.102 204.222 113.889 200.695 103.292Z" fill="#297254"/>
<path d="M206.097 109.463C204.574 109.19 201.787 108.042 200.255 103.444C197.507 95.1898 209.454 92.0371 213.014 100.579C215.151 105.694 210.674 110.287 206.097 109.463ZM203.843 96.7986C201.863 97.5394 199.968 99.6435 201.134 103.146C201.204 103.146 202.336 107.845 206.262 108.551C210.12 109.245 214.012 105.37 212.16 100.926C210.813 97.6968 207.394 95.4699 203.843 96.7986Z" fill="#000091"/>
<path d="M173.843 158.245C174.236 158.703 174.77 159.017 175.361 159.137C182.454 160.623 190.799 149.836 190.799 149.836C190.692 130.125 190.674 128.255 190.655 124.479L174.035 137.963C172.75 151.157 172.933 149.419 172.843 149.988C172.689 150.973 172.601 151.967 172.579 152.963L173.843 158.245Z" fill="white"/>
<path d="M176.755 159.741C176.255 159.742 175.757 159.69 175.269 159.588C174.579 159.448 173.956 159.084 173.498 158.551L173.465 158.509C172.248 156.755 172.049 155.139 172.116 152.94C172.142 151.877 172.24 150.818 172.41 149.769C172.451 149.553 172.447 149.477 173.567 137.907C173.573 137.847 173.591 137.788 173.62 137.734C173.648 137.68 173.687 137.632 173.735 137.593C173.782 137.555 173.836 137.525 173.895 137.508C173.953 137.49 174.014 137.484 174.075 137.49C174.136 137.496 174.195 137.513 174.249 137.542C174.303 137.571 174.351 137.61 174.389 137.657C174.428 137.704 174.457 137.759 174.475 137.817C174.493 137.876 174.499 137.937 174.493 137.998C173.336 149.829 173.368 149.669 173.317 149.94C173.155 150.935 173.062 151.941 173.039 152.949C172.977 154.998 173.144 156.401 174.208 157.944C174.533 158.317 174.972 158.572 175.456 158.669C181.789 159.995 189.389 150.838 190.336 149.66L190.301 143.41C190.301 143.287 190.35 143.169 190.437 143.082C190.523 142.996 190.641 142.947 190.764 142.947C190.887 142.947 191.004 142.996 191.091 143.082C191.178 143.169 191.227 143.287 191.227 143.41L191.262 149.817C191.264 149.921 191.229 150.023 191.164 150.104C190.843 150.537 183.639 159.738 176.755 159.741Z" fill="#000091"/>
<path d="M164.977 141.072C169.204 142.294 175.706 142.019 182.125 139.169C191.046 133.178 190.278 133.764 190.972 133.016C194.03 129.762 195.407 126.495 196.028 122.778C197.801 111.97 191.706 101.525 181.602 98.7754C170.954 95.875 159.87 99.0787 158.192 113.787C158.16 114.051 158.132 114.319 158.109 114.59C157.347 123.252 155.093 136.537 163.426 140.481L164.977 141.072Z" fill="white"/>
<path d="M170.257 142.225C168.292 142.225 166.116 141.993 164.271 141.299C163.421 141.011 162.612 140.615 161.863 140.12C155.542 135.775 156.574 125.449 157.405 117.15C157.692 114.271 157.66 114.394 157.741 113.729C158.458 107.437 160.882 102.85 164.947 100.093C169.248 97.1782 175.208 96.5509 181.731 98.3287C192.933 101.377 199.167 113.528 195.963 125.271C195.183 128.167 193.417 131.303 190.727 133.94C190.684 133.986 190.632 134.022 190.575 134.048C190.518 134.073 190.456 134.086 190.393 134.087C190.331 134.088 190.269 134.076 190.211 134.052C190.153 134.028 190.1 133.992 190.057 133.947C190.013 133.903 189.979 133.849 189.956 133.791C189.934 133.732 189.923 133.67 189.925 133.607C189.928 133.545 189.943 133.483 189.969 133.427C189.996 133.37 190.034 133.319 190.081 133.278C192.356 131.056 194.234 128.132 195.069 125.028C198.134 113.796 192.211 102.139 181.488 99.2199C175.238 97.5162 169.539 98.0995 165.468 100.859C161.637 103.456 159.347 107.822 158.66 113.838C158.569 114.569 158.66 114.005 158.326 117.243C157.518 125.299 156.516 135.322 162.389 139.356C163.097 139.822 163.864 140.193 164.669 140.458C168.155 141.778 175.046 141.806 181.937 138.745C181.993 138.717 182.055 138.699 182.118 138.695C182.181 138.691 182.244 138.699 182.303 138.72C182.363 138.741 182.417 138.774 182.464 138.817C182.51 138.86 182.547 138.912 182.572 138.969C182.598 139.027 182.612 139.089 182.612 139.152C182.613 139.215 182.601 139.278 182.576 139.336C182.552 139.394 182.516 139.447 182.471 139.49C182.425 139.534 182.371 139.568 182.312 139.59C178.518 141.289 174.414 142.186 170.257 142.225Z" fill="#000091"/>
<path d="M165.972 128.873C165.417 128.873 164.167 128.759 163.727 127.794C163.59 127.498 163.338 126.366 165.831 124.306C165.878 124.265 165.932 124.234 165.991 124.215C166.049 124.195 166.111 124.188 166.173 124.193C166.234 124.198 166.294 124.215 166.349 124.244C166.404 124.272 166.453 124.311 166.492 124.359C166.532 124.407 166.561 124.462 166.579 124.521C166.597 124.58 166.602 124.642 166.596 124.704C166.589 124.765 166.57 124.825 166.54 124.879C166.51 124.933 166.47 124.98 166.421 125.019C165.322 125.928 164.421 127.09 164.569 127.41C164.801 127.935 165.826 127.97 166.164 127.94C166.287 127.929 166.409 127.967 166.504 128.046C166.599 128.125 166.658 128.238 166.669 128.361C166.68 128.484 166.642 128.606 166.563 128.701C166.484 128.795 166.37 128.855 166.248 128.866C166.156 128.873 166.064 128.875 165.972 128.873ZM173.843 124.627C173.775 124.628 173.707 124.614 173.645 124.586C173.583 124.558 173.528 124.517 173.484 124.465C173.44 124.413 173.407 124.353 173.389 124.287C173.371 124.221 173.368 124.153 173.38 124.086L173.653 122.535C173.663 122.475 173.686 122.418 173.718 122.366C173.751 122.315 173.794 122.271 173.844 122.236C173.893 122.201 173.95 122.177 174.009 122.163C174.069 122.15 174.13 122.149 174.19 122.16C174.25 122.17 174.307 122.193 174.358 122.225C174.409 122.258 174.454 122.301 174.489 122.351C174.523 122.4 174.548 122.457 174.561 122.516C174.574 122.575 174.575 122.637 174.565 122.697L174.306 124.245C174.286 124.354 174.229 124.452 174.144 124.522C174.059 124.591 173.953 124.629 173.843 124.627ZM162.35 123.019C162.281 123.02 162.214 123.006 162.151 122.977C162.089 122.949 162.034 122.908 161.99 122.856C161.946 122.804 161.913 122.743 161.896 122.677C161.878 122.611 161.875 122.542 161.887 122.475L162.16 120.926C162.17 120.866 162.192 120.808 162.225 120.757C162.257 120.705 162.299 120.661 162.349 120.625C162.399 120.59 162.455 120.565 162.515 120.552C162.574 120.539 162.636 120.537 162.696 120.548C162.756 120.558 162.813 120.581 162.865 120.613C162.916 120.646 162.961 120.689 162.996 120.739C163.03 120.789 163.055 120.845 163.068 120.905C163.081 120.964 163.083 121.026 163.072 121.086L162.799 122.634C162.78 122.741 162.725 122.837 162.643 122.907C162.561 122.978 162.457 123.017 162.35 123.019ZM176.231 118.174C176.141 118.174 176.053 118.148 175.977 118.098C175.901 118.049 175.842 117.979 175.806 117.896C175.435 117.044 174.544 117.201 174.442 117.22C174.323 117.243 174.2 117.219 174.099 117.152C173.998 117.085 173.927 116.981 173.901 116.863C173.876 116.744 173.898 116.62 173.963 116.518C174.027 116.416 174.13 116.343 174.248 116.315C174.727 116.206 175.229 116.268 175.668 116.489C176.108 116.709 176.456 117.076 176.655 117.525C176.686 117.596 176.699 117.673 176.692 117.749C176.686 117.826 176.66 117.9 176.618 117.964C176.576 118.028 176.519 118.081 176.451 118.118C176.384 118.154 176.308 118.173 176.231 118.174ZM164.583 116.461C164.464 116.46 164.35 116.414 164.264 116.331C164.062 116.141 163.8 116.027 163.523 116.008C163.246 115.989 162.972 116.066 162.745 116.227C162.695 116.261 162.639 116.285 162.579 116.297C162.519 116.31 162.458 116.31 162.398 116.299C162.338 116.287 162.281 116.264 162.231 116.231C162.18 116.198 162.136 116.154 162.102 116.104C162.033 116.004 162.007 115.881 162.029 115.761C162.051 115.642 162.118 115.535 162.218 115.465C162.619 115.182 163.107 115.047 163.597 115.083C164.087 115.119 164.55 115.325 164.905 115.664C164.972 115.728 165.017 115.811 165.037 115.901C165.056 115.992 165.048 116.086 165.013 116.171C164.978 116.257 164.919 116.33 164.842 116.382C164.766 116.433 164.676 116.461 164.583 116.461ZM164.528 135.771C163.319 135.229 163.181 133.975 163.273 133.389C163.292 133.27 163.356 133.163 163.453 133.091C163.549 133.019 163.67 132.987 163.789 133.002L169.627 133.736C169.704 133.745 169.776 133.774 169.839 133.818C169.902 133.863 169.952 133.922 169.986 133.991C170.02 134.06 170.036 134.136 170.034 134.213C170.031 134.289 170.009 134.364 169.97 134.431C168.75 136.532 166.771 136.78 164.528 135.771ZM164.197 133.986C164.224 134.191 164.303 134.385 164.428 134.55C164.552 134.715 164.718 134.844 164.907 134.926C166.62 135.697 167.859 135.583 168.748 134.558L164.197 133.986Z" fill="#000091"/>
<path d="M169.569 134.194C168.167 136.611 165.919 135.889 164.708 135.352C163.498 134.815 163.722 133.463 163.722 133.463L169.569 134.194ZM190.762 139.208C190.642 139.208 190.526 139.162 190.44 139.078C190.353 138.995 190.303 138.882 190.299 138.762C190.229 136.873 190.268 136.859 190.176 134.854C190.172 134.822 190.172 134.789 190.176 134.757C191 129.759 192.775 125.444 191.78 124.708C191.206 125.282 190.292 126.896 189.722 127.9C188.884 129.377 188.755 129.606 188.333 129.479C188.222 129.444 188.126 129.372 188.063 129.273C187.999 129.175 187.972 129.058 187.986 128.942C188.708 116.326 185.618 120.377 185.491 114.236C185.461 112.743 184.773 111.47 183.451 110.456C178.525 106.676 166.322 107.414 163.296 108.16C159.289 109.143 159.875 111.169 158.477 114.296C158.44 114.376 158.38 114.444 158.306 114.492C158.232 114.539 158.145 114.565 158.057 114.565C157.968 114.565 157.882 114.539 157.807 114.492C157.733 114.444 157.674 114.376 157.637 114.296C155.604 110.019 156.046 105.16 158.882 100.616C163.213 93.6828 172.183 89.1366 181.734 89.0416C194.465 88.9004 202.75 93.8217 207.713 105.354C209.389 109.245 210.319 122.947 204.516 131.801C201.262 136.766 196.528 139.208 190.762 139.208ZM191.102 134.861C191.185 136.653 191.162 136.824 191.208 138.273C196.588 138.125 200.801 135.778 203.736 131.294C206.111 127.669 207.618 122.544 207.984 116.868C208.312 111.736 207.655 107.572 206.859 105.72C202.109 94.6875 194.359 89.8241 181.741 89.9791C165.562 90.1551 154.275 102.681 158.037 112.896C158.912 110.412 159.039 108.266 163.072 107.271C166.312 106.475 178.759 105.704 184.012 109.734C185.567 110.926 186.375 112.44 186.412 114.229C186.523 119.553 189.35 116.606 188.981 127.347C189.944 125.655 190.794 124.229 191.454 123.796C191.508 123.761 191.568 123.737 191.632 123.726C191.696 123.715 191.761 123.718 191.824 123.734C194.387 124.382 192.111 128.78 191.102 134.861Z" fill="#000091"/>
<path d="M188.445 128.968C188.405 129.662 190.618 124.887 191.708 124.171C193.715 124.687 191.607 128.947 190.639 134.833C190.729 136.789 190.697 136.951 190.762 138.743C210.021 138.646 209.912 111.646 207.282 105.537C202.146 93.5995 193.597 89.3727 181.734 89.5046C164.778 89.6898 152.926 103.322 158.051 114.106C159.419 111.044 158.898 108.764 163.181 107.711C167.463 106.657 185.776 105.884 185.949 114.227C186.07 120.039 189.164 116.356 188.445 128.968Z" fill="#000091"/>
<path d="M189.836 133.711C190.63 134.715 191.655 135.586 192.986 135.947C196.287 136.847 199.972 134.072 201.141 129.773C202.042 126.472 199.651 122.687 196.211 122.771C194.618 122.852 193.07 123.329 191.708 124.16L189.836 133.711Z" fill="white"/>
<path d="M189.472 133.995C189.404 133.898 189.375 133.779 189.392 133.661C189.409 133.544 189.47 133.437 189.564 133.364C189.657 133.29 189.775 133.256 189.893 133.267C190.012 133.278 190.121 133.334 190.199 133.424C193.817 138.007 199.269 134.896 200.695 129.65C201.507 126.669 199.366 123.155 196.222 123.234C194.708 123.317 193.239 123.776 191.947 124.569C191.841 124.632 191.715 124.651 191.596 124.621C191.477 124.59 191.374 124.514 191.311 124.409C191.248 124.303 191.23 124.177 191.26 124.058C191.29 123.938 191.367 123.836 191.472 123.773C192.901 122.899 194.526 122.395 196.199 122.308C199.975 122.213 202.56 126.326 201.588 129.896C199.942 135.94 193.556 139.169 189.472 133.995Z" fill="#000091"/>
<path d="M193.141 132.676C193.037 132.676 192.936 132.64 192.854 132.576C192.772 132.511 192.715 132.42 192.691 132.319C192.667 132.217 192.678 132.111 192.723 132.016C192.767 131.922 192.842 131.845 192.935 131.799C193.838 131.35 194.303 130.731 194.12 130.227C193.965 129.794 193.306 129.447 192.389 129.66C192.315 129.677 192.238 129.676 192.165 129.656C192.091 129.637 192.024 129.6 191.968 129.548C191.913 129.496 191.871 129.432 191.846 129.36C191.821 129.288 191.815 129.212 191.826 129.137C192.243 126.565 193.889 126.019 194.836 125.921C196.562 125.745 198.498 126.773 198.868 127.738C198.912 127.853 198.908 127.981 198.858 128.093C198.808 128.205 198.715 128.293 198.601 128.337C198.486 128.381 198.358 128.377 198.246 128.327C198.134 128.277 198.046 128.184 198.002 128.069C197.812 127.574 196.352 126.699 194.928 126.843C193.896 126.949 193.208 127.563 192.88 128.669C195.176 128.63 196.208 131.204 193.343 132.627C193.28 132.66 193.211 132.676 193.141 132.676Z" fill="#000091"/>
<path d="M191.13 139.12C190.13 138.818 189.2 138.322 188.393 137.66C187.586 136.998 186.916 136.184 186.424 135.263C185.931 134.343 185.625 133.334 185.522 132.295C185.419 131.257 185.521 130.208 185.824 129.208L187.009 125.292C187.638 123.295 189.029 121.628 190.88 120.65C192.731 119.673 194.893 119.465 196.896 120.072C198.9 120.678 200.583 122.05 201.581 123.889C202.58 125.729 202.813 127.888 202.229 129.898L201.042 133.815C200.74 134.814 200.243 135.744 199.582 136.552C198.92 137.36 198.106 138.029 197.185 138.522C196.265 139.014 195.256 139.321 194.217 139.424C193.178 139.526 192.129 139.423 191.13 139.12Z" fill="#E1000F"/>
<path d="M165.053 142.319C166.079 142.319 166.91 141.488 166.91 140.463C166.91 139.438 166.079 138.607 165.053 138.607C164.028 138.607 163.197 139.438 163.197 140.463C163.197 141.488 164.028 142.319 165.053 142.319Z" fill="#E1000F"/>
<path d="M178.289 144.954L164.921 140.905C164.859 140.891 164.801 140.865 164.749 140.827C164.698 140.79 164.655 140.742 164.622 140.687C164.59 140.632 164.57 140.571 164.562 140.508C164.555 140.445 164.56 140.381 164.579 140.32C164.597 140.259 164.628 140.202 164.669 140.154C164.71 140.105 164.761 140.066 164.818 140.038C164.875 140.01 164.937 139.994 165.001 139.991C165.065 139.988 165.128 139.998 165.187 140.021L178.558 144.067C179.7 144.413 180.899 144.531 182.086 144.414C183.274 144.296 184.426 143.946 185.478 143.383C186.53 142.82 187.461 142.055 188.217 141.132C188.974 140.21 189.541 139.147 189.887 138.005C189.904 137.946 189.933 137.892 189.972 137.845C190.01 137.798 190.058 137.759 190.111 137.731C190.165 137.702 190.224 137.684 190.284 137.678C190.345 137.672 190.406 137.678 190.464 137.696C190.522 137.713 190.576 137.742 190.624 137.781C190.671 137.819 190.71 137.867 190.738 137.92C190.767 137.974 190.785 138.033 190.791 138.093C190.797 138.154 190.791 138.215 190.773 138.273C190.393 139.532 189.768 140.703 188.934 141.72C188.101 142.737 187.075 143.58 185.916 144.201C184.756 144.821 183.486 145.207 182.177 145.336C180.869 145.465 179.548 145.335 178.289 144.954Z" fill="#E1000F"/>
<path d="M149.565 233.167C149.192 233.165 148.824 233.072 148.495 232.896C148.166 232.72 147.885 232.467 147.676 232.157C147.324 231.593 147.118 230.949 147.076 230.285C146.333 231.863 145.361 233.113 144.176 232.868C143.266 232.681 142.169 231.884 142.035 229.181C141.412 230.569 140.359 232.357 138.889 231.958C137.634 231.618 136.979 230.475 136.951 228.657C136.199 229.866 135.134 230.854 133.792 230.377C130.157 229.081 134.134 220.458 135.951 217.069C135.961 217.052 135.972 217.035 135.984 217.019C138.697 213.252 141.937 210.838 145.891 209.632C158.229 205.683 180.542 205.588 194.567 205.234C194.69 205.231 194.809 205.277 194.898 205.361C194.987 205.446 195.039 205.562 195.042 205.685C195.045 205.808 194.999 205.927 194.914 206.016C194.83 206.105 194.713 206.157 194.59 206.16C180.47 206.516 158.31 206.623 146.167 210.519C142.417 211.662 139.34 213.956 136.752 217.537C134.039 222.602 132.727 227.016 133.41 228.785C133.455 228.938 133.534 229.08 133.64 229.2C133.746 229.32 133.876 229.415 134.023 229.479C134.17 229.543 134.329 229.574 134.489 229.57C134.649 229.566 134.806 229.527 134.949 229.456C135.789 229.044 136.655 227.62 137.387 225.442C137.597 224.588 137.81 223.979 137.849 223.9C137.873 223.822 137.917 223.752 137.977 223.696C138.037 223.64 138.11 223.601 138.19 223.583C138.27 223.565 138.353 223.568 138.431 223.593C138.509 223.617 138.579 223.662 138.634 223.722C138.72 223.817 138.78 223.882 138.731 224.185C138.621 224.703 138.473 225.212 138.287 225.708C137.928 227.171 137.308 230.569 139.141 231.079C139.236 231.102 139.334 231.105 139.429 231.088C139.525 231.071 139.616 231.034 139.697 230.979C140.891 230.285 141.944 227.044 142.38 225.232C142.384 225.165 142.404 225.099 142.436 225.041C142.469 224.982 142.514 224.931 142.568 224.891C142.622 224.852 142.684 224.824 142.75 224.811C142.816 224.798 142.884 224.799 142.949 224.815C143.068 224.842 143.172 224.916 143.237 225.02C143.302 225.123 143.323 225.249 143.296 225.368C142.882 227.252 142.472 231.586 144.373 231.979C145.264 232.162 146.532 229.896 147.451 226.472C147.451 226.424 147.509 226.252 147.516 226.22C147.599 225.988 147.748 225.778 148.076 225.861C148.196 225.896 148.297 225.976 148.359 226.085C148.421 226.193 148.438 226.321 148.407 226.442C147.912 228.426 147.424 231.998 149.454 232.248C150.53 232.387 151.306 230.125 152.13 227.738C152.241 227.419 152.361 227.095 152.468 226.771C153.025 225.192 154.104 224.301 156.065 222.678C156.275 222.502 156.375 222.394 156.595 222.412C173.956 223.97 179.368 226.396 192.556 227.102C203.803 227.701 210.764 224.873 213.838 218.456C216.768 212.34 217.956 202.451 217.968 202.352C217.982 202.229 218.045 202.117 218.142 202.04C218.239 201.964 218.362 201.929 218.485 201.943C218.608 201.958 218.72 202.02 218.796 202.117C218.873 202.214 218.908 202.338 218.893 202.461C218.845 202.87 217.676 212.602 214.681 218.857C211.417 225.634 204.167 228.634 192.505 228.009C179.31 227.315 173.87 224.889 156.699 223.336C154.944 224.787 153.836 225.65 153.338 227.063C152.273 230.093 151.437 233.167 149.565 233.167Z" fill="#000091"/>
<path d="M194.419 199.053C194.357 199.006 194.308 198.944 194.276 198.873C194.245 198.801 194.232 198.723 194.238 198.646C194.701 193.47 195.456 179.275 195.542 171.023C195.542 170.9 195.59 170.783 195.677 170.696C195.764 170.609 195.882 170.56 196.005 170.56C196.127 170.56 196.245 170.609 196.332 170.696C196.419 170.783 196.468 170.9 196.468 171.023C196.384 179.162 195.641 193.067 195.183 198.458C200.593 202.287 215.699 201.644 220.512 198.498C220.769 196.398 222.769 178.609 218.428 165.076C215.188 154.986 202.734 151.764 195.602 150.743C195.541 150.735 195.483 150.714 195.43 150.683C195.377 150.652 195.33 150.611 195.294 150.562C195.257 150.513 195.23 150.457 195.214 150.397C195.199 150.338 195.195 150.276 195.204 150.215C195.212 150.154 195.233 150.096 195.264 150.043C195.295 149.99 195.336 149.944 195.385 149.907C195.434 149.87 195.49 149.843 195.549 149.828C195.609 149.812 195.671 149.809 195.732 149.817C203.079 150.868 215.912 154.215 219.308 164.785C223.979 179.315 221.44 198.623 221.412 198.813C221.403 198.875 221.382 198.936 221.349 198.99C221.316 199.044 221.272 199.091 221.22 199.127C216.299 202.609 200.109 203.41 194.419 199.053ZM125.764 173.757C125.668 173.758 125.575 173.729 125.497 173.674C125.418 173.62 125.358 173.542 125.326 173.453C125.293 173.363 125.289 173.265 125.314 173.173C125.339 173.081 125.392 172.998 125.465 172.938C135.882 164.174 148.762 152.993 156.194 151.215C157.85 150.817 161.238 150.479 166.271 150.204C166.394 150.197 166.514 150.239 166.606 150.321C166.697 150.403 166.753 150.518 166.759 150.641C166.766 150.764 166.724 150.884 166.642 150.976C166.56 151.068 166.445 151.123 166.322 151.13C161.345 151.4 158.012 151.731 156.41 152.116C149.745 153.711 138.644 163.058 127.905 172.095L126.053 173.648C125.972 173.716 125.87 173.754 125.764 173.757Z" fill="#000091"/>
<path d="M135.602 195.796C135.497 195.796 135.395 195.76 135.312 195.694C132.792 193.667 127.69 182.731 125.917 177.204C124.947 174.194 125.109 173.391 125.394 173.014C125.467 172.915 125.576 172.85 125.698 172.832C125.819 172.814 125.943 172.846 126.042 172.919C126.14 172.992 126.206 173.102 126.223 173.223C126.241 173.345 126.21 173.469 126.137 173.567C125.868 174.095 126.752 177.657 129.567 183.951C131.907 189.185 134.303 193.424 135.66 194.764L141.576 191.345C141.682 191.29 141.805 191.277 141.92 191.31C142.035 191.344 142.132 191.42 142.192 191.523C142.252 191.627 142.269 191.749 142.241 191.865C142.212 191.981 142.14 192.082 142.039 192.146C135.264 196.065 135.78 195.796 135.602 195.796ZM104.308 183.588C102.778 177.315 94.956 142.868 94.8773 142.521C94.85 142.401 94.8713 142.275 94.9367 142.171C95.002 142.067 95.106 141.994 95.2257 141.966C95.3454 141.939 95.4711 141.96 95.575 142.026C95.679 142.091 95.7527 142.195 95.7801 142.315C95.8588 142.662 103.669 177.102 105.208 183.368C107.06 190.937 111.113 197.859 118.912 197.275C120.301 197.174 123.845 196.412 127.347 195.319C127.405 195.301 127.466 195.295 127.527 195.3C127.587 195.306 127.646 195.323 127.7 195.352C127.754 195.38 127.802 195.418 127.841 195.465C127.88 195.512 127.909 195.566 127.927 195.624C127.945 195.682 127.952 195.743 127.946 195.804C127.941 195.864 127.923 195.923 127.895 195.977C127.867 196.031 127.828 196.078 127.781 196.117C127.735 196.156 127.681 196.186 127.623 196.204C123.919 197.361 120.407 198.093 118.981 198.199C110.75 198.81 106.292 191.667 104.308 183.588ZM88.3958 141.368C88.0333 141.367 87.6713 141.34 87.3125 141.289C84.5648 140.91 83.8403 137.153 85.0486 135.662C83.9421 133.965 83.7222 131.808 85.4282 130.618C84.5393 128.975 84.7153 126.734 86.3935 125.921C86.2505 125.464 86.2377 124.976 86.3565 124.512C86.6947 123.286 87.4673 122.226 88.5301 121.528C89.2077 121.122 89.9789 120.899 90.7685 120.88C93.875 120.801 95.1875 121.708 95.6944 122.269C95.8752 122.449 96.0146 122.667 96.1029 122.907C96.1913 123.147 96.2264 123.403 96.206 123.657C96.0301 125.245 94.2893 126.252 92.8518 126.822C94.2569 127.204 95.5671 127.979 95.4815 129.426C95.3889 131.005 93.5023 131.81 91.9699 132.204C93.037 132.808 93.949 133.718 93.4583 134.826C92.8125 136.275 91.3495 136.859 90.2384 137.09C92.2176 138.757 91.6366 141.368 88.3958 141.368ZM91.1227 121.808C90.3778 121.767 89.6378 121.95 88.9977 122.333C88 122.914 86.6828 124.836 87.4143 125.924C87.4531 125.985 87.4769 126.054 87.4839 126.127C87.4908 126.199 87.4807 126.272 87.4544 126.339C87.428 126.407 87.3861 126.467 87.3321 126.516C87.2781 126.564 87.2135 126.599 87.1435 126.618C85.5463 127.023 85.5069 129.15 86.449 130.5C86.4867 130.554 86.5123 130.616 86.5241 130.681C86.536 130.746 86.5339 130.812 86.5179 130.876C86.5019 130.94 86.4724 131 86.4314 131.052C86.3904 131.103 86.3388 131.146 86.2801 131.176C86.0028 131.296 85.7575 131.479 85.5638 131.711C85.3701 131.943 85.2333 132.217 85.1643 132.512C84.9491 133.477 85.4606 134.699 86.0254 135.424C86.0644 135.473 86.0927 135.531 86.1088 135.592C86.1248 135.653 86.1281 135.716 86.1186 135.779C86.109 135.841 86.0868 135.901 86.0533 135.955C86.0198 136.008 85.9756 136.054 85.9236 136.09C85.4606 136.405 85.2893 137.396 85.5139 138.35C85.6157 138.773 86.0509 140.169 87.4421 140.361C89.0741 140.593 90.2199 140.25 90.4213 139.481C90.6088 138.787 90.0023 137.727 88.6643 137.185C88.5642 137.145 88.4814 137.07 88.4303 136.975C88.3791 136.88 88.3629 136.77 88.3842 136.664C88.4079 136.559 88.4666 136.465 88.5508 136.398C88.6349 136.331 88.7394 136.294 88.8472 136.294C88.875 136.294 91.7801 136.294 92.6157 134.424C92.6507 134.351 92.6689 134.272 92.6689 134.192C92.6689 134.112 92.6507 134.033 92.6157 133.961C92.2963 133.238 90.7963 132.606 90.3009 132.442C90.2002 132.409 90.1138 132.343 90.0561 132.254C89.9983 132.166 89.9727 132.06 89.9835 131.954C89.9944 131.849 90.041 131.751 90.1156 131.676C90.1902 131.6 90.2883 131.553 90.3935 131.542C91.4491 131.424 94.4838 130.762 94.5602 129.352C94.5702 129.204 94.5494 129.056 94.4992 128.917C94.449 128.778 94.3704 128.651 94.2685 128.544C93.5046 127.699 91.5139 127.435 90.8102 127.405C90.6874 127.415 90.5656 127.376 90.4716 127.296C90.3776 127.217 90.3191 127.103 90.309 126.98C90.2989 126.858 90.3379 126.736 90.4176 126.642C90.4973 126.548 90.611 126.489 90.7338 126.479C91.9375 126.227 95.1018 125.206 95.287 123.528C95.2908 123.405 95.2684 123.284 95.2213 123.171C95.1742 123.058 95.1035 122.956 95.0139 122.873C94.3819 122.206 92.9421 121.808 91.1227 121.808ZM99.8703 135.236C99.7545 135.236 99.643 135.192 99.5578 135.113C98.0278 133.713 97.2222 131.593 97.2291 128.984C97.2299 127.797 97.3856 126.616 97.6921 125.47C97.7073 125.409 97.7346 125.352 97.7723 125.302C97.8101 125.253 97.8576 125.211 97.9119 125.18C97.9662 125.149 98.0262 125.129 98.0884 125.122C98.1505 125.115 98.2134 125.121 98.2733 125.138C98.3333 125.156 98.389 125.186 98.4371 125.226C98.4852 125.266 98.5247 125.315 98.5532 125.371C98.5817 125.427 98.5987 125.487 98.6031 125.55C98.6075 125.612 98.5992 125.675 98.5787 125.734C98.5625 125.789 96.9352 131.461 100.178 134.431C100.247 134.493 100.296 134.575 100.317 134.666C100.339 134.756 100.333 134.851 100.299 134.938C100.266 135.025 100.207 135.1 100.131 135.153C100.054 135.207 99.9635 135.235 99.8703 135.236Z" fill="#000091"/>
<path d="M95.3287 142.88C94.0128 142.803 92.7026 142.649 91.4051 142.417C91.2841 142.395 91.1767 142.327 91.1064 142.226C91.036 142.125 91.0086 142.001 91.0301 141.88C91.0516 141.759 91.1202 141.651 91.2209 141.581C91.3217 141.511 91.4462 141.483 91.5671 141.505C92.818 141.731 94.0809 141.886 95.3495 141.968C95.4723 141.97 95.589 142.022 95.6739 142.111C95.7587 142.199 95.8048 142.318 95.8021 142.441C95.7993 142.564 95.7479 142.68 95.6591 142.765C95.5703 142.85 95.4515 142.896 95.3287 142.894V142.88ZM124.051 177.294C123.956 177.294 123.863 177.265 123.785 177.21C123.707 177.155 123.648 177.078 123.616 176.988C117.801 161.111 107.609 132.813 107.051 130.949C106.042 127.579 105.685 125.625 105.69 123.456C105.69 121.354 106.181 119.692 106.569 118.363C107.118 116.491 107.227 115.85 106.428 115.417C104.345 114.285 102.417 117.171 101.72 119.493C101.183 121.282 99.2407 123.623 99.1574 123.72C99.1193 123.769 99.0717 123.81 99.0174 123.841C98.9632 123.871 98.9033 123.89 98.8414 123.897C98.7796 123.904 98.717 123.898 98.6574 123.88C98.5978 123.862 98.5425 123.832 98.4947 123.792C98.4469 123.752 98.4077 123.703 98.3793 123.648C98.3509 123.593 98.3339 123.532 98.3295 123.47C98.325 123.408 98.3331 123.346 98.3532 123.287C98.3734 123.228 98.4052 123.174 98.4468 123.127C98.4653 123.104 100.35 120.833 100.833 119.227C101.528 116.912 102.88 115.076 104.352 114.468C104.754 114.296 105.19 114.218 105.627 114.241C106.063 114.265 106.489 114.388 106.87 114.602C108.394 115.428 107.961 116.917 107.458 118.623C106.377 122.326 106.123 124.623 107.938 130.688C108.493 132.539 118.676 160.796 124.484 176.676C124.509 176.746 124.516 176.82 124.506 176.893C124.496 176.966 124.469 177.036 124.427 177.097C124.384 177.157 124.328 177.207 124.263 177.241C124.197 177.275 124.125 177.293 124.051 177.294ZM146.38 205.84C146.318 205.84 146.256 205.828 146.199 205.804C146.142 205.78 146.09 205.744 146.047 205.7C146.004 205.655 145.97 205.603 145.948 205.545C145.925 205.487 145.915 205.425 145.917 205.363C146.34 191.632 140.803 188.789 152.921 169.157C152.986 169.053 153.089 168.978 153.209 168.95C153.328 168.921 153.454 168.941 153.559 169.006C153.664 169.07 153.738 169.174 153.767 169.293C153.795 169.413 153.775 169.539 153.711 169.644C141.787 188.956 147.269 191.579 146.843 205.391C146.839 205.512 146.789 205.626 146.702 205.71C146.616 205.793 146.5 205.84 146.38 205.84Z" fill="#000091"/>
<path d="M38.831 67.5486C37.2286 67.5486 35.6622 67.0735 34.3299 66.1832C32.9976 65.293 31.9591 64.0276 31.3459 62.5472C30.7327 61.0668 30.5723 59.4378 30.8849 57.8662C31.1975 56.2946 31.9691 54.851 33.1022 53.7179C34.2352 52.5848 35.6788 51.8132 37.2505 51.5006C38.8221 51.188 40.4511 51.3484 41.9315 51.9616C43.4119 52.5748 44.6772 53.6133 45.5675 54.9456C46.4577 56.278 46.9329 57.8444 46.9329 59.4468C46.9329 61.5955 46.0793 63.6562 44.5599 65.1756C43.0405 66.695 40.9798 67.5486 38.831 67.5486ZM38.831 52.2708C37.4118 52.2708 36.0244 52.6917 34.8443 53.4802C33.6642 54.2687 32.7445 55.3894 32.2014 56.7007C31.6582 58.0119 31.5161 59.4547 31.793 60.8467C32.0699 62.2387 32.7533 63.5173 33.7569 64.5209C34.7605 65.5245 36.0391 66.2079 37.4311 66.4848C38.8231 66.7617 40.2659 66.6196 41.5772 66.0765C42.8884 65.5333 44.0091 64.6136 44.7976 63.4335C45.5861 62.2534 46.007 60.866 46.007 59.4468C46.0057 57.5444 45.2492 55.7204 43.9036 54.3756C42.5579 53.0309 40.7334 52.2755 38.831 52.2755V52.2708ZM126.528 138.118C126.437 138.118 126.347 138.09 126.272 138.039C126.196 137.989 126.137 137.916 126.102 137.832C126.067 137.748 126.058 137.655 126.076 137.565C126.093 137.476 126.137 137.393 126.201 137.329L139.424 124.104C139.511 124.017 139.628 123.968 139.751 123.968C139.874 123.968 139.992 124.017 140.079 124.104C140.166 124.191 140.214 124.309 140.214 124.432C140.214 124.555 140.166 124.672 140.079 124.759L126.852 137.984C126.766 138.069 126.649 138.118 126.528 138.118Z" fill="#FCC63A"/>
<path d="M139.752 138.118C139.691 138.118 139.631 138.107 139.575 138.084C139.518 138.061 139.467 138.027 139.424 137.984L126.201 124.769C126.114 124.682 126.066 124.564 126.066 124.441C126.066 124.318 126.114 124.2 126.201 124.113C126.288 124.027 126.406 123.978 126.529 123.978C126.652 123.978 126.77 124.027 126.856 124.113L140.079 137.338C140.14 137.403 140.181 137.485 140.197 137.573C140.213 137.661 140.203 137.751 140.169 137.834C140.134 137.916 140.076 137.987 140.002 138.038C139.929 138.088 139.842 138.116 139.752 138.118ZM234.382 144.907H216.19C216.109 144.907 216.029 144.886 215.958 144.845C215.888 144.805 215.83 144.746 215.789 144.676C215.749 144.605 215.727 144.526 215.727 144.444C215.727 144.363 215.749 144.283 215.789 144.213L224.884 128.461C224.925 128.39 224.983 128.331 225.054 128.29C225.124 128.25 225.204 128.228 225.286 128.228C225.367 128.228 225.447 128.25 225.518 128.29C225.588 128.331 225.647 128.39 225.687 128.461L234.782 144.213C234.823 144.283 234.844 144.363 234.844 144.444C234.844 144.526 234.823 144.605 234.782 144.676C234.742 144.746 234.684 144.805 234.613 144.845C234.543 144.886 234.463 144.907 234.382 144.907ZM216.993 143.982H233.579L225.285 129.618L216.993 143.982Z" fill="#FCC63A"/>
<path d="M180.956 82.1018L176.123 74.6944H157.986C156.482 74.6944 155.04 74.0972 153.977 73.0342C152.913 71.9711 152.315 70.5292 152.315 69.0255V62.4213C152.315 62.2985 152.364 62.1807 152.45 62.0939C152.537 62.0071 152.655 61.9583 152.778 61.9583C152.901 61.9583 153.018 62.0071 153.105 62.0939C153.192 62.1807 153.241 62.2985 153.241 62.4213V69.0255C153.243 70.2816 153.742 71.4858 154.631 72.374C155.519 73.2622 156.723 73.762 157.979 73.7639H176.366C176.443 73.7638 176.519 73.783 176.587 73.8198C176.655 73.8566 176.713 73.9098 176.755 73.9745L181.336 81.0023L185.919 73.9745C185.961 73.9101 186.018 73.8571 186.086 73.8203C186.153 73.7835 186.229 73.7641 186.306 73.7639H204.699C205.955 73.7627 207.16 73.263 208.048 72.3747C208.937 71.4863 209.436 70.2818 209.438 69.0255V36.5741C209.438 35.3165 208.939 34.1102 208.051 33.2204C207.162 32.3305 205.957 31.8299 204.699 31.8287H157.986C156.728 31.8287 155.521 32.3287 154.631 33.2186C153.741 34.1085 153.241 35.3155 153.241 36.5741V56.6065C153.241 56.7293 153.192 56.847 153.105 56.9338C153.018 57.0207 152.901 57.0694 152.778 57.0694C152.655 57.0694 152.537 57.0207 152.45 56.9338C152.364 56.847 152.315 56.7293 152.315 56.6065V36.5741C152.315 35.0699 152.912 33.6274 153.976 32.5639C155.039 31.5003 156.482 30.9028 157.986 30.9028H204.699C206.202 30.904 207.643 31.5021 208.705 32.5656C209.768 33.6291 210.364 35.071 210.363 36.5741V69.0255C210.362 70.5274 209.765 71.9674 208.703 73.0294C207.641 74.0914 206.201 74.6886 204.699 74.6898H186.574L181.741 82.0972C181.699 82.1639 181.642 82.2191 181.574 82.2575C181.505 82.2959 181.428 82.3163 181.35 82.3168C181.271 82.3172 181.194 82.2977 181.125 82.2602C181.056 82.2226 180.998 82.1681 180.956 82.1018Z" fill="#E1000F"/>
<path d="M199.537 43.8912H163.16C163.037 43.8912 162.919 43.8424 162.832 43.7556C162.746 43.6688 162.697 43.551 162.697 43.4283C162.697 43.3055 162.746 43.1877 162.832 43.1009C162.919 43.0141 163.037 42.9653 163.16 42.9653H199.537C199.66 42.9653 199.778 43.0141 199.864 43.1009C199.951 43.1877 200 43.3055 200 43.4283C200 43.551 199.951 43.6688 199.864 43.7556C199.778 43.8424 199.66 43.8912 199.537 43.8912ZM199.537 52.7523H163.16C163.037 52.7523 162.919 52.7035 162.832 52.6167C162.746 52.5299 162.697 52.4121 162.697 52.2894C162.697 52.1666 162.746 52.0488 162.832 51.962C162.919 51.8752 163.037 51.8264 163.16 51.8264H199.537C199.66 51.8264 199.778 51.8752 199.864 51.962C199.951 52.0488 200 52.1666 200 52.2894C200 52.4121 199.951 52.5299 199.864 52.6167C199.778 52.7035 199.66 52.7523 199.537 52.7523ZM189.725 61.6111H163.16C163.037 61.6111 162.919 61.5623 162.832 61.4755C162.746 61.3887 162.697 61.2709 162.697 61.1482C162.697 61.0254 162.746 60.9076 162.832 60.8208C162.919 60.734 163.037 60.6852 163.16 60.6852H189.725C189.847 60.6852 189.965 60.734 190.052 60.8208C190.139 60.9076 190.187 61.0254 190.187 61.1482C190.187 61.2709 190.139 61.3887 190.052 61.4755C189.965 61.5623 189.847 61.6111 189.725 61.6111ZM88.4676 110.965C88.355 110.965 88.2464 110.924 88.162 110.85L80.0254 103.662C79.9334 103.581 79.8774 103.466 79.8698 103.343C79.8622 103.221 79.9036 103.1 79.9849 103.008C80.0663 102.916 80.1809 102.86 80.3035 102.852C80.4262 102.845 80.5468 102.886 80.6389 102.968L88.7755 110.155C88.8461 110.217 88.896 110.3 88.9187 110.391C88.9413 110.483 88.9355 110.579 88.902 110.667C88.8685 110.755 88.809 110.831 88.7314 110.884C88.6538 110.937 88.5618 110.966 88.4676 110.965ZM94.9074 106.697C94.8104 106.696 94.7161 106.666 94.6376 106.609C94.5591 106.552 94.5004 106.472 94.4699 106.38L91.0162 96.088C90.9772 95.9713 90.9862 95.844 91.0411 95.7339C91.096 95.6239 91.1924 95.5402 91.309 95.5012C91.4257 95.4622 91.553 95.4711 91.6631 95.526C91.7731 95.581 91.8568 95.6773 91.8958 95.794L95.3472 106.086C95.3708 106.155 95.3774 106.23 95.3664 106.303C95.3555 106.375 95.3274 106.444 95.2844 106.504C95.2414 106.564 95.1847 106.613 95.1192 106.646C95.0536 106.68 94.981 106.697 94.9074 106.697ZM102.38 107.407C102.31 107.409 102.242 107.395 102.179 107.366C102.116 107.337 102.06 107.295 102.016 107.242C101.971 107.189 101.939 107.126 101.922 107.059C101.905 106.992 101.903 106.922 101.917 106.854L104.312 95.0324C104.323 94.9716 104.346 94.9136 104.379 94.8617C104.413 94.8098 104.457 94.7652 104.508 94.7304C104.559 94.6956 104.616 94.6713 104.676 94.659C104.737 94.6468 104.799 94.6468 104.86 94.659C104.92 94.6712 104.978 94.6953 105.029 94.7301C105.08 94.7648 105.124 94.8094 105.157 94.8613C105.191 94.9131 105.213 94.9711 105.224 95.0319C105.235 95.0927 105.234 95.1551 105.22 95.2153L102.824 107.037C102.803 107.14 102.748 107.233 102.667 107.3C102.586 107.368 102.485 107.405 102.38 107.407ZM110.525 57.3542C102.549 57.3542 93.1296 50.7593 86.6829 46.0486C86.6338 46.0128 86.5922 45.9676 86.5606 45.9156C86.529 45.8637 86.5079 45.8061 86.4985 45.746C86.4892 45.6859 86.4917 45.6246 86.5061 45.5655C86.5204 45.5064 86.5463 45.4507 86.5822 45.4016C86.618 45.3525 86.6632 45.311 86.7151 45.2794C86.7671 45.2477 86.8247 45.2266 86.8848 45.2173C86.9449 45.2079 87.0062 45.2105 87.0653 45.2249C87.1244 45.2392 87.1801 45.2651 87.2292 45.3009C93.9213 50.1852 104.711 57.8333 112.882 56.206C116.231 55.537 118.961 53.4144 121.477 49.5208C124.023 45.5718 121.058 42.6875 119.06 41.3218C115.41 38.8218 110.727 38.2037 109.97 39.2384C109.146 40.3773 109.021 41.5833 108.91 42.6458C108.782 43.8565 108.653 45.1065 107.257 45.4236C102.676 46.4722 96.5579 42.9051 94.1389 41.3218C89.4583 38.257 85.7546 34.4074 85.3426 32.1667C84.9884 30.2871 89.0347 30.3704 89.838 26.5787C90.2361 24.6945 86.2592 19.7384 81.6435 18.1829C79.3287 17.4028 76.1991 17.3009 74.338 21.2292C70.743 28.8148 73.0139 34.1412 83.3403 42.338C83.388 42.3757 83.4278 42.4224 83.4575 42.4755C83.4872 42.5286 83.5061 42.587 83.5132 42.6474C83.5203 42.7078 83.5154 42.769 83.4988 42.8275C83.4823 42.886 83.4543 42.9407 83.4167 42.9884C83.379 43.0362 83.3322 43.076 83.2791 43.1057C83.2261 43.1353 83.1676 43.1543 83.1072 43.1613C83.0468 43.1684 82.9856 43.1636 82.9271 43.147C82.8686 43.1304 82.8139 43.1025 82.7662 43.0648C72.1435 34.6296 69.7176 28.8125 73.5069 20.831C78.3055 10.7083 91.6667 22.4514 90.7523 26.7685C90.2222 29.2685 88.4583 30.3727 87.2801 31.1042C86.7546 31.4329 86.2106 31.7755 86.25 31.9954C86.993 35.9306 100.116 46.1158 107.056 44.5208C108.588 44.1713 107.331 41.3102 109.227 38.6945C110.572 36.8426 116.144 38.1852 119.59 40.5463C123.461 43.1968 124.435 46.6458 122.262 50.0116C119.384 54.456 115.826 57.3542 110.525 57.3542Z" fill="#E1000F"/>
</svg>
