<svg width="69" height="56" viewBox="0 0 69 56" fill="none" xmlns="http://www.w3.org/2000/svg">
<path d="M9.25858 55.9955C9.10953 55.9984 8.96423 55.9487 8.84811 55.8552C8.73198 55.7617 8.65244 55.6304 8.6234 55.4842L4.88533 36.8193C4.86658 36.7367 4.86454 36.6511 4.87933 36.5677C4.89413 36.4843 4.92546 36.4047 4.97149 36.3336C5.01751 36.2624 5.0773 36.2012 5.14733 36.1536C5.21736 36.1059 5.29622 36.0727 5.37927 36.056C5.46232 36.0392 5.54787 36.0393 5.6309 36.0561C5.71393 36.0729 5.79275 36.1062 5.86273 36.1539C5.93271 36.2017 5.99244 36.263 6.03839 36.3341C6.08434 36.4053 6.11558 36.4849 6.13029 36.5684L9.7572 54.6108L67.2891 43.0631L58.9237 1.39181L1.38546 12.9522L4.47564 28.3237C4.49439 28.4063 4.49643 28.4918 4.48163 28.5752C4.46684 28.6586 4.4355 28.7383 4.38948 28.8094C4.34345 28.8805 4.28367 28.9417 4.21364 28.9894C4.14361 29.037 4.06475 29.0702 3.9817 29.0869C3.89865 29.1037 3.8131 29.1036 3.73007 29.0868C3.64704 29.07 3.56821 29.0367 3.49823 28.989C3.42825 28.9412 3.36853 28.88 3.32258 28.8088C3.27663 28.7376 3.24538 28.658 3.23067 28.5746L0.0166352 12.5742C-0.0161565 12.4096 0.0175491 12.2387 0.110385 12.0989C0.203221 11.959 0.34764 11.8616 0.512081 11.8279L59.2921 0.0166328C59.3741 -2.81944e-05 59.4585 -0.000332125 59.5406 0.0157314C59.6227 0.031795 59.7008 0.0639103 59.7705 0.11024C59.8401 0.156569 59.8999 0.216203 59.9464 0.285706C59.993 0.35521 60.0253 0.433216 60.0416 0.515256L68.6611 43.4188C68.6778 43.5008 68.6781 43.5853 68.662 43.6673C68.6459 43.7494 68.6138 43.8275 68.5675 43.8972C68.5212 43.9668 68.4615 44.0266 68.392 44.0732C68.3225 44.1197 68.2445 44.152 68.1625 44.1684C6.64797 56.5322 9.35704 55.9955 9.25858 55.9955Z" fill="#18753C"/>
<path d="M29.0954 33.805L0.264361 12.9709C0.127486 12.8723 0.0353651 12.7235 0.00826528 12.557C-0.0188346 12.3905 0.0213059 12.2201 0.119856 12.0832C0.218406 11.9463 0.367294 11.8542 0.533764 11.8271C0.700235 11.8 0.870652 11.8402 1.00753 11.9387L29.8386 32.7728C30.6533 33.3576 31.5797 33.7684 32.56 33.9795C33.5404 34.1907 34.5538 34.1977 35.537 34.0002C36.5202 33.8027 37.4522 33.4048 38.2749 32.8314C39.0977 32.2579 39.7935 31.5212 40.3191 30.6671L58.8634 0.31165C58.9063 0.239159 58.9632 0.175921 59.0308 0.125628C59.0983 0.0753353 59.1752 0.038984 59.257 0.0186947C59.3387 -0.00159467 59.4237 -0.0054114 59.507 0.00745178C59.5902 0.020315 59.6701 0.0496054 59.7419 0.0936247C59.8137 0.137644 59.8761 0.195505 59.9253 0.263848C59.9746 0.332192 60.0097 0.40965 60.0288 0.491711C60.0478 0.573771 60.0503 0.658795 60.0362 0.741836C60.022 0.824878 59.9915 0.904283 59.9464 0.975417L41.4021 31.3277C40.7856 32.3313 39.9689 33.1971 39.003 33.8711C38.0371 34.5451 36.9427 35.0129 35.788 35.2453C34.6334 35.4777 33.4432 35.4698 32.2917 35.222C31.1403 34.9742 30.0522 34.4918 29.0954 33.805Z" fill="#18753C"/>
<path d="M68.0386 44.1798C67.9052 44.1796 67.7751 44.1374 67.667 44.0591L43.5014 26.5915C43.365 26.4925 43.2734 26.3434 43.2469 26.1769C43.2204 26.0105 43.2611 25.8403 43.3601 25.7038C43.4591 25.5674 43.6082 25.4758 43.7746 25.4493C43.9411 25.4228 44.1113 25.4635 44.2478 25.5625L68.4102 43.0301C68.5189 43.1088 68.5998 43.2198 68.6415 43.3473C68.6832 43.4749 68.6834 43.6123 68.6421 43.7399C68.6009 43.8676 68.5202 43.9789 68.4118 44.0579C68.3034 44.1369 68.1728 44.1796 68.0386 44.1798ZM9.25858 55.991C9.14767 55.9898 9.03902 55.9596 8.94343 55.9033C8.84784 55.8471 8.76864 55.7668 8.71372 55.6704C8.6588 55.5741 8.63006 55.465 8.63037 55.3541C8.63068 55.2432 8.66003 55.1343 8.71549 55.0383L24.2585 29.5959C24.3014 29.5234 24.3583 29.4602 24.4259 29.4099C24.4934 29.3596 24.5703 29.3233 24.6521 29.303C24.7339 29.2827 24.8188 29.2789 24.9021 29.2917C24.9853 29.3046 25.0652 29.3339 25.137 29.3779C25.2088 29.4219 25.2712 29.4798 25.3204 29.5481C25.3697 29.6165 25.4048 29.6939 25.4239 29.776C25.4429 29.858 25.4454 29.9431 25.4313 30.0261C25.4171 30.1092 25.3866 30.1886 25.3415 30.2597L9.79848 55.6893C9.74165 55.7815 9.66222 55.8575 9.56773 55.9103C9.47324 55.9631 9.36682 55.9909 9.25858 55.991Z" fill="#18753C"/>
</svg>
