<svg width="114" height="24" viewBox="0 0 114 24" fill="none" xmlns="http://www.w3.org/2000/svg">
<path d="M3.75 18.3749V13.2446C3.75 12.6984 3.99511 12.2442 4.36017 11.9446L3.63253 11.3993C3.3472 11.187 3.03113 11.0812 2.71875 11.0648C1.81237 11.0171 0.9375 11.721 0.9375 12.753V18.3749C0.9375 20.9637 3.03614 23.0624 5.625 23.0624H8.4375C5.84864 23.0624 3.75 20.9637 3.75 18.3749Z" fill="#CEE1F2"/>
<path d="M18.375 24H5.625C2.52338 24 0 21.4766 0 18.375V12.753C0 12.0242 0.287906 11.3497 0.810703 10.8537C1.33631 10.355 2.04947 10.0911 2.76806 10.1285C3.28008 10.1555 3.77259 10.3348 4.19231 10.6472L9.71953 14.7893C9.72164 14.7909 9.72375 14.7925 9.72586 14.7941C11.0649 15.8154 12.9352 15.8154 14.2742 14.7941C14.2763 14.7925 14.2784 14.7909 14.2805 14.7893L19.8052 10.649C20.2275 10.3348 20.72 10.1555 21.232 10.1285C21.9496 10.0909 22.6636 10.355 23.1893 10.8537C23.7121 11.3497 24 12.0242 24 12.753V18.375C24 21.4766 21.4766 24 18.375 24ZM2.63273 12C2.44027 12 2.24395 12.0785 2.10117 12.214C1.998 12.3119 1.875 12.4848 1.875 12.753V18.375C1.875 20.4427 3.55725 22.125 5.625 22.125H18.375C20.4427 22.125 22.125 20.4427 22.125 18.375V12.753C22.125 12.4848 22.002 12.3119 21.8988 12.214C21.747 12.0698 21.5355 11.9904 21.3306 12.001C21.1868 12.0085 21.0511 12.0591 20.9272 12.1514L15.408 16.2875C13.4009 17.8161 10.5992 17.8161 8.59205 16.2875L3.07031 12.1495C2.94886 12.0591 2.8132 12.0085 2.66948 12.001C2.65725 12.0004 2.64502 12 2.63273 12V12ZM21.75 7.35938V5.625C21.75 2.52338 19.2266 0 16.125 0H7.96875C4.86713 0 2.34375 2.52338 2.34375 5.625V7.35938C2.34375 7.87716 2.76347 8.29688 3.28125 8.29688C3.79903 8.29688 4.21875 7.87716 4.21875 7.35938V5.625C4.21875 3.55725 5.901 1.875 7.96875 1.875H16.125C18.1927 1.875 19.875 3.55725 19.875 5.625V7.35938C19.875 7.87716 20.2947 8.29688 20.8125 8.29688C21.3303 8.29688 21.75 7.87716 21.75 7.35938Z" fill="#000091"/>
<path d="M13.4062 11.0625H8.34375C7.82597 11.0625 7.40625 10.6428 7.40625 10.125C7.40625 9.60722 7.82597 9.1875 8.34375 9.1875H13.4062C13.924 9.1875 14.3438 9.60722 14.3438 10.125C14.3438 10.6428 13.924 11.0625 13.4062 11.0625ZM16.6875 6.51562C16.6875 5.99784 16.2678 5.57812 15.75 5.57812H8.34375C7.82597 5.57812 7.40625 5.99784 7.40625 6.51562C7.40625 7.03341 7.82597 7.45312 8.34375 7.45312H15.75C16.2678 7.45312 16.6875 7.03341 16.6875 6.51562Z" fill="#0063CB"/>
<path d="M61.4338 18.331C61.1243 18.331 60.8107 18.2693 60.5074 18.1428C59.6103 17.769 59.0307 16.8939 59.0307 15.9135V13.9223C59.0307 13.4045 59.4504 12.9848 59.9682 12.9848C60.4859 12.9848 60.9056 13.4045 60.9056 13.9223V15.9135C60.9056 16.2421 61.1315 16.3717 61.2287 16.4122C61.3221 16.4512 61.5636 16.5179 61.7867 16.2968L64.7444 13.3648C65.1103 13.0022 65.3118 12.5177 65.3118 12.0005C65.3118 11.4834 65.1103 10.9988 64.7444 10.6362L61.7867 7.70417C61.5636 7.48302 61.3221 7.54986 61.2287 7.58876C61.1316 7.62926 60.9056 7.75887 60.9056 8.0875V10.1725C60.9056 10.6902 60.4859 11.1099 59.9682 11.1099H48.8124C48.2955 11.1099 47.8749 11.5305 47.8749 12.0474C47.8749 12.5643 48.2955 12.9848 48.8124 12.9848H50.3123C50.8301 12.9848 51.2498 13.4045 51.2498 13.9223C51.2498 14.4401 50.8301 14.8598 50.3123 14.8598H48.8124C47.2616 14.8598 46 13.5981 46 12.0474C46 10.4966 47.2616 9.23499 48.8124 9.23499H59.0307V8.0875C59.0307 7.10705 59.6103 6.23202 60.5074 5.85812C61.4108 5.48149 62.4067 5.67878 63.1066 6.3726L66.0644 9.3046C66.7881 10.022 67.1866 10.9794 67.1866 12.0005C67.1866 13.0216 66.7881 13.979 66.0644 14.6964L63.1066 17.6284C62.6417 18.0892 62.0461 18.331 61.4338 18.331Z" fill="#000091"/>
<path d="M56.4058 14.8593H53.8747C53.3569 14.8593 52.9372 14.4396 52.9372 13.9218C52.9372 13.4041 53.3569 12.9844 53.8747 12.9844H56.4058C56.9236 12.9844 57.3433 13.4041 57.3433 13.9218C57.3433 14.4396 56.9236 14.8593 56.4058 14.8593Z" fill="#0063CB"/>
<path d="M100.448 11.4566C99.9237 11.6265 99.3645 11.7188 98.7838 11.7188C95.8066 11.7188 93.3931 9.3053 93.3931 6.32812C93.3931 3.35095 95.8066 0.9375 98.7838 0.9375C99.3645 0.9375 99.9237 1.02975 100.448 1.19967C98.2851 1.90097 96.7213 3.93173 96.7213 6.32812C96.7213 8.72452 98.2851 10.7553 100.448 11.4566V11.4566ZM105.241 20.25V18.9844C105.241 17.4311 106.501 16.1719 108.054 16.1719H105.241C103.688 16.1719 102.429 17.4311 102.429 18.9844V20.25C102.429 21.8033 103.688 23.0625 105.241 23.0625H108.054C106.501 23.0625 105.241 21.8033 105.241 20.25Z" fill="#CEE1F2"/>
<path d="M109.694 15.4388V14.2031C109.694 12.6523 108.433 11.3906 106.882 11.3906C105.331 11.3906 104.069 12.6523 104.069 14.2031V15.4229C102.574 15.9162 101.491 17.3258 101.491 18.9844V20.25C101.491 22.3177 103.174 24 105.241 24H108.476C110.543 24 112.226 22.3177 112.226 20.25V18.9844C112.226 17.3432 111.166 15.9459 109.694 15.4388ZM105.944 14.2031C105.944 13.6862 106.365 13.2656 106.882 13.2656C107.399 13.2656 107.819 13.6862 107.819 14.2031V15.2344H105.944V14.2031ZM110.351 20.25C110.351 21.2839 109.51 22.125 108.476 22.125H105.241C104.207 22.125 103.366 21.2839 103.366 20.25V18.9844C103.366 17.9505 104.207 17.1094 105.241 17.1094H108.476C109.51 17.1094 110.351 17.9505 110.351 18.9844V20.25ZM105.616 6.32812C105.616 2.8388 102.778 0 99.2882 0C95.7989 0 92.9601 2.8388 92.9601 6.32812C92.9601 9.81745 95.7989 12.6562 99.2882 12.6562C102.778 12.6562 105.616 9.81745 105.616 6.32812ZM99.2882 10.7812C96.8327 10.7812 94.8351 8.78358 94.8351 6.32812C94.8351 3.87267 96.8327 1.875 99.2882 1.875C101.744 1.875 103.741 3.87267 103.741 6.32812C103.741 8.78358 101.744 10.7812 99.2882 10.7812Z" fill="#000091"/>
<path d="M91.0851 24C90.5673 24 90.1476 23.5803 90.1476 23.0625C90.1476 18.3584 93.9747 14.5312 98.6788 14.5312H99.6163C100.134 14.5312 100.554 14.951 100.554 15.4688C100.554 15.9865 100.134 16.4062 99.6163 16.4062H98.6788C95.0086 16.4062 92.0226 19.3922 92.0226 23.0625C92.0226 23.5803 91.6028 24 91.0851 24ZM106.851 18.4688C106.203 18.4688 105.679 18.9934 105.679 19.6406C105.679 20.2878 106.203 20.8125 106.851 20.8125C107.498 20.8125 108.023 20.2878 108.023 19.6406C108.023 18.9934 107.498 18.4688 106.851 18.4688Z" fill="#0063CB"/>
</svg>
