<svg width="75" height="75" viewBox="0 0 75 75" fill="none" xmlns="http://www.w3.org/2000/svg">
<path d="M36.7131 74.6795C52.9419 74.6795 66.098 61.5235 66.098 45.2946C66.098 29.0658 52.9419 15.9097 36.7131 15.9097C20.4842 15.9097 7.32812 29.0658 7.32812 45.2946C7.32812 61.5235 20.4842 74.6795 36.7131 74.6795Z" fill="white"/>
<path d="M33.8691 16.3661C33.7842 16.3661 33.7027 16.3324 33.6426 16.2723C33.5826 16.2123 33.5488 16.1308 33.5488 16.0459V9.59078C33.5488 9.50584 33.5826 9.42438 33.6426 9.36432C33.7027 9.30426 33.7842 9.27051 33.8691 9.27051H38.9262C39.0111 9.27051 39.0926 9.30426 39.1527 9.36432C39.2127 9.42438 39.2465 9.50584 39.2465 9.59078V15.9962C39.2465 16.0812 39.2127 16.1626 39.1527 16.2227C39.0926 16.2827 39.0111 16.3165 38.9262 16.3165C38.8413 16.3165 38.7598 16.2827 38.6997 16.2227C38.6397 16.1626 38.6059 16.0812 38.6059 15.9962V9.91105H34.1894V16.0459C34.1894 16.1308 34.1556 16.2123 34.0956 16.2723C34.0355 16.3324 33.954 16.3661 33.8691 16.3661Z" fill="#000091"/>
<path d="M36.7132 74.9997C32.7159 75.0138 28.7575 74.2141 25.0792 72.6493C21.4008 71.0844 18.0795 68.7872 15.3175 65.8976C15.2578 65.8376 15.2243 65.7564 15.2243 65.6718C15.2243 65.5872 15.2578 65.506 15.3175 65.446C15.3472 65.4162 15.3825 65.3926 15.4214 65.3765C15.4603 65.3604 15.502 65.3521 15.5441 65.3521C15.5862 65.3521 15.6278 65.3604 15.6667 65.3765C15.7056 65.3926 15.7409 65.4162 15.7707 65.446C18.4734 68.273 21.7232 70.5203 25.3222 72.0513C28.9212 73.5822 32.7942 74.3647 36.7052 74.3512C52.7316 74.3512 65.7699 61.3129 65.7699 45.2865C65.7699 29.2601 52.7316 16.2218 36.7052 16.2218C20.6788 16.2218 7.64056 29.2601 7.64056 45.2865C7.63355 50.833 9.21927 56.2649 12.2092 60.9366C12.2551 61.0081 12.2707 61.095 12.2525 61.178C12.2343 61.2611 12.1839 61.3335 12.1124 61.3794C12.0408 61.4252 11.9539 61.4408 11.8709 61.4226C11.7879 61.4044 11.7154 61.354 11.6696 61.2825C8.614 56.5074 6.9933 50.9555 7.00002 45.2865C7.00002 28.9062 20.3249 15.5813 36.7052 15.5813C53.0855 15.5813 66.4104 28.9062 66.4104 45.2865C66.4104 61.6668 53.0919 74.9997 36.7132 74.9997Z" fill="#000091"/>
<path d="M36.714 70.8875C50.8486 70.8875 62.3069 59.4292 62.3069 45.2946C62.3069 31.16 50.8486 19.7017 36.714 19.7017C22.5794 19.7017 11.1211 31.16 11.1211 45.2946C11.1211 59.4292 22.5794 70.8875 36.714 70.8875Z" fill="#18753C"/>
<path d="M38.9266 12.5324C38.853 12.5329 38.7814 12.508 38.724 12.4619C38.6665 12.4158 38.6268 12.3513 38.6113 12.2792C38.5959 12.2072 38.6058 12.1321 38.6393 12.0665C38.6728 12.0009 38.7279 11.9488 38.7953 11.9191C40.0287 11.3699 41.036 10.4139 41.6489 9.21087C42.2618 8.00789 42.443 6.63094 42.1623 5.31035C41.8815 3.98975 41.1558 2.8056 40.1066 1.95597C39.0574 1.10634 37.7482 0.642748 36.3981 0.642748C35.048 0.642748 33.7388 1.10634 32.6896 1.95597C31.6403 2.8056 30.9146 3.98975 30.6339 5.31035C30.3532 6.63094 30.5344 8.00789 31.1473 9.21087C31.7601 10.4139 32.7675 11.3699 34.0008 11.9191C34.0393 11.9364 34.074 11.961 34.103 11.9917C34.1319 12.0223 34.1546 12.0584 34.1696 12.0978C34.1846 12.1372 34.1917 12.1792 34.1905 12.2213C34.1893 12.2635 34.1798 12.305 34.1626 12.3435C34.1453 12.382 34.1207 12.4167 34.09 12.4456C34.0594 12.4746 34.0233 12.4972 33.9839 12.5122C33.9445 12.5273 33.9025 12.5344 33.8604 12.5332C33.8182 12.532 33.7767 12.5225 33.7382 12.5052C32.3704 11.8962 31.2533 10.836 30.5736 9.50191C29.8939 8.16784 29.6928 6.64084 30.0042 5.17632C30.3155 3.7118 31.1202 2.39859 32.2838 1.45635C33.4474 0.514117 34.8992 0 36.3965 0C37.8937 0 39.3456 0.514117 40.5091 1.45635C41.6727 2.39859 42.4775 3.7118 42.7888 5.17632C43.1001 6.64084 42.8991 8.16784 42.2194 9.50191C41.5397 10.836 40.4225 11.8962 39.0547 12.5052C39.0145 12.5233 38.9708 12.5326 38.9266 12.5324Z" fill="#000091"/>
<path d="M36.7136 25.393C36.6287 25.393 36.5472 25.3593 36.4872 25.2992C36.4271 25.2391 36.3934 25.1577 36.3934 25.0727V23.1767C36.3934 23.0918 36.4271 23.0103 36.4872 22.9502C36.5472 22.8902 36.6287 22.8564 36.7136 22.8564C36.7986 22.8564 36.88 22.8902 36.9401 22.9502C37.0002 23.0103 37.0339 23.0918 37.0339 23.1767V25.0727C37.0339 25.1577 37.0002 25.2391 36.9401 25.2992C36.88 25.3593 36.7986 25.393 36.7136 25.393ZM36.7136 67.7329C36.6287 67.7329 36.5472 67.6992 36.4872 67.6391C36.4271 67.5791 36.3934 67.4976 36.3934 67.4127V65.5102C36.3934 65.4253 36.4271 65.3438 36.4872 65.2838C36.5472 65.2237 36.6287 65.19 36.7136 65.19C36.7986 65.19 36.88 65.2237 36.9401 65.2838C37.0002 65.3438 37.0339 65.4253 37.0339 65.5102V67.4063C37.0348 67.4488 37.0271 67.4912 37.0114 67.5308C36.9957 67.5704 36.9722 67.6064 36.9424 67.6369C36.9126 67.6673 36.877 67.6915 36.8377 67.7079C36.7984 67.7244 36.7562 67.7329 36.7136 67.7329ZM58.83 45.615H56.9356C56.8507 45.615 56.7692 45.5812 56.7091 45.5211C56.6491 45.4611 56.6153 45.3796 56.6153 45.2947C56.6153 45.2097 56.6491 45.1283 56.7091 45.0682C56.7692 45.0082 56.8507 44.9744 56.9356 44.9744H58.83C58.9149 44.9744 58.9964 45.0082 59.0565 45.0682C59.1165 45.1283 59.1503 45.2097 59.1503 45.2947C59.1503 45.3796 59.1165 45.4611 59.0565 45.5211C58.9964 45.5812 58.9149 45.615 58.83 45.615ZM16.4917 45.615H14.5957C14.5107 45.615 14.4293 45.5812 14.3692 45.5211C14.3091 45.4611 14.2754 45.3796 14.2754 45.2947C14.2754 45.2097 14.3091 45.1283 14.3692 45.0682C14.4293 45.0082 14.5107 44.9744 14.5957 44.9744H16.4917C16.5766 44.9744 16.6581 45.0082 16.7181 45.0682C16.7782 45.1283 16.8119 45.2097 16.8119 45.2947C16.8119 45.3796 16.7782 45.4611 16.7181 45.5211C16.6581 45.5812 16.5766 45.615 16.4917 45.615ZM26.5962 28.1025C26.5398 28.1027 26.4843 28.088 26.4354 28.0599C26.3865 28.0318 26.3458 27.9912 26.3176 27.9424L25.3712 26.2994C25.348 26.2629 25.3325 26.2222 25.3255 26.1795C25.3185 26.1369 25.3201 26.0933 25.3304 26.0514C25.3407 26.0094 25.3593 25.97 25.3853 25.9354C25.4112 25.9008 25.4438 25.8719 25.4812 25.8503C25.5186 25.8286 25.56 25.8148 25.6029 25.8096C25.6458 25.8044 25.6892 25.8079 25.7307 25.82C25.7722 25.832 25.8108 25.8523 25.8443 25.8796C25.8777 25.907 25.9053 25.9408 25.9253 25.9791L26.8733 27.6221C26.9157 27.6956 26.9272 27.7829 26.9053 27.8649C26.8833 27.9468 26.8298 28.0167 26.7564 28.0593C26.7077 28.0875 26.6525 28.1024 26.5962 28.1025ZM47.7726 64.7688C47.7162 64.769 47.6607 64.7543 47.6118 64.7262C47.5628 64.6981 47.5222 64.6576 47.494 64.6087L46.546 62.9673C46.5035 62.8936 46.492 62.8061 46.5141 62.7239C46.5362 62.6418 46.59 62.5718 46.6637 62.5293C46.7374 62.4868 46.8249 62.4754 46.907 62.4974C46.9892 62.5195 47.0592 62.5733 47.1016 62.647L48.0545 64.2884C48.0969 64.3619 48.1084 64.4492 48.0864 64.5312C48.0645 64.6131 48.011 64.683 47.9376 64.7256C47.8877 64.7552 47.8306 64.7701 47.7726 64.7688ZM54.2261 35.504C54.1557 35.5039 54.0873 35.4805 54.0315 35.4376C53.9757 35.3947 53.9355 35.3346 53.9173 35.2666C53.8991 35.1986 53.9038 35.1265 53.9306 35.0615C53.9575 34.9964 54.0051 34.942 54.066 34.9067L55.7073 33.9635C55.7805 33.9252 55.8657 33.9167 55.945 33.9397C56.0244 33.9627 56.0918 34.0155 56.1331 34.087C56.1744 34.1585 56.1865 34.2432 56.1669 34.3235C56.1472 34.4037 56.0973 34.4732 56.0276 34.5175L54.3862 35.4655C54.3371 35.4921 54.2819 35.5053 54.2261 35.504ZM17.5582 56.6739C17.502 56.6739 17.4469 56.6591 17.3982 56.6309C17.3496 56.6028 17.3092 56.5624 17.2811 56.5138C17.2599 56.4773 17.2461 56.437 17.2405 56.3952C17.2348 56.3534 17.2375 56.3109 17.2484 56.2701C17.2593 56.2294 17.2781 56.1911 17.3038 56.1576C17.3294 56.1242 17.3615 56.0961 17.398 56.075L19.0394 55.1286C19.0759 55.1055 19.1166 55.0899 19.1593 55.0829C19.2019 55.0759 19.2455 55.0776 19.2874 55.0878C19.3294 55.0981 19.3688 55.1168 19.4034 55.1427C19.438 55.1686 19.4669 55.2012 19.4885 55.2386C19.5102 55.276 19.524 55.3174 19.5292 55.3603C19.5344 55.4032 19.5309 55.4467 19.5188 55.4882C19.5068 55.5296 19.4865 55.5682 19.4592 55.6017C19.4318 55.6351 19.398 55.6627 19.3597 55.6827L17.7183 56.6307C17.6697 56.6589 17.6144 56.6738 17.5582 56.6739ZM46.823 28.1025C46.7668 28.1024 46.7115 28.0875 46.6629 28.0593C46.6264 28.0383 46.5944 28.0104 46.5687 27.9771C46.543 27.9438 46.5241 27.9058 46.5131 27.8652C46.5021 27.8246 46.4992 27.7823 46.5045 27.7405C46.5099 27.6988 46.5235 27.6586 46.5444 27.6221L47.4924 25.9791C47.5348 25.9054 47.6049 25.8516 47.687 25.8295C47.7691 25.8075 47.8567 25.8189 47.9303 25.8614C48.004 25.9039 48.0578 25.9739 48.0799 26.056C48.102 26.1381 48.0905 26.2257 48.0481 26.2994L47.1 27.9424C47.072 27.991 47.0316 28.0314 46.983 28.0595C46.9343 28.0876 46.8792 28.1024 46.823 28.1025ZM25.6546 64.7688C25.5983 64.7694 25.5429 64.7545 25.4945 64.7256C25.4211 64.683 25.3676 64.6131 25.3456 64.5312C25.3237 64.4492 25.3352 64.3619 25.3776 64.2884L26.324 62.647C26.3665 62.5733 26.4365 62.5195 26.5186 62.4974C26.6008 62.4754 26.6883 62.4868 26.762 62.5293C26.8357 62.5718 26.8895 62.6418 26.9115 62.7239C26.9336 62.8061 26.9222 62.8936 26.8797 62.9673L25.9317 64.6087C25.9036 64.6573 25.8632 64.6977 25.8146 64.7258C25.766 64.7539 25.7108 64.7688 25.6546 64.7688ZM19.1996 35.504C19.1433 35.5039 19.0881 35.489 19.0394 35.4607L17.398 34.5127C17.3283 34.4684 17.2784 34.3989 17.2588 34.3187C17.2391 34.2384 17.2512 34.1537 17.2926 34.0822C17.3339 34.0107 17.4013 33.9579 17.4806 33.9349C17.56 33.9118 17.6451 33.9204 17.7183 33.9587L19.3597 34.9067C19.4206 34.942 19.4682 34.9964 19.495 35.0615C19.5219 35.1265 19.5266 35.1986 19.5083 35.2666C19.4901 35.3346 19.45 35.3947 19.3942 35.4376C19.3384 35.4805 19.27 35.5039 19.1996 35.504ZM55.8675 56.6739C55.8112 56.6738 55.756 56.6589 55.7073 56.6307L54.066 55.6827C54.0277 55.6627 53.9939 55.6351 53.9665 55.6017C53.9392 55.5682 53.9189 55.5296 53.9068 55.4882C53.8948 55.4467 53.8913 55.4032 53.8965 55.3603C53.9017 55.3174 53.9155 55.276 53.9371 55.2386C53.9588 55.2012 53.9877 55.1686 54.0223 55.1427C54.0568 55.1168 54.0963 55.0981 54.1382 55.0878C54.1802 55.0776 54.2238 55.0759 54.2664 55.0829C54.309 55.0899 54.3498 55.1055 54.3862 55.1286L56.0276 56.075C56.0893 56.11 56.1377 56.1644 56.1651 56.2298C56.1925 56.2952 56.1974 56.3679 56.1791 56.4364C56.1608 56.5049 56.1203 56.5654 56.0639 56.6084C56.0075 56.6514 55.9384 56.6744 55.8675 56.6739Z" fill="white"/>
<path d="M35.6602 27.4956H37.7659V49.6136H35.6602V27.4956Z" fill="white"/>
<path d="M36.7139 47.7175C38.052 47.7175 39.1367 46.6328 39.1367 45.2947C39.1367 43.9566 38.052 42.8718 36.7139 42.8718C35.3758 42.8718 34.291 43.9566 34.291 45.2947C34.291 46.6328 35.3758 47.7175 36.7139 47.7175Z" fill="white"/>
</svg>
