<svg width="208" height="54" viewBox="0 0 208 54" fill="none" xmlns="http://www.w3.org/2000/svg">
  <rect y="0.5" width="208" height="53" rx="4" fill="#1212ff"/>
  <g clip-path="url(#clip0_328_78338)">
    <path
      d="M17.9341 38.4951C17.9207 38.0928 18.001 37.7038 18.1752 37.3417L23.1992 27.3504C23.3465 27.0553 23.2662 26.7334 23.0518 26.492C21.1628 24.534 20.7877 21.4762 22.6231 19.1159C23.8422 17.5468 25.9188 16.7018 27.9552 16.8628C25.5571 18.1771 23.9896 20.6984 24.137 23.5282C24.2442 25.5264 25.1954 27.2833 26.6423 28.5171C26.5887 28.5574 26.5217 28.5976 26.4815 28.6781L24.6863 32.2455C24.271 32.5137 22.891 31.9504 22.6767 32.3796C22.4623 32.8087 23.7753 33.4793 23.8288 33.9621C23.8422 34.123 23.6681 34.4181 23.5475 34.5254C23.1992 34.807 21.9666 34.5924 21.7657 34.9948C21.5647 35.3971 22.7035 35.9872 22.6901 36.4298C22.6901 36.7248 22.5025 36.9394 22.248 37.1003C21.8327 37.3686 20.9082 37.0064 20.6939 37.4356C20.4795 37.8648 21.3504 38.3342 21.3905 38.8036C21.4173 39.0584 21.1494 39.5948 20.9216 39.7423C20.091 40.2788 18.5503 40.8555 18.5503 40.8555C18.336 40.9091 17.9876 40.1983 18.001 39.8899L17.9341 38.5085V38.4951Z"
      fill="#C9191E"/>
    <path
      d="M25.919 12.7858C26.0797 12.8796 26.3209 12.8394 26.4147 12.665C27.3659 11.1496 29.0807 10.2108 30.8626 10.2108C33.7698 10.2108 36.1277 12.5578 36.1277 15.468C36.1277 16.6482 35.7258 17.7345 35.0693 18.6196C34.4798 19.4243 33.6492 20.0412 32.6846 20.3899C32.1219 20.6045 31.5056 20.7252 30.8626 20.7252C30.675 20.7252 30.5276 20.8861 30.5276 21.0739C30.5276 21.2616 30.675 21.4226 30.8626 21.4226C31.5726 21.4226 32.2291 21.3019 32.8454 21.0739C33.3947 20.8861 33.8904 20.6179 34.3325 20.296C34.5736 20.1351 34.788 19.9473 34.9889 19.7462C35.1765 19.5316 35.364 19.317 35.5516 19.1024C36.3554 18.11 36.8244 16.8359 36.8244 15.4546C36.8244 12.1688 34.1583 9.5 30.8492 9.5C28.8128 9.5 26.8836 10.5595 25.8118 12.2895C25.6912 12.4505 25.7448 12.6651 25.9056 12.7858H25.919Z"
      fill="white"/>
    <path
      d="M24.9676 21.9859C25.4365 19.5853 27.4729 17.6272 29.938 17.2115C31.7199 16.9164 33.3811 17.3858 34.6673 18.3112C34.0912 19.0622 33.3141 19.6389 32.4031 19.9608C32.0682 19.5719 31.5993 19.317 31.0366 19.317C30.0586 19.317 29.2548 20.1083 29.2548 21.0739C29.2548 22.0261 30.0586 22.8174 31.0366 22.8174C31.8404 22.8174 32.4969 22.2943 32.7246 21.597C33.984 21.208 35.0826 20.457 35.8864 19.4377C36.717 20.4704 37.2127 21.7579 37.2127 23.1661C37.2127 25.7544 35.5515 27.9807 33.1936 28.8256C32.9792 28.9061 32.8318 29.0938 32.8318 29.3218V33.4793C32.5773 33.9085 31.0768 33.9755 31.0768 34.4717C31.0768 34.968 32.5773 35.035 32.8318 35.4642C32.9122 35.6117 32.8988 35.9604 32.8318 36.1213C32.6443 36.5371 31.4251 36.8723 31.4251 37.3417C31.4251 37.7977 32.7246 37.8782 32.9256 38.2939C33.0596 38.5756 32.9926 38.8572 32.8318 39.112C32.5773 39.5412 31.5725 39.6082 31.5725 40.1045C31.5725 40.6007 32.5773 40.6677 32.8318 41.0969C32.9658 41.3383 32.9658 41.9552 32.8318 42.1832C32.3227 43.0415 31.184 44.2619 31.184 44.2619C31.0098 44.4095 30.3801 43.873 30.2462 43.5914L29.5495 42.3173C29.3485 41.9552 29.2414 41.5395 29.2414 41.1237V29.523C29.2414 29.1877 29.027 28.9061 28.7189 28.7854C26.1064 27.7527 24.3782 25.0436 24.9676 22.0127V21.9859Z"
      fill="white"/>
    <path
      d="M19.7027 15.696C21.5917 14.1268 24.4051 13.9123 26.5754 15.1729C27.3525 15.6289 27.4597 15.6021 27.9554 16.2592C25.6778 15.3741 23.5343 16.5677 21.8998 18.566C19.984 20.8995 20.2117 24.2791 22.3285 26.3713C22.1276 26.3177 21.9132 26.2774 21.7122 26.2104C21.4979 26.1299 21.2701 26.1835 21.1228 26.3579L18.4835 29.5632C18.0146 29.7375 16.8088 28.8256 16.5007 29.2145C16.1926 29.6034 17.3045 30.6092 17.2242 31.0921C17.1974 31.253 16.9562 31.5212 16.8088 31.5883C16.3935 31.7894 15.2414 31.2798 14.9466 31.6285C14.6519 31.9772 15.6165 32.8623 15.4959 33.3183C15.4155 33.6134 15.1878 33.7877 14.9064 33.895C14.4375 34.0693 13.6203 33.4792 13.3122 33.8548C13.004 34.2303 13.7275 34.9277 13.6471 35.4239C13.6069 35.6921 13.205 36.1749 12.9504 36.2688C12.0126 36.6175 10.3648 36.8321 10.3648 36.8321C10.137 36.8321 9.98963 36.0274 10.07 35.7189L10.338 34.2973C10.4183 33.8816 10.5925 33.5061 10.8605 33.1842L18.2156 24.2255C18.4299 23.9707 18.4433 23.6086 18.2825 23.3135C16.916 20.8593 17.3045 17.6674 19.6759 15.696H19.7027Z"
      fill="#0071BC"/>
  </g>
  <path
    d="M47.986 19.868C49.023 21.16 50.332 21.823 52.1 21.823C54.174 21.823 55.755 20.497 55.755 18.474C55.755 14.666 50.128 14.989 50.128 12.422C50.128 11.436 50.859 10.688 51.964 10.688C53.001 10.688 53.851 11.232 54.548 12.235L55.738 11.198C54.854 10.025 53.63 9.26 51.947 9.26C49.924 9.26 48.496 10.722 48.496 12.456C48.496 16.247 54.123 15.941 54.123 18.491C54.123 19.579 53.375 20.395 52.083 20.395C50.961 20.395 49.975 19.851 49.142 18.797L47.986 19.868ZM58.8029 14.156L60.5539 9.6H58.9049L57.4599 14.156H58.8029ZM63.6214 10.705C64.1824 10.705 64.6244 10.246 64.6244 9.685C64.6244 9.141 64.1824 8.682 63.6214 8.682C63.0604 8.682 62.6014 9.141 62.6014 9.685C62.6014 10.246 63.0604 10.705 63.6214 10.705ZM62.8904 21.5H64.3354V12.932H62.8904V21.5ZM66.6584 17.216C66.6584 19.715 68.3754 21.84 71.0614 21.84C72.3024 21.84 73.3224 21.381 74.1044 20.548V21.5H75.5494V8.75H74.1044V13.884C73.3224 13.051 72.3024 12.592 71.0614 12.592C68.3754 12.592 66.6584 14.717 66.6584 17.216ZM68.1884 17.216C68.1884 15.397 69.4124 13.952 71.2314 13.952C72.4044 13.952 73.4244 14.513 74.1044 15.55V18.882C73.4414 19.902 72.4214 20.48 71.2314 20.48C69.4124 20.48 68.1884 19.035 68.1884 17.216ZM86.2114 20.089L85.1404 19.256C84.5794 20.021 83.6614 20.531 82.5734 20.531C80.6524 20.531 79.3604 19.154 79.3604 17.267V17.233H85.9224C85.9734 16.995 86.0244 16.655 86.0244 16.315C86.0244 14.173 84.5114 12.592 82.1824 12.592C79.5304 12.592 77.8644 14.615 77.8644 17.216C77.8644 19.715 79.6494 21.84 82.5394 21.84C84.1374 21.84 85.4124 21.16 86.2114 20.089ZM82.1994 13.833C83.6104 13.833 84.5114 14.853 84.5624 16.094H79.4794C79.8194 14.615 80.8054 13.833 82.1994 13.833ZM88.4734 21.5H89.9184V15.567C90.4624 14.666 91.2444 13.952 92.4854 13.952C93.8114 13.952 94.6614 14.836 94.6614 16.366V21.5H96.1234V16.315C96.1234 13.884 94.6954 12.592 92.7744 12.592C91.4994 12.592 90.6154 13.136 89.9184 13.901V12.932H88.4734V21.5ZM99.525 18.627C99.525 20.718 100.596 21.67 102.5 21.67C103.112 21.67 103.571 21.602 103.979 21.432V20.14C103.656 20.276 103.265 20.344 102.704 20.344C101.667 20.344 100.987 19.97 100.987 18.627V14.258H103.962V12.932H100.987V10.79H99.525V12.932H97.91V14.258H99.525V18.627ZM106.902 10.705C107.463 10.705 107.905 10.246 107.905 9.685C107.905 9.141 107.463 8.682 106.902 8.682C106.341 8.682 105.882 9.141 105.882 9.685C105.882 10.246 106.341 10.705 106.902 10.705ZM106.171 21.5H107.616V12.932H106.171V21.5ZM109.548 12.932V14.258H111.163V21.5H112.625V14.258H115.6V12.932H112.625V11.844C112.625 10.739 113.288 10.059 114.223 10.059C114.818 10.059 115.209 10.297 115.515 10.637L116.416 9.583C115.906 9.09 115.158 8.75 114.206 8.75C112.37 8.75 111.163 10.042 111.163 11.878V12.932H109.548ZM118.091 10.705C118.652 10.705 119.094 10.246 119.094 9.685C119.094 9.141 118.652 8.682 118.091 8.682C117.53 8.682 117.071 9.141 117.071 9.685C117.071 10.246 117.53 10.705 118.091 10.705ZM117.36 21.5H118.805V12.932H117.36V21.5ZM129.475 20.089L128.404 19.256C127.843 20.021 126.925 20.531 125.837 20.531C123.916 20.531 122.624 19.154 122.624 17.267V17.233H129.186C129.237 16.995 129.288 16.655 129.288 16.315C129.288 14.173 127.775 12.592 125.446 12.592C122.794 12.592 121.128 14.615 121.128 17.216C121.128 19.715 122.913 21.84 125.803 21.84C127.401 21.84 128.676 21.16 129.475 20.089ZM125.463 13.833C126.874 13.833 127.775 14.853 127.826 16.094H122.743C123.083 14.615 124.069 13.833 125.463 13.833ZM131.737 21.5H133.182V15.686C133.709 14.819 134.44 14.241 135.562 14.241C135.902 14.241 136.157 14.292 136.412 14.36V12.864C136.208 12.796 135.953 12.762 135.681 12.762C134.593 12.762 133.811 13.255 133.182 14.003V12.932H131.737V21.5ZM145.422 21.84C146.578 21.84 147.649 21.313 148.295 20.412V21.5H149.74V15.754C149.74 13.867 148.448 12.592 146.272 12.592C144.776 12.592 143.569 13.221 142.821 14.241L143.909 15.074C144.402 14.326 145.235 13.884 146.238 13.884C147.445 13.884 148.295 14.564 148.295 15.754V16.349L145.422 16.825C143.586 17.114 142.6 18.066 142.6 19.392C142.6 20.888 143.739 21.84 145.422 21.84ZM144.045 19.341C144.045 18.593 144.572 18.049 145.762 17.862L148.295 17.42V19.052C147.7 20.038 146.799 20.633 145.66 20.633C144.674 20.633 144.045 20.072 144.045 19.341ZM151.297 12.932L154.646 21.5H156.55L159.899 12.932H158.335L155.598 19.987L152.861 12.932H151.297ZM169.153 20.089L168.082 19.256C167.521 20.021 166.603 20.531 165.515 20.531C163.594 20.531 162.302 19.154 162.302 17.267V17.233H168.864C168.915 16.995 168.966 16.655 168.966 16.315C168.966 14.173 167.453 12.592 165.124 12.592C162.472 12.592 160.806 14.615 160.806 17.216C160.806 19.715 162.591 21.84 165.481 21.84C167.079 21.84 168.354 21.16 169.153 20.089ZM165.141 13.833C166.552 13.833 167.453 14.853 167.504 16.094H162.421C162.761 14.615 163.747 13.833 165.141 13.833ZM175.326 20.48C173.473 20.48 172.164 19.052 172.164 17.216C172.164 15.397 173.473 13.952 175.309 13.952C176.363 13.952 177.23 14.462 177.757 15.227L178.913 14.343C178.114 13.289 176.856 12.592 175.309 12.592C172.47 12.592 170.651 14.717 170.651 17.216C170.651 19.715 172.47 21.84 175.309 21.84C176.873 21.84 178.114 21.16 178.913 20.089L177.757 19.205C177.23 19.97 176.38 20.48 175.326 20.48Z"
    fill="white"/>
  <path
    d="M49.06 42.5V28.5H52.64L56.02 34.26L59.4 28.5H62.98V42.5H60.14V32.54L57.02 37.7H55.02L51.9 32.54V42.5H49.06ZM71.2106 32.02C72.024 32.02 72.7706 32.1667 73.4506 32.46C74.1306 32.74 74.7106 33.1267 75.1906 33.62C75.684 34.1 76.064 34.6733 76.3306 35.34C76.5973 36.0067 76.7306 36.7133 76.7306 37.46C76.7306 38.2067 76.5973 38.9133 76.3306 39.58C76.064 40.2467 75.684 40.8267 75.1906 41.32C74.7106 41.8 74.1306 42.1867 73.4506 42.48C72.7706 42.76 72.024 42.9 71.2106 42.9C70.3973 42.9 69.6506 42.76 68.9706 42.48C68.2906 42.1867 67.704 41.8 67.2106 41.32C66.7306 40.8267 66.3573 40.2467 66.0906 39.58C65.824 38.9133 65.6906 38.2067 65.6906 37.46C65.6906 36.7133 65.824 36.0067 66.0906 35.34C66.3573 34.6733 66.7306 34.1 67.2106 33.62C67.704 33.1267 68.2906 32.74 68.9706 32.46C69.6506 32.1667 70.3973 32.02 71.2106 32.02ZM71.2506 40.5C72.0506 40.5 72.724 40.2133 73.2706 39.64C73.8173 39.0533 74.0906 38.3267 74.0906 37.46C74.0906 36.58 73.8173 35.8533 73.2706 35.28C72.724 34.7067 72.0506 34.42 71.2506 34.42C70.4106 34.42 69.7106 34.7067 69.1506 35.28C68.604 35.8533 68.3306 36.58 68.3306 37.46C68.3306 38.34 68.604 39.0667 69.1506 39.64C69.7106 40.2133 70.4106 40.5 71.2506 40.5ZM79.0473 42.5V32.42H81.5873V33.22C81.934 32.8867 82.3473 32.6067 82.8273 32.38C83.3207 32.14 83.9007 32.02 84.5673 32.02C85.114 32.02 85.6207 32.1133 86.0873 32.3C86.5673 32.4867 86.9807 32.7667 87.3273 33.14C87.6873 33.5133 87.9673 33.98 88.1673 34.54C88.3807 35.1 88.4873 35.7533 88.4873 36.5V42.5H85.9073V36.6C85.9073 35.9333 85.7273 35.4067 85.3673 35.02C85.0207 34.62 84.5407 34.42 83.9273 34.42C83.2873 34.42 82.7807 34.5933 82.4073 34.94C82.0473 35.2733 81.774 35.6 81.5873 35.92V42.5H79.0473ZM98.1516 40.24C98.9516 40.24 99.6582 40.0667 100.272 39.72C100.898 39.36 101.412 38.8933 101.812 38.32L104.052 40.04C103.412 40.9067 102.585 41.6 101.572 42.12C100.558 42.64 99.4182 42.9 98.1516 42.9C97.0582 42.9 96.0516 42.7 95.1316 42.3C94.2116 41.9 93.4249 41.3667 92.7716 40.7C92.1182 40.0333 91.6116 39.2533 91.2516 38.36C90.8916 37.4533 90.7116 36.5 90.7116 35.5C90.7116 34.5 90.8916 33.5533 91.2516 32.66C91.6116 31.7533 92.1182 30.9667 92.7716 30.3C93.4249 29.6333 94.2116 29.1 95.1316 28.7C96.0516 28.3 97.0582 28.1 98.1516 28.1C99.4182 28.1 100.558 28.3667 101.572 28.9C102.585 29.42 103.412 30.1 104.052 30.94L101.812 32.68C101.412 32.1067 100.898 31.6467 100.272 31.3C99.6582 30.94 98.9516 30.76 98.1516 30.76C97.4982 30.76 96.8916 30.8867 96.3316 31.14C95.7716 31.38 95.2916 31.7133 94.8916 32.14C94.5049 32.5533 94.1982 33.0533 93.9716 33.64C93.7449 34.2133 93.6316 34.8333 93.6316 35.5C93.6316 36.1667 93.7449 36.7933 93.9716 37.38C94.1982 37.9533 94.5049 38.4533 94.8916 38.88C95.2916 39.2933 95.7716 39.6267 96.3316 39.88C96.8916 40.12 97.4982 40.24 98.1516 40.24ZM110.781 32.02C111.594 32.02 112.341 32.1667 113.021 32.46C113.701 32.74 114.281 33.1267 114.761 33.62C115.254 34.1 115.634 34.6733 115.901 35.34C116.168 36.0067 116.301 36.7133 116.301 37.46C116.301 38.2067 116.168 38.9133 115.901 39.58C115.634 40.2467 115.254 40.8267 114.761 41.32C114.281 41.8 113.701 42.1867 113.021 42.48C112.341 42.76 111.594 42.9 110.781 42.9C109.968 42.9 109.221 42.76 108.541 42.48C107.861 42.1867 107.274 41.8 106.781 41.32C106.301 40.8267 105.928 40.2467 105.661 39.58C105.394 38.9133 105.261 38.2067 105.261 37.46C105.261 36.7133 105.394 36.0067 105.661 35.34C105.928 34.6733 106.301 34.1 106.781 33.62C107.274 33.1267 107.861 32.74 108.541 32.46C109.221 32.1667 109.968 32.02 110.781 32.02ZM110.821 40.5C111.621 40.5 112.294 40.2133 112.841 39.64C113.388 39.0533 113.661 38.3267 113.661 37.46C113.661 36.58 113.388 35.8533 112.841 35.28C112.294 34.7067 111.621 34.42 110.821 34.42C109.981 34.42 109.281 34.7067 108.721 35.28C108.174 35.8533 107.901 36.58 107.901 37.46C107.901 38.34 108.174 39.0667 108.721 39.64C109.281 40.2133 109.981 40.5 110.821 40.5ZM118.618 42.5V32.42H121.158V33.18C121.491 32.8467 121.884 32.5733 122.338 32.36C122.791 32.1333 123.324 32.02 123.938 32.02C124.591 32.02 125.191 32.1733 125.738 32.48C126.298 32.7733 126.744 33.2067 127.078 33.78C127.451 33.3267 127.898 32.92 128.418 32.56C128.938 32.2 129.591 32.02 130.378 32.02C130.898 32.02 131.384 32.1133 131.838 32.3C132.291 32.4733 132.684 32.74 133.018 33.1C133.351 33.4467 133.611 33.8933 133.798 34.44C133.998 34.9733 134.098 35.5933 134.098 36.3V42.5H131.538V36.4C131.538 35.7867 131.378 35.3067 131.058 34.96C130.751 34.6 130.311 34.42 129.738 34.42C129.204 34.42 128.771 34.58 128.438 34.9C128.104 35.2067 127.838 35.5267 127.638 35.86C127.651 35.9267 127.658 36 127.658 36.08C127.658 36.16 127.658 36.2333 127.658 36.3V42.5H125.078V36.4C125.078 35.7867 124.924 35.3067 124.618 34.96C124.311 34.6 123.871 34.42 123.298 34.42C122.724 34.42 122.271 34.5933 121.938 34.94C121.604 35.2733 121.344 35.6 121.158 35.92V42.5H118.618ZM136.997 47.42V32.42H139.537V33.14C139.937 32.78 140.397 32.5067 140.917 32.32C141.437 32.12 142.023 32.02 142.677 32.02C143.477 32.02 144.19 32.1667 144.817 32.46C145.457 32.7533 145.997 33.1467 146.437 33.64C146.877 34.1333 147.21 34.7133 147.437 35.38C147.677 36.0333 147.797 36.7267 147.797 37.46C147.797 38.1933 147.677 38.8933 147.437 39.56C147.21 40.2133 146.877 40.7867 146.437 41.28C145.997 41.7733 145.457 42.1667 144.817 42.46C144.19 42.7533 143.477 42.9 142.677 42.9C142.023 42.9 141.437 42.8 140.917 42.6C140.397 42.4133 139.937 42.14 139.537 41.78V47.42H136.997ZM139.557 38.98C139.89 39.4733 140.283 39.8533 140.737 40.12C141.203 40.3733 141.73 40.5 142.317 40.5C143.17 40.5 143.857 40.2133 144.377 39.64C144.897 39.0667 145.157 38.34 145.157 37.46C145.157 36.58 144.897 35.8533 144.377 35.28C143.857 34.7067 143.17 34.42 142.317 34.42C141.73 34.42 141.203 34.5533 140.737 34.82C140.283 35.0733 139.89 35.4467 139.557 35.94L139.537 35.92V39L139.557 38.98ZM150.644 38.82V34.74H148.764V32.42H150.644V29.9H153.204V32.42H156.284V34.74H153.204V38.82C153.204 39.38 153.344 39.78 153.624 40.02C153.918 40.26 154.311 40.38 154.804 40.38C155.151 40.38 155.444 40.36 155.684 40.32C155.924 40.28 156.131 40.2267 156.304 40.16V42.38C156.051 42.4867 155.764 42.5667 155.444 42.62C155.138 42.6733 154.778 42.7 154.364 42.7C153.111 42.7 152.178 42.36 151.564 41.68C150.951 41 150.644 40.0467 150.644 38.82ZM167.644 40.86C167.177 41.4867 166.564 41.9867 165.804 42.36C165.044 42.72 164.19 42.9 163.244 42.9C162.35 42.9 161.55 42.7533 160.844 42.46C160.15 42.1667 159.564 41.7733 159.084 41.28C158.617 40.7867 158.257 40.2133 158.004 39.56C157.764 38.8933 157.644 38.1933 157.644 37.46C157.644 36.7133 157.757 36.0133 157.984 35.36C158.224 34.6933 158.564 34.1133 159.004 33.62C159.444 33.1267 159.984 32.74 160.624 32.46C161.264 32.1667 161.997 32.02 162.824 32.02C164.21 32.02 165.33 32.4467 166.184 33.3C167.037 34.14 167.464 35.22 167.464 36.54C167.464 36.82 167.444 37.0867 167.404 37.34C167.377 37.5933 167.344 37.8067 167.304 37.98H160.244C160.324 38.8067 160.637 39.4533 161.184 39.92C161.73 40.3867 162.43 40.62 163.284 40.62C163.83 40.62 164.324 40.5133 164.764 40.3C165.204 40.0733 165.557 39.78 165.824 39.42L167.644 40.86ZM162.824 34.14C162.21 34.14 161.697 34.3 161.284 34.62C160.87 34.9267 160.577 35.4067 160.404 36.06H164.944C164.93 35.5667 164.737 35.1267 164.364 34.74C164.004 34.34 163.49 34.14 162.824 34.14ZM170.486 42.5V28.5H175.106C176.639 28.5 177.846 28.8733 178.726 29.62C179.619 30.3667 180.066 31.3867 180.066 32.68C180.066 33.96 179.619 34.9733 178.726 35.72C177.846 36.4667 176.639 36.84 175.106 36.84H173.326V42.5H170.486ZM175.226 30.92H173.326V34.42H175.226C175.826 34.42 176.292 34.2667 176.626 33.96C176.972 33.6533 177.146 33.2133 177.146 32.64C177.146 32.1067 176.972 31.6867 176.626 31.38C176.292 31.0733 175.826 30.92 175.226 30.92ZM182.036 42.5V32.42H184.576V33.42C184.909 33.0867 185.289 32.8067 185.716 32.58C186.156 32.34 186.662 32.22 187.236 32.22C187.409 32.22 187.569 32.2333 187.716 32.26C187.862 32.2867 187.996 32.32 188.116 32.36V35.02C187.956 34.98 187.782 34.9467 187.596 34.92C187.422 34.8933 187.222 34.88 186.996 34.88C186.382 34.88 185.869 35.02 185.456 35.3C185.056 35.58 184.762 35.8733 184.576 36.18V42.5H182.036ZM194.687 32.02C195.501 32.02 196.247 32.1667 196.927 32.46C197.607 32.74 198.187 33.1267 198.667 33.62C199.161 34.1 199.541 34.6733 199.807 35.34C200.074 36.0067 200.207 36.7133 200.207 37.46C200.207 38.2067 200.074 38.9133 199.807 39.58C199.541 40.2467 199.161 40.8267 198.667 41.32C198.187 41.8 197.607 42.1867 196.927 42.48C196.247 42.76 195.501 42.9 194.687 42.9C193.874 42.9 193.127 42.76 192.447 42.48C191.767 42.1867 191.181 41.8 190.687 41.32C190.207 40.8267 189.834 40.2467 189.567 39.58C189.301 38.9133 189.167 38.2067 189.167 37.46C189.167 36.7133 189.301 36.0067 189.567 35.34C189.834 34.6733 190.207 34.1 190.687 33.62C191.181 33.1267 191.767 32.74 192.447 32.46C193.127 32.1667 193.874 32.02 194.687 32.02ZM194.727 40.5C195.527 40.5 196.201 40.2133 196.747 39.64C197.294 39.0533 197.567 38.3267 197.567 37.46C197.567 36.58 197.294 35.8533 196.747 35.28C196.201 34.7067 195.527 34.42 194.727 34.42C193.887 34.42 193.187 34.7067 192.627 35.28C192.081 35.8533 191.807 36.58 191.807 37.46C191.807 38.34 192.081 39.0667 192.627 39.64C193.187 40.2133 193.887 40.5 194.727 40.5Z"
    fill="white"/>
  <defs>
    <clipPath id="clip0_328_78338">
      <rect width="35" height="35" fill="white" transform="translate(6 9.5)"/>
    </clipPath>
  </defs>
</svg>
