<svg width="76" height="97" viewBox="0 0 76 97" fill="none" xmlns="http://www.w3.org/2000/svg">
<path d="M21.9607 80.9082C21.9233 79.7855 22.1477 78.7002 22.6341 77.6898L36.6635 49.8098C37.075 48.9865 36.8505 48.0884 36.2519 47.4147C30.9769 41.951 29.9294 33.4186 35.0548 26.8322C38.4592 22.4537 44.258 20.0961 49.9446 20.5451C43.2479 24.2126 38.8708 31.2481 39.2823 39.1443C39.5816 44.7203 42.2378 49.6227 46.2783 53.0656C46.1286 53.1779 45.9416 53.2901 45.8293 53.5147L40.8162 63.4691C39.6564 64.2176 35.803 62.6458 35.2044 63.8434C34.6058 65.0409 38.2722 66.912 38.4218 68.2593C38.4592 68.7083 37.9729 69.5316 37.6362 69.831C36.6635 70.6169 33.2216 70.0181 32.6604 71.1408C32.0992 72.2635 35.2792 73.9101 35.2418 75.1451C35.2418 75.9684 34.7181 76.5671 34.0072 77.0162C32.8475 77.7647 30.2661 76.7542 29.6675 77.9518C29.0689 79.1493 31.5007 80.4591 31.6129 81.7689C31.6877 82.4799 30.9395 83.9769 30.3035 84.3885C27.984 85.8854 23.6816 87.4946 23.6816 87.4946C23.083 87.6443 22.1103 85.6609 22.1477 84.8002L21.9607 80.9456V80.9082Z" fill="#C9191E"/>
<path d="M44.258 9.1686C44.707 9.43056 45.3804 9.31829 45.6423 8.83179C48.2985 4.60301 53.0872 1.98341 58.063 1.98341C66.1813 1.98341 72.7658 8.53241 72.7658 16.6532C72.7658 19.9464 71.6434 22.9776 69.8102 25.4475C68.1641 27.6929 65.8446 29.4144 63.1509 30.3873C61.5797 30.9861 59.8587 31.3229 58.063 31.3229C57.5392 31.3229 57.1277 31.772 57.1277 32.2959C57.1277 32.8198 57.5392 33.2689 58.063 33.2689C60.0458 33.2689 61.879 32.9321 63.5999 32.2959C65.1338 31.772 66.518 31.0235 67.7526 30.1254C68.426 29.6763 69.0246 29.1524 69.5858 28.591C70.1095 27.9923 70.6333 27.3935 71.1571 26.7948C73.4018 24.0255 74.7112 20.4703 74.7112 16.6157C74.7112 7.44715 67.2662 0 58.0256 0C52.339 0 46.9517 2.9564 43.9588 7.78395C43.622 8.23302 43.7717 8.83179 44.2206 9.1686H44.258Z" fill="#000091"/>
<path d="M41.6018 34.8407C42.9112 28.142 48.5978 22.6782 55.4815 21.5181C60.4573 20.6948 65.0964 22.0046 68.6879 24.5868C67.0792 26.6825 64.9093 28.2917 62.3653 29.1898C61.43 28.1045 60.1206 27.3935 58.5493 27.3935C55.8183 27.3935 53.5736 29.6015 53.5736 32.2959C53.5736 34.9529 55.8183 37.1609 58.5493 37.1609C60.794 37.1609 62.6272 35.7014 63.2632 33.7554C66.7799 32.6701 69.8476 30.5745 72.0923 27.7303C74.4119 30.6119 75.7961 34.2045 75.7961 38.1339C75.7961 45.3565 71.157 51.5687 64.5726 53.9263C63.974 54.1508 63.5625 54.6748 63.5625 55.3109V66.912C62.8517 68.1096 58.6615 68.2967 58.6615 69.6813C58.6615 71.066 62.8517 71.2531 63.5625 72.4506C63.7869 72.8623 63.7495 73.8353 63.5625 74.2843C63.0387 75.4444 59.6342 76.38 59.6342 77.6898C59.6342 78.9622 63.2632 79.1867 63.8244 80.3468C64.1985 81.1327 64.0114 81.9186 63.5625 82.6296C62.8517 83.8271 60.0458 84.0143 60.0458 85.3989C60.0458 86.7836 62.8517 86.9707 63.5625 88.1682C63.9366 88.8418 63.9366 90.5633 63.5625 91.1994C62.1408 93.5945 58.9608 97 58.9608 97C58.4745 97.4116 56.7161 95.9147 56.342 95.1288L54.3966 91.5737C53.8354 90.5633 53.5361 89.4032 53.5361 88.243V55.8723C53.5361 54.9367 52.9376 54.1508 52.0771 53.814C44.7818 50.9325 39.9557 43.3731 41.6018 34.9155V34.8407Z" fill="#000091"/>
<path d="M26.899 17.2893C32.1741 12.9109 40.0305 12.3121 46.0912 15.8299C48.2611 17.1022 48.5604 17.0274 49.9446 18.8611C43.5846 16.3912 37.5988 19.7218 33.0345 25.2978C27.6847 31.8094 28.3207 41.24 34.2317 47.0779C33.6705 46.9282 33.0719 46.816 32.5108 46.6288C31.9122 46.4043 31.2762 46.554 30.8647 47.0405L23.4946 55.9846C22.1851 56.4711 18.8181 53.9263 17.9576 55.0116C17.0972 56.0968 20.2023 58.9035 19.9779 60.2508C19.903 60.6998 19.2296 61.4483 18.8181 61.6354C17.6583 62.1967 14.4409 60.7747 13.6179 61.7477C12.7948 62.7207 15.4885 65.1906 15.1517 66.463C14.9273 67.2863 14.2913 67.7728 13.5056 68.0721C12.1962 68.5586 9.91411 66.912 9.05364 67.9599C8.19317 69.0077 10.2134 70.9537 9.98893 72.3383C9.8767 73.0868 8.75435 74.434 8.04352 74.696C5.42471 75.669 0.823067 76.2677 0.823067 76.2677C0.187068 76.2677 -0.22446 74.0224 9.78634e-06 73.1616L0.748244 69.1948C0.972714 68.0347 1.45907 66.9869 2.2073 66.0887L22.7463 41.0903C23.3449 40.3792 23.3823 39.3688 22.9334 38.5455C19.1174 31.6971 20.2023 22.7905 26.8242 17.2893H26.899Z" fill="#0071BC"/>
</svg>
