<svg width="179" height="75" viewBox="0 0 179 75" fill="none" xmlns="http://www.w3.org/2000/svg">
<g clip-path="url(#clip0_367_83190)">
<path d="M67.0244 22.7142V1.88086H72.3128L77.3138 10.4457L82.3147 1.88086H87.6031V22.7142H83.4069V7.89938L78.8083 15.5672H75.848L71.2494 7.89938V22.7142H67.0532H67.0244Z" fill="#000091"/>
<path d="M99.7606 7.11816C100.968 7.11816 102.06 7.32071 103.066 7.75474C104.072 8.18877 104.934 8.76747 105.653 9.49085C106.371 10.2142 106.917 11.0823 107.32 12.0661C107.722 13.0499 107.923 14.1205 107.923 15.22C107.923 16.3196 107.722 17.3902 107.32 18.374C106.917 19.3577 106.371 20.2258 105.653 20.9492C104.934 21.6726 104.072 22.2513 103.066 22.6853C102.06 23.1193 100.968 23.3219 99.7606 23.3219C98.5535 23.3219 97.4613 23.1193 96.4554 22.6853C95.4495 22.2513 94.5872 21.6726 93.8687 20.9492C93.1502 20.2258 92.6041 19.3577 92.2017 18.374C91.7993 17.3902 91.5981 16.3196 91.5981 15.22C91.5981 14.1205 91.7993 13.0499 92.2017 12.0661C92.6041 11.0823 93.1502 10.2142 93.8687 9.49085C94.5872 8.76747 95.4495 8.18877 96.4554 7.75474C97.4613 7.32071 98.5535 7.11816 99.7606 7.11816ZM99.8181 19.7339C100.997 19.7339 102.002 19.2999 102.807 18.4318C103.612 17.5638 104.014 16.4932 104.014 15.1911C104.014 13.889 103.612 12.7895 102.807 11.9503C102.002 11.1112 100.997 10.6772 99.8181 10.6772C98.6397 10.6772 97.5476 11.1112 96.7141 11.9503C95.9093 12.8184 95.4782 13.889 95.4782 15.1911C95.4782 16.4932 95.8806 17.5927 96.7141 18.4318C97.5188 19.2999 98.5535 19.705 99.8181 19.705V19.7339Z" fill="#000091"/>
<path d="M111.372 22.7142V7.7258H115.137V8.91215C115.655 8.42025 116.258 7.98622 116.977 7.639C117.695 7.29178 118.557 7.11816 119.535 7.11816C120.339 7.11816 121.087 7.26284 121.805 7.52326C122.495 7.81261 123.127 8.2177 123.645 8.76747C124.162 9.31724 124.593 10.0117 124.88 10.8508C125.168 11.6899 125.34 12.6448 125.34 13.7733V22.7142H121.518V13.9179C121.518 12.9341 121.259 12.124 120.742 11.5452C120.224 10.9665 119.506 10.6772 118.586 10.6772C117.666 10.6772 116.89 10.9376 116.344 11.4295C115.798 11.9214 115.396 12.4133 115.108 12.9052V22.7142H111.343H111.372Z" fill="#000091"/>
<path d="M76.2504 43.7212C77.4288 43.7212 78.4922 43.4608 79.4119 42.94C80.3316 42.4191 81.0789 41.7247 81.6825 40.8856L84.9877 43.4319C84.0392 44.7339 82.8321 45.7467 81.3088 46.5279C79.8143 47.3092 78.1185 47.6853 76.2504 47.6853C74.6409 47.6853 73.1463 47.396 71.7955 46.7883C70.4447 46.1807 69.2663 45.3995 68.3178 44.4157C67.3406 43.4319 66.5933 42.2455 66.076 40.9145C65.5587 39.5835 65.2712 38.1657 65.2712 36.661C65.2712 35.1564 65.5299 33.7675 66.076 32.4076C66.6221 31.0765 67.3693 29.8902 68.3178 28.9064C69.295 27.9226 70.4447 27.1124 71.7955 26.5337C73.1463 25.9261 74.6409 25.6367 76.2504 25.6367C78.1185 25.6367 79.8143 26.0418 81.3088 26.8231C82.8034 27.6043 84.0392 28.617 84.9877 29.8613L81.6825 32.4654C81.0789 31.5974 80.3316 30.9319 79.4119 30.3821C78.4922 29.8323 77.4575 29.6008 76.2504 29.6008C75.2732 29.6008 74.3822 29.7745 73.5487 30.1506C72.7152 30.5268 72.0254 31.0187 71.4219 31.6263C70.847 32.2629 70.3872 32.9863 70.0423 33.8543C69.6974 34.7224 69.5537 35.6483 69.5537 36.6321C69.5537 37.6159 69.7261 38.5418 70.0423 39.4099C70.3872 40.2779 70.847 41.0302 71.4219 41.6379C71.9967 42.2745 72.7152 42.7663 73.5487 43.1136C74.3822 43.4897 75.2732 43.6633 76.2504 43.6633V43.7212Z" fill="#000091"/>
<path d="M94.9321 31.4814C96.1393 31.4814 97.2314 31.684 98.2374 32.118C99.2433 32.552 100.106 33.1307 100.824 33.8541C101.543 34.5775 102.089 35.4456 102.491 36.4294C102.893 37.4132 103.095 38.4838 103.095 39.5833C103.095 40.6828 102.893 41.7534 102.491 42.7372C102.089 43.721 101.543 44.5891 100.824 45.3125C100.106 46.0358 99.2433 46.6145 98.2374 47.0486C97.2314 47.4826 96.1393 47.6851 94.9321 47.6851C93.725 47.6851 92.6328 47.4826 91.6269 47.0486C90.621 46.6145 89.7587 46.0358 89.0402 45.3125C88.3217 44.5891 87.7756 43.721 87.3732 42.7372C86.9708 41.7534 86.7697 40.6828 86.7697 39.5833C86.7697 38.4838 86.9708 37.4132 87.3732 36.4294C87.7756 35.4456 88.3217 34.5775 89.0402 33.8541C89.7587 33.1307 90.621 32.552 91.6269 32.118C92.6328 31.684 93.725 31.4814 94.9321 31.4814ZM94.9896 44.0972C96.168 44.0972 97.174 43.6632 97.9787 42.7951C98.7835 41.927 99.1858 40.8564 99.1858 39.5544C99.1858 38.2523 98.7835 37.1527 97.9787 36.3136C97.174 35.4745 96.168 35.0405 94.9896 35.0405C93.8112 35.0405 92.7191 35.4745 91.8856 36.3136C91.0808 37.1817 90.6497 38.2523 90.6497 39.5544C90.6497 40.8564 91.0521 41.956 91.8856 42.7951C92.6903 43.6632 93.725 44.0682 94.9896 44.0682V44.0972Z" fill="#000091"/>
<path d="M106.515 47.0778V32.0604H110.28V33.1889C110.768 32.697 111.343 32.2919 112.033 31.9447C112.723 31.5974 113.499 31.4528 114.39 31.4528C115.367 31.4528 116.258 31.6842 117.063 32.1183C117.868 32.5523 118.529 33.2178 119.017 34.0569C119.563 33.3914 120.224 32.7838 121 32.234C121.776 31.6842 122.725 31.4238 123.903 31.4238C124.679 31.4238 125.398 31.5685 126.059 31.8289C126.72 32.0893 127.295 32.4944 127.812 33.0153C128.329 33.5361 128.703 34.2016 128.99 35.0118C129.278 35.822 129.421 36.7479 129.421 37.7896V47.0199H125.628V37.9342C125.628 37.0083 125.398 36.3139 124.938 35.7641C124.478 35.2433 123.817 34.9829 122.983 34.9829C122.207 34.9829 121.546 35.2143 121.058 35.6773C120.569 36.1403 120.167 36.6322 119.879 37.1241C119.879 37.2109 119.908 37.3266 119.908 37.4423V46.991H116.086V37.9053C116.086 36.9794 115.856 36.2849 115.396 35.7352C114.936 35.1854 114.304 34.9539 113.441 34.9539C112.579 34.9539 111.918 35.2143 111.43 35.7062C110.941 36.1981 110.539 36.69 110.28 37.1819V46.991H106.515V47.0778Z" fill="#000091"/>
<path d="M133.704 54.3977V32.0598H137.469V33.1304C138.073 32.5806 138.734 32.1755 139.51 31.8862C140.286 31.5968 141.148 31.4521 142.125 31.4521C143.304 31.4521 144.367 31.6836 145.315 32.1177C146.264 32.5517 147.04 33.1304 147.701 33.8827C148.362 34.6061 148.851 35.4741 149.195 36.4579C149.54 37.4417 149.713 38.4834 149.713 39.5829C149.713 40.6825 149.54 41.7241 149.195 42.7079C148.851 43.6917 148.362 44.5598 147.701 45.2832C147.04 46.0065 146.264 46.6142 145.315 47.0482C144.367 47.4822 143.332 47.7137 142.125 47.7137C141.148 47.7137 140.286 47.569 139.51 47.2797C138.734 46.9903 138.073 46.5852 137.469 46.0355V54.4267H133.704V54.3977ZM137.498 41.8399C137.986 42.5633 138.59 43.142 139.251 43.5181C139.912 43.8943 140.717 44.0968 141.579 44.0968C142.844 44.0968 143.85 43.6628 144.626 42.8237C145.402 41.9846 145.775 40.885 145.775 39.5829C145.775 38.2809 145.402 37.1813 144.626 36.3422C143.85 35.5031 142.844 35.069 141.579 35.069C140.717 35.069 139.941 35.2716 139.251 35.6477C138.561 36.0239 137.986 36.6026 137.498 37.326H137.469V41.8688H137.498V41.8399Z" fill="#000091"/>
<path d="M153.851 41.6084V35.532H151.064V32.0887H153.851V28.3271H157.645V32.0887H162.186V35.532H157.645V41.6084C157.645 42.4475 157.847 43.0262 158.278 43.4024C158.709 43.7496 159.284 43.9232 160.002 43.9232C160.519 43.9232 160.951 43.8943 161.295 43.8364C161.64 43.7785 161.956 43.6917 162.215 43.6049V46.9035C161.842 47.0482 161.41 47.1929 160.951 47.2508C160.491 47.3376 159.945 47.3665 159.341 47.3665C157.502 47.3665 156.093 46.8746 155.202 45.8619C154.283 44.8491 153.851 43.4313 153.851 41.6084Z" fill="#000091"/>
<path d="M179 44.6466C178.31 45.5725 177.391 46.3248 176.27 46.8746C175.149 47.4244 173.884 47.6848 172.476 47.6848C171.154 47.6848 169.975 47.4533 168.941 47.0193C167.906 46.5852 167.044 46.0065 166.325 45.2542C165.635 44.5309 165.089 43.6628 164.716 42.679C164.342 41.6952 164.17 40.6535 164.17 39.554C164.17 38.4545 164.342 37.3839 164.687 36.4001C165.032 35.4163 165.52 34.5482 166.181 33.8248C166.842 33.1015 167.619 32.5228 168.567 32.0887C169.515 31.6547 170.608 31.4521 171.815 31.4521C173.855 31.4521 175.522 32.0887 176.787 33.3329C178.052 34.6061 178.684 36.1975 178.684 38.1651C178.684 38.5702 178.684 38.9753 178.598 39.3515C178.511 39.7276 178.483 40.0459 178.425 40.3063H167.992C168.107 41.5505 168.567 42.5054 169.372 43.1998C170.176 43.8943 171.211 44.2415 172.476 44.2415C173.281 44.2415 174.028 44.0679 174.66 43.7496C175.321 43.4313 175.838 42.9973 176.241 42.4475L178.943 44.5887L179 44.6466ZM171.872 34.635C170.952 34.635 170.205 34.8665 169.602 35.3295C168.998 35.7924 168.567 36.5158 168.308 37.4996H175.034C175.034 36.7762 174.718 36.1107 174.2 35.532C173.654 34.9533 172.907 34.664 171.901 34.664L171.872 34.635Z" fill="#000091"/>
<path d="M67.0244 71.4408V50.6074H73.8648C76.1354 50.6074 77.9173 51.1572 79.2394 52.2857C80.5615 53.3852 81.1938 54.9188 81.1938 56.8285C81.1938 58.7382 80.5328 60.2428 79.2394 61.3424C77.9173 62.4419 76.1354 63.0206 73.8648 63.0206H71.2206V71.4408H67.0244ZM74.0373 54.1954H71.2206V59.4037H74.0373C74.9282 59.4037 75.618 59.1722 76.1354 58.7093C76.624 58.2463 76.8826 57.6097 76.8826 56.7417C76.8826 55.9604 76.624 55.3239 76.1354 54.8609C75.618 54.3979 74.9282 54.1664 74.0373 54.1664V54.1954Z" fill="#000091"/>
<path d="M84.0967 71.4411V56.4238H87.8618V57.8995C88.3504 57.4076 88.9252 56.9735 89.5575 56.6263C90.1898 56.2791 90.9371 56.1055 91.7993 56.1055C92.058 56.1055 92.2879 56.1055 92.5178 56.1633C92.7478 56.2212 92.9202 56.2501 93.1214 56.308V60.2721C92.8915 60.2143 92.6328 60.1564 92.3741 60.1275C92.1155 60.0985 91.7993 60.0696 91.4832 60.0696C90.5634 60.0696 89.8162 60.2721 89.2126 60.7062C88.609 61.1402 88.1779 61.5742 87.8905 62.0082V71.4122H84.1254L84.0967 71.4411Z" fill="#000091"/>
<path d="M102.778 55.8447C103.986 55.8447 105.078 56.0473 106.084 56.4813C107.09 56.9153 107.952 57.494 108.67 58.2174C109.389 58.9408 109.935 59.8088 110.337 60.7926C110.74 61.7764 110.941 62.847 110.941 63.9466C110.941 65.0461 110.74 66.1167 110.337 67.1005C109.935 68.0843 109.389 68.9524 108.67 69.6757C107.952 70.3991 107.09 70.9778 106.084 71.4119C105.078 71.8459 103.986 72.0484 102.778 72.0484C101.571 72.0484 100.479 71.8459 99.4732 71.4119C98.4673 70.9778 97.6051 70.3991 96.8865 69.6757C96.168 68.9524 95.6219 68.0843 95.2195 67.1005C94.8172 66.1167 94.616 65.0461 94.616 63.9466C94.616 62.847 94.8172 61.7764 95.2195 60.7926C95.6219 59.8088 96.168 58.9408 96.8865 58.2174C97.6051 57.494 98.4673 56.9153 99.4732 56.4813C100.479 56.0473 101.571 55.8447 102.778 55.8447ZM102.836 68.4605C104.014 68.4605 105.02 68.0264 105.825 67.1584C106.63 66.2903 107.032 65.2197 107.032 63.9176C107.032 62.6156 106.63 61.516 105.825 60.6769C105.02 59.8378 104.014 59.4038 102.836 59.4038C101.658 59.4038 100.565 59.8378 99.7319 60.6769C98.9272 61.545 98.496 62.6156 98.496 63.9176C98.496 65.2197 98.8984 66.3193 99.7319 67.1584C100.537 68.0264 101.571 68.4315 102.836 68.4315V68.4605Z" fill="#000091"/>
<path d="M16.871 62.5582C16.8423 61.6901 17.0147 60.851 17.3883 60.0698L28.1663 38.513C28.4824 37.8765 28.31 37.182 27.8501 36.6612C23.7976 32.4367 22.9929 25.8394 26.9304 20.7468C29.5459 17.3614 34.0007 15.5385 38.3694 15.8857C33.2247 18.7214 29.862 24.1612 30.1782 30.2665C30.4081 34.5779 32.4487 38.3684 35.5528 41.0304C35.4378 41.1172 35.2941 41.204 35.2079 41.3776L31.3565 49.0744C30.4656 49.6531 27.5052 48.4378 27.0454 49.3637C26.5855 50.2897 29.4022 51.7364 29.5171 52.7781C29.5459 53.1253 29.1722 53.7619 28.9135 53.9934C28.1663 54.601 25.5221 54.138 25.091 55.0061C24.6599 55.8742 27.1029 57.1473 27.0741 58.1022C27.0741 58.7387 26.6717 59.2017 26.1257 59.5489C25.2347 60.1276 23.2515 59.3464 22.7917 60.2723C22.3318 61.1982 24.2 62.211 24.2862 63.2237C24.3437 63.7735 23.7689 64.9309 23.2803 65.2492C21.4983 66.4066 18.1931 67.6508 18.1931 67.6508C17.7332 67.7665 16.986 66.233 17.0147 65.5674L16.871 62.5871V62.5582Z" fill="#C9191E"/>
<path d="M34.0008 7.08912C34.3457 7.29167 34.863 7.20486 35.0642 6.8287C37.1048 3.55903 40.7837 1.53356 44.6063 1.53356C50.8431 1.53356 55.9015 6.59722 55.9015 12.8762C55.9015 15.4225 55.0393 17.7662 53.631 19.6759C52.3664 21.412 50.5844 22.7431 48.5151 23.4954C47.3079 23.9583 45.9858 24.2188 44.6063 24.2188C44.2039 24.2188 43.8877 24.566 43.8877 24.9711C43.8877 25.3762 44.2039 25.7234 44.6063 25.7234C46.1295 25.7234 47.5379 25.463 48.86 24.9711C50.0383 24.566 51.1018 23.9873 52.0502 23.2928C52.5676 22.9456 53.0274 22.5405 53.4585 22.1065C53.8609 21.6435 54.2633 21.1806 54.6657 20.7176C56.3901 18.5764 57.3961 15.8275 57.3961 12.8472C57.3961 5.7581 51.6766 0 44.5775 0C40.2089 0 36.0701 2.28588 33.7708 6.01852C33.5122 6.36574 33.6271 6.8287 33.972 7.08912H34.0008Z" fill="#000091"/>
<path d="M31.9601 26.9385C32.9661 21.7591 37.3347 17.5346 42.6231 16.6376C46.4457 16.001 50.0096 17.0138 52.7687 19.0103C51.5329 20.6307 49.8659 21.8749 47.9115 22.5693C47.1929 21.7302 46.187 21.1804 44.9799 21.1804C42.8818 21.1804 41.1573 22.8876 41.1573 24.9709C41.1573 27.0253 42.8818 28.7325 44.9799 28.7325C46.7043 28.7325 48.1127 27.604 48.6013 26.0994C51.3029 25.2603 53.6597 23.6399 55.3842 21.4408C57.1661 23.6688 58.2295 26.4466 58.2295 29.4848C58.2295 35.0693 54.6656 39.8726 49.6072 41.6955C49.1473 41.8691 48.8312 42.2742 48.8312 42.7661V51.736C48.2851 52.6619 45.0661 52.8066 45.0661 53.8772C45.0661 54.9478 48.2851 55.0925 48.8312 56.0184C49.0036 56.3367 48.9749 57.089 48.8312 57.4362C48.4288 58.3332 45.8134 59.0566 45.8134 60.0693C45.8134 61.0531 48.6013 61.2267 49.0324 62.1237C49.3198 62.7313 49.1761 63.339 48.8312 63.8888C48.2851 64.8147 46.1295 64.9594 46.1295 66.03C46.1295 67.1006 48.2851 67.2452 48.8312 68.1712C49.1186 68.692 49.1186 70.023 48.8312 70.5149C47.739 72.3668 45.296 74.9999 45.296 74.9999C44.9224 75.3182 43.5715 74.1607 43.2841 73.5531L41.7896 70.8043C41.3585 70.023 41.1285 69.126 41.1285 68.229V43.2001C41.1285 42.4767 40.6687 41.8691 40.0076 41.6087C34.4031 39.3807 30.6955 33.5357 31.9601 26.9964V26.9385Z" fill="#000091"/>
<path d="M20.6648 13.3681C24.7174 9.98272 30.753 9.51976 35.4091 12.2397C37.0761 13.2235 37.306 13.1656 38.3694 14.5834C33.4834 12.6737 28.8848 15.2489 25.3784 19.5603C21.2684 24.595 21.757 31.8867 26.2981 36.4005C25.867 36.2848 25.4071 36.198 24.976 36.0533C24.5162 35.8797 24.0276 35.9954 23.7114 36.3716L18.0494 43.2871C17.0435 43.6633 14.4568 41.6957 13.7957 42.5348C13.1347 43.3739 15.5202 45.5441 15.3477 46.5857C15.2902 46.933 14.7729 47.5117 14.4568 47.6563C13.5658 48.0904 11.094 46.9908 10.4617 47.7431C9.82943 48.4954 11.8988 50.4052 11.6401 51.389C11.4677 52.0255 10.9791 52.4017 10.3755 52.6332C9.36957 53.0093 7.61636 51.7362 6.95531 52.5464C6.29426 53.3566 7.84629 54.8612 7.67384 55.9318C7.58762 56.5105 6.72538 57.5522 6.1793 57.7547C4.16742 58.507 0.632252 58.97 0.632252 58.97C0.143652 58.97 -0.172501 57.2339 -5.3782e-05 56.5684L0.57477 53.5012C0.747217 52.6042 1.12085 51.7941 1.69568 51.0996L17.4746 31.7709C17.9344 31.2211 17.9632 30.4399 17.6183 29.8033C14.6867 24.5082 15.5202 17.6216 20.6074 13.3681H20.6648Z" fill="#0071BC"/>
</g>
<defs>
<clipPath id="clip0_367_83190">
<rect width="179" height="75" fill="white"/>
</clipPath>
</defs>
</svg>
